<svg width="1033" height="620" viewBox="0 0 1033 620" fill="none" xmlns="http://www.w3.org/2000/svg">
<path d="M407.299 283.479L364.151 267.001L371.454 312.608L407.299 283.479ZM146.695 476.526C205.003 476.526 239.076 436.898 269.653 395.035C285.088 373.901 299.58 352.264 316.095 333.792C332.545 315.393 350.674 300.538 373.025 292.962L370.457 285.385C346.291 293.576 327.061 309.524 310.131 328.46C293.266 347.323 278.357 369.553 263.192 390.316C232.567 432.245 200.635 468.526 146.695 468.526V476.526Z" fill="#29ABE2"/>
<path d="M392 283L357.396 252.409L348.205 297.673L392 283ZM152.243 80.7734C201.497 80.7734 230.53 119.314 258.331 164.745C272.044 187.153 285.452 211.2 300.616 231.753C315.818 252.357 333.155 270 355.125 279.507L358.302 272.165C338.221 263.475 321.908 247.136 307.054 227.004C292.164 206.821 279.112 183.377 265.155 160.569C237.616 115.567 206.465 72.7734 152.243 72.7734V80.7734Z" fill="#29ABE2"/>
<path d="M143.314 278.434V286.205C143.314 293.053 125.352 298.639 103.213 298.639C81.074 298.639 63.1123 293.053 63.1123 286.205V278.434C63.1123 271.585 81.074 266 103.213 266C125.352 266 143.314 271.585 143.314 278.434ZM143.314 295.919V313.404C143.314 320.252 125.352 325.838 103.213 325.838C81.074 325.838 63.1123 320.252 63.1123 313.404V295.919C71.7277 301.553 87.4964 304.176 103.213 304.176C118.93 304.176 134.698 301.553 143.314 295.919ZM143.314 323.118V340.603C143.314 347.451 125.352 353.036 103.213 353.036C81.074 353.036 63.1123 347.451 63.1123 340.603V323.118C71.7277 328.752 87.4964 331.375 103.213 331.375C118.93 331.375 134.698 328.752 143.314 323.118Z" fill="#9B9DB1"/>
<path d="M147.978 47.8928V55.6638C147.978 62.5122 130.016 68.0976 107.877 68.0976C85.7381 68.0976 67.7764 62.5122 67.7764 55.6638V47.8928C67.7764 41.0444 85.7381 35.459 107.877 35.459C130.016 35.459 147.978 41.0444 147.978 47.8928ZM147.978 65.3777V82.8627C147.978 89.7111 130.016 95.2965 107.877 95.2965C85.7381 95.2965 67.7764 89.7111 67.7764 82.8627V65.3777C76.3917 71.0118 92.1604 73.6346 107.877 73.6346C123.594 73.6346 139.362 71.0118 147.978 65.3777ZM147.978 92.5766V110.062C147.978 116.91 130.016 122.495 107.877 122.495C85.7381 122.495 67.7764 116.91 67.7764 110.062V92.5766C76.3917 98.2107 92.1604 100.834 107.877 100.834C123.594 100.834 139.362 98.2107 147.978 92.5766Z" fill="#9B9DB1"/>
<path d="M155.163 176.802L153.378 180.879L157.76 181.653C169.905 183.8 178.453 193.046 178.453 203.471C178.453 215.357 167.278 225.76 152.473 225.76H67.72C50.8891 225.76 38.0557 213.907 38.0557 200.248C38.0557 189.427 46.0084 179.823 57.7408 176.213L60.3224 175.418L60.2082 172.72C60.1846 172.163 60.1652 171.693 60.1652 171.236C60.1652 155.784 74.6339 142.5 93.5145 142.5C106.088 142.5 116.854 148.471 122.537 157.085L124.366 159.858L127.23 158.176C130.19 156.439 133.815 155.394 137.734 155.394C148.461 155.394 156.343 162.916 156.343 171.236C156.343 173.186 155.924 175.067 155.163 176.802Z" stroke="#9B9DB1" stroke-width="7"/>
<path d="M412.362 127H557.129V281V435H412.362V127Z" fill="#29ABE2" stroke="#29ABE2" stroke-width="10"/>
<g clip-path="url(#clip0)">
<path d="M883.042 237.857V249.018C883.042 258.853 856.23 266.875 823.184 266.875C790.137 266.875 763.326 258.853 763.326 249.018V237.857C763.326 228.022 790.137 220 823.184 220C856.23 220 883.042 228.022 883.042 237.857ZM883.042 262.969V288.08C883.042 297.916 856.23 305.938 823.184 305.938C790.137 305.938 763.326 297.916 763.326 288.08V262.969C776.186 271.06 799.724 274.827 823.184 274.827C846.644 274.827 870.181 271.06 883.042 262.969ZM883.042 302.031V327.143C883.042 336.978 856.23 345 823.184 345C790.137 345 763.326 336.978 763.326 327.143V302.031C776.186 310.123 799.724 313.89 823.184 313.89C846.644 313.89 870.181 310.123 883.042 302.031Z" fill="#6363E1"/>
</g>
<g clip-path="url(#clip1)">
<path d="M109.424 432.953V404H67.0933C64.2784 404 62.0137 406.278 62.0137 409.109V507.891C62.0137 510.722 64.2784 513 67.0933 513H138.209C141.024 513 143.288 510.722 143.288 507.891V438.062H114.504C111.71 438.062 109.424 435.763 109.424 432.953ZM143.288 429.951V431.25H116.197V404H117.488C118.842 404 120.133 404.532 121.086 405.49L141.807 426.354C142.759 427.312 143.288 428.61 143.288 429.951Z" fill="#9B9DB1"/>
</g>
<path d="M47.1182 579.211H33.6182V588.352H49.4619V594H26.5869V559.875H49.415V565.57H33.6182V573.703H47.1182V579.211ZM65.7979 571.641L72.1963 559.875H80.2822L70.3447 576.797L80.54 594H72.3604L65.7979 582.047L59.2354 594H51.0557L61.251 576.797L51.3135 559.875H59.3994L65.7979 571.641ZM109.79 565.57H99.3369V594H92.3057V565.57H81.9932V559.875H109.79V565.57ZM126.454 581.508H120.853V594H113.821V559.875H126.501C130.532 559.875 133.642 560.773 135.829 562.57C138.017 564.367 139.11 566.906 139.11 570.188C139.11 572.516 138.603 574.461 137.587 576.023C136.587 577.57 135.063 578.805 133.017 579.727L140.399 593.672V594H132.853L126.454 581.508ZM120.853 575.812H126.524C128.29 575.812 129.657 575.367 130.626 574.477C131.595 573.57 132.079 572.328 132.079 570.75C132.079 569.141 131.618 567.875 130.696 566.953C129.79 566.031 128.392 565.57 126.501 565.57H120.853V575.812ZM163.743 586.969H151.415L149.071 594H141.595L154.298 559.875H160.813L173.587 594H166.11L163.743 586.969ZM153.313 581.273H161.845L157.556 568.5L153.313 581.273ZM203.048 582.633C202.782 586.305 201.423 589.195 198.97 591.305C196.532 593.414 193.313 594.469 189.313 594.469C184.938 594.469 181.493 593 178.978 590.062C176.478 587.109 175.228 583.062 175.228 577.922V575.836C175.228 572.555 175.806 569.664 176.962 567.164C178.118 564.664 179.767 562.75 181.907 561.422C184.063 560.078 186.563 559.406 189.407 559.406C193.345 559.406 196.517 560.461 198.923 562.57C201.329 564.68 202.72 567.641 203.095 571.453H196.063C195.892 569.25 195.274 567.656 194.212 566.672C193.165 565.672 191.563 565.172 189.407 565.172C187.063 565.172 185.306 566.016 184.134 567.703C182.978 569.375 182.384 571.977 182.353 575.508V578.086C182.353 581.773 182.907 584.469 184.017 586.172C185.142 587.875 186.907 588.727 189.313 588.727C191.485 588.727 193.103 588.234 194.165 587.25C195.243 586.25 195.86 584.711 196.017 582.633H203.048ZM232.649 565.57H222.196V594H215.165V565.57H204.853V559.875H232.649V565.57Z" fill="white"/>
<path d="M376.254 563.57H365.801V592H358.77V563.57H348.457V557.875H376.254V563.57ZM392.918 579.508H387.316V592H380.285V557.875H392.965C396.996 557.875 400.105 558.773 402.293 560.57C404.48 562.367 405.574 564.906 405.574 568.188C405.574 570.516 405.066 572.461 404.051 574.023C403.051 575.57 401.527 576.805 399.48 577.727L406.863 591.672V592H399.316L392.918 579.508ZM387.316 573.812H392.988C394.754 573.812 396.121 573.367 397.09 572.477C398.059 571.57 398.543 570.328 398.543 568.75C398.543 567.141 398.082 565.875 397.16 564.953C396.254 564.031 394.855 563.57 392.965 563.57H387.316V573.812ZM430.207 584.969H417.879L415.535 592H408.059L420.762 557.875H427.277L440.051 592H432.574L430.207 584.969ZM419.777 579.273H428.309L424.02 566.5L419.777 579.273ZM470.988 592H463.957L450.27 569.547V592H443.238V557.875H450.27L463.98 580.375V557.875H470.988V592ZM494.824 583.047C494.824 581.719 494.355 580.703 493.418 580C492.48 579.281 490.793 578.531 488.355 577.75C485.918 576.953 483.988 576.172 482.566 575.406C478.691 573.312 476.754 570.492 476.754 566.945C476.754 565.102 477.27 563.461 478.301 562.023C479.348 560.57 480.84 559.438 482.777 558.625C484.73 557.812 486.918 557.406 489.34 557.406C491.777 557.406 493.949 557.852 495.855 558.742C497.762 559.617 499.238 560.859 500.285 562.469C501.348 564.078 501.879 565.906 501.879 567.953H494.848C494.848 566.391 494.355 565.18 493.371 564.32C492.387 563.445 491.004 563.008 489.223 563.008C487.504 563.008 486.168 563.375 485.215 564.109C484.262 564.828 483.785 565.781 483.785 566.969C483.785 568.078 484.34 569.008 485.449 569.758C486.574 570.508 488.223 571.211 490.395 571.867C494.395 573.07 497.309 574.562 499.137 576.344C500.965 578.125 501.879 580.344 501.879 583C501.879 585.953 500.762 588.273 498.527 589.961C496.293 591.633 493.285 592.469 489.504 592.469C486.879 592.469 484.488 591.992 482.332 591.039C480.176 590.07 478.527 588.75 477.387 587.078C476.262 585.406 475.699 583.469 475.699 581.266H482.754C482.754 585.031 485.004 586.914 489.504 586.914C491.176 586.914 492.48 586.578 493.418 585.906C494.355 585.219 494.824 584.266 494.824 583.047ZM527.191 578.055H513.691V592H506.66V557.875H528.879V563.57H513.691V572.383H527.191V578.055ZM560.988 575.711C560.988 579.07 560.395 582.016 559.207 584.547C558.02 587.078 556.316 589.031 554.098 590.406C551.895 591.781 549.363 592.469 546.504 592.469C543.676 592.469 541.152 591.789 538.934 590.43C536.715 589.07 534.996 587.133 533.777 584.617C532.559 582.086 531.941 579.18 531.926 575.898V574.211C531.926 570.852 532.527 567.898 533.73 565.352C534.949 562.789 536.66 560.828 538.863 559.469C541.082 558.094 543.613 557.406 546.457 557.406C549.301 557.406 551.824 558.094 554.027 559.469C556.246 560.828 557.957 562.789 559.16 565.352C560.379 567.898 560.988 570.844 560.988 574.188V575.711ZM553.863 574.164C553.863 570.586 553.223 567.867 551.941 566.008C550.66 564.148 548.832 563.219 546.457 563.219C544.098 563.219 542.277 564.141 540.996 565.984C539.715 567.812 539.066 570.5 539.051 574.047V575.711C539.051 579.195 539.691 581.898 540.973 583.82C542.254 585.742 544.098 586.703 546.504 586.703C548.863 586.703 550.676 585.781 551.941 583.938C553.207 582.078 553.848 579.375 553.863 575.828V574.164ZM578.73 579.508H573.129V592H566.098V557.875H578.777C582.809 557.875 585.918 558.773 588.105 560.57C590.293 562.367 591.387 564.906 591.387 568.188C591.387 570.516 590.879 572.461 589.863 574.023C588.863 575.57 587.34 576.805 585.293 577.727L592.676 591.672V592H585.129L578.73 579.508ZM573.129 573.812H578.801C580.566 573.812 581.934 573.367 582.902 572.477C583.871 571.57 584.355 570.328 584.355 568.75C584.355 567.141 583.895 565.875 582.973 564.953C582.066 564.031 580.668 563.57 578.777 563.57H573.129V573.812ZM605.941 557.875L614.707 582.625L623.426 557.875H632.66V592H625.605V582.672L626.309 566.57L617.098 592H612.27L603.082 566.594L603.785 582.672V592H596.754V557.875H605.941Z" fill="white"/>
<path d="M766.182 584.352H781.111V590H759.15V555.875H766.182V584.352ZM811.697 573.711C811.697 577.07 811.104 580.016 809.916 582.547C808.729 585.078 807.025 587.031 804.807 588.406C802.604 589.781 800.072 590.469 797.213 590.469C794.385 590.469 791.861 589.789 789.643 588.43C787.424 587.07 785.705 585.133 784.486 582.617C783.268 580.086 782.65 577.18 782.635 573.898V572.211C782.635 568.852 783.236 565.898 784.439 563.352C785.658 560.789 787.369 558.828 789.572 557.469C791.791 556.094 794.322 555.406 797.166 555.406C800.01 555.406 802.533 556.094 804.736 557.469C806.955 558.828 808.666 560.789 809.869 563.352C811.088 565.898 811.697 568.844 811.697 572.188V573.711ZM804.572 572.164C804.572 568.586 803.932 565.867 802.65 564.008C801.369 562.148 799.541 561.219 797.166 561.219C794.807 561.219 792.986 562.141 791.705 563.984C790.424 565.812 789.775 568.5 789.76 572.047V573.711C789.76 577.195 790.4 579.898 791.682 581.82C792.963 583.742 794.807 584.703 797.213 584.703C799.572 584.703 801.385 583.781 802.65 581.938C803.916 580.078 804.557 577.375 804.572 573.828V572.164ZM835.557 582.969H823.229L820.885 590H813.408L826.111 555.875H832.627L845.4 590H837.924L835.557 582.969ZM825.127 577.273H833.658L829.369 564.5L825.127 577.273ZM848.588 590V555.875H859.088C862.088 555.875 864.768 556.555 867.127 557.914C869.502 559.258 871.354 561.18 872.682 563.68C874.01 566.164 874.674 568.992 874.674 572.164V573.734C874.674 576.906 874.018 579.727 872.705 582.195C871.408 584.664 869.572 586.578 867.197 587.938C864.822 589.297 862.143 589.984 859.158 590H848.588ZM855.619 561.57V584.352H859.018C861.768 584.352 863.869 583.453 865.322 581.656C866.775 579.859 867.518 577.289 867.549 573.945V572.141C867.549 568.672 866.83 566.047 865.393 564.266C863.955 562.469 861.854 561.57 859.088 561.57H855.619Z" fill="white"/>
<path d="M757 283L717.093 259.746L716.908 305.934L757 283ZM565.059 285C632.027 285 664.962 286.395 720.972 286.856L721.038 278.856C665.367 278.398 631.966 277 565.059 277V285Z" fill="#29ABE2"/>
<path d="M401 281L360.302 259.159L361.736 305.325L401 281ZM148 314C196.832 314 230.657 308.312 262.572 301.981C294.455 295.656 324.172 288.753 365.266 286.11L364.752 278.126C323.01 280.811 292.692 287.85 261.016 294.134C229.371 300.411 196.11 306 148 306V314Z" fill="#29ABE2"/>
<path d="M401 281L364.117 253.197L358.481 299.04L401 281ZM189 200C229.158 200 255.596 215.252 280.648 233.036C305.594 250.745 329.75 271.538 364.262 280.478L366.268 272.734C333.576 264.265 310.977 244.755 285.279 226.513C259.689 208.347 231.596 192 189 192V200Z" fill="#29ABE2"/>
<path d="M407.252 283.069L342.541 336.387L342.876 229.347L407.252 283.069Z" fill="#29ABE2"/>
<defs>
<clipPath id="clip0">
<rect width="119.715" height="125" fill="white" transform="translate(763.326 220)"/>
</clipPath>
<clipPath id="clip1">
<rect width="81.2746" height="109" fill="white" transform="translate(62.0137 404)"/>
</clipPath>
</defs>
</svg>
