<svg width="629" height="413" viewBox="0 0 629 413" fill="none" xmlns="http://www.w3.org/2000/svg">
<path d="M258 198L237 218.785V177.215L258 198Z" fill="#B3E8FF"/>
<g clip-path="url(#clip0)">
<path d="M328.513 170.509H273.487C269.994 170.509 267.162 173.455 267.162 177.09V234.346C267.162 237.981 269.994 240.928 273.487 240.928H328.513C332.006 240.928 334.837 237.981 334.837 234.346V177.09C334.837 173.455 332.006 170.509 328.513 170.509Z" stroke="#29ABE2" stroke-width="10"/>
<path d="M316.012 199.704L315.371 201.106C315.137 201.625 314.637 201.84 314.191 201.635C313.269 201.204 312.426 200.586 311.683 199.812C311.324 199.44 311.23 198.783 311.465 198.274L312.105 196.873C311.566 196.089 311.144 195.177 310.863 194.188H309.574C309.105 194.188 308.699 193.766 308.621 193.178C308.464 192.003 308.457 190.768 308.621 189.543C308.699 188.955 309.105 188.524 309.574 188.524H310.863C311.144 187.534 311.566 186.623 312.105 185.839L311.465 184.438C311.23 183.929 311.316 183.272 311.683 182.9C312.426 182.126 313.277 181.508 314.191 181.077C314.637 180.871 315.137 181.087 315.371 181.606L316.012 183.008C316.832 182.821 317.668 182.821 318.489 183.008L319.129 181.606C319.364 181.087 319.864 180.871 320.309 181.077C321.231 181.508 322.075 182.126 322.817 182.9C323.177 183.272 323.27 183.929 323.036 184.438L322.395 185.839C322.934 186.623 323.356 187.534 323.637 188.524H324.927C325.395 188.524 325.802 188.945 325.88 189.533C326.036 190.709 326.044 191.944 325.88 193.169C325.802 193.757 325.395 194.188 324.927 194.188H323.637C323.356 195.177 322.934 196.089 322.395 196.873L323.036 198.274C323.27 198.783 323.184 199.44 322.817 199.812C322.075 200.586 321.223 201.204 320.309 201.635C319.864 201.84 319.364 201.625 319.129 201.106L318.489 199.704C317.676 199.891 316.832 199.891 316.012 199.704V199.704ZM315.191 193.943C318.2 196.843 321.63 192.542 319.317 188.769C316.309 185.859 312.879 190.17 315.191 193.943V193.943ZM306.183 209.023L308.816 210.669C309.605 211.237 309.949 212.443 309.636 213.52C308.941 215.892 307.574 218.067 306.308 219.968C305.73 220.84 304.73 221.056 303.941 220.487L301.667 218.841C300.417 220.184 298.964 221.252 297.378 221.947V225.24C297.378 226.376 296.729 227.356 295.838 227.552C293.916 227.964 291.9 227.983 289.908 227.552C289.01 227.356 288.346 226.386 288.346 225.24V221.947C286.759 221.242 285.306 220.184 284.056 218.841L281.782 220.477C281.001 221.046 279.993 220.83 279.415 219.958C278.149 218.057 276.813 215.882 276.118 213.52C275.805 212.452 276.149 211.247 276.938 210.669L279.54 209.023C279.235 206.975 279.235 204.868 279.54 202.811L276.938 201.155C276.149 200.586 275.798 199.381 276.118 198.313C276.813 195.942 278.149 193.766 279.415 191.865C279.993 190.993 280.993 190.778 281.782 191.346L284.056 192.992C285.306 191.65 286.759 190.582 288.346 189.886V186.584C288.346 185.457 288.986 184.477 289.877 184.281C291.799 183.87 293.823 183.85 295.815 184.272C296.713 184.468 297.378 185.438 297.378 186.584V189.876C298.964 190.582 300.417 191.64 301.667 192.983L303.941 191.336C304.722 190.768 305.73 190.984 306.308 191.856C307.574 193.757 308.902 195.932 309.597 198.303C309.91 199.371 309.605 200.576 308.816 201.155L306.183 202.801C306.488 204.858 306.488 206.965 306.183 209.023V209.023ZM296.995 211.09C301.62 203.545 294.752 194.932 288.736 200.733C284.111 208.278 290.979 216.891 296.995 211.09ZM316.012 228.992L315.371 230.394C315.137 230.913 314.637 231.129 314.191 230.923C313.269 230.492 312.426 229.874 311.683 229.1C311.324 228.728 311.23 228.071 311.465 227.562L312.105 226.161C311.566 225.377 311.144 224.466 310.863 223.476H309.574C309.105 223.476 308.699 223.055 308.621 222.467C308.464 221.291 308.457 220.056 308.621 218.831C308.699 218.243 309.105 217.812 309.574 217.812H310.863C311.144 216.823 311.566 215.911 312.105 215.127L311.465 213.726C311.23 213.217 311.316 212.56 311.683 212.188C312.426 211.414 313.277 210.796 314.191 210.365C314.637 210.16 315.137 210.375 315.371 210.894L316.012 212.296C316.832 212.109 317.668 212.109 318.489 212.296L319.129 210.894C319.364 210.375 319.864 210.16 320.309 210.365C321.231 210.796 322.075 211.414 322.817 212.188C323.177 212.56 323.27 213.217 323.036 213.726L322.395 215.127C322.934 215.911 323.356 216.823 323.637 217.812H324.927C325.395 217.812 325.802 218.234 325.88 218.822C326.036 219.997 326.044 221.232 325.88 222.457C325.802 223.045 325.395 223.476 324.927 223.476H323.637C323.356 224.466 322.934 225.377 322.395 226.161L323.036 227.562C323.27 228.071 323.184 228.728 322.817 229.1C322.075 229.874 321.223 230.492 320.309 230.923C319.864 231.129 319.364 230.913 319.129 230.394L318.489 228.992C317.676 229.179 316.832 229.179 316.012 228.992ZM315.191 223.221C318.2 226.121 321.63 221.82 319.317 218.047C316.309 215.147 312.879 219.449 315.191 223.221V223.221Z" fill="#29ABE2"/>
</g>
<path d="M524.452 382.281H532.538V384.121H522.19V367.059H524.452V382.281ZM547.456 376.141C547.456 377.812 547.175 379.273 546.612 380.523C546.05 381.766 545.253 382.715 544.222 383.371C543.19 384.027 541.987 384.355 540.612 384.355C539.268 384.355 538.077 384.027 537.038 383.371C535.999 382.707 535.19 381.766 534.612 380.547C534.042 379.32 533.749 377.902 533.733 376.293V375.062C533.733 373.422 534.018 371.973 534.589 370.715C535.159 369.457 535.964 368.496 537.003 367.832C538.05 367.16 539.245 366.824 540.589 366.824C541.956 366.824 543.159 367.156 544.198 367.82C545.245 368.477 546.05 369.434 546.612 370.691C547.175 371.941 547.456 373.398 547.456 375.062V376.141ZM545.218 375.039C545.218 373.016 544.811 371.465 543.999 370.387C543.186 369.301 542.05 368.758 540.589 368.758C539.167 368.758 538.046 369.301 537.225 370.387C536.413 371.465 535.995 372.965 535.972 374.887V376.141C535.972 378.102 536.382 379.645 537.202 380.77C538.03 381.887 539.167 382.445 540.612 382.445C542.065 382.445 543.19 381.918 543.987 380.863C544.784 379.801 545.194 378.281 545.218 376.305V375.039ZM559.995 379.668H552.847L551.241 384.121H548.921L555.436 367.059H557.405L563.933 384.121H561.624L559.995 379.668ZM553.526 377.816H559.327L556.421 369.836L553.526 377.816ZM566.229 384.121V367.059H571.046C572.53 367.059 573.843 367.387 574.983 368.043C576.124 368.699 577.003 369.633 577.62 370.844C578.245 372.055 578.561 373.445 578.569 375.016V376.105C578.569 377.715 578.257 379.125 577.632 380.336C577.015 381.547 576.128 382.477 574.972 383.125C573.823 383.773 572.483 384.105 570.952 384.121H566.229ZM568.479 368.91V382.281H570.847C572.581 382.281 573.929 381.742 574.89 380.664C575.858 379.586 576.343 378.051 576.343 376.059V375.062C576.343 373.125 575.886 371.621 574.972 370.551C574.065 369.473 572.776 368.926 571.104 368.91H568.479Z" fill="white"/>
<g clip-path="url(#clip1)">
<path d="M583.835 176.883V184.174C583.835 190.599 566.851 195.839 545.918 195.839C524.984 195.839 508 190.599 508 184.174V176.883C508 170.458 524.984 165.218 545.918 165.218C566.851 165.218 583.835 170.458 583.835 176.883ZM583.835 193.287V209.692C583.835 216.117 566.851 221.357 545.918 221.357C524.984 221.357 508 216.117 508 209.692V193.287C516.146 198.573 531.057 201.034 545.918 201.034C560.779 201.034 575.689 198.573 583.835 193.287ZM583.835 218.805V235.209C583.835 241.635 566.851 246.875 545.918 246.875C524.984 246.875 508 241.635 508 235.209V218.805C516.146 224.091 531.057 226.552 545.918 226.552C560.779 226.552 575.689 224.091 583.835 218.805Z" fill="#D3D3FF"/>
</g>
<path d="M243.949 368.91H238.464V384.121H236.226V368.91H230.753V367.059H243.949V368.91ZM252.738 377.219H248.73V384.121H246.468V367.059H252.116C254.038 367.059 255.515 367.496 256.546 368.371C257.585 369.246 258.105 370.52 258.105 372.191C258.105 373.254 257.816 374.18 257.238 374.969C256.667 375.758 255.87 376.348 254.847 376.738L258.855 383.98V384.121H256.441L252.738 377.219ZM248.73 375.379H252.187C253.304 375.379 254.191 375.09 254.847 374.512C255.511 373.934 255.843 373.16 255.843 372.191C255.843 371.137 255.527 370.328 254.894 369.766C254.269 369.203 253.363 368.918 252.175 368.91H248.73V375.379ZM270.691 379.668H263.542L261.937 384.121H259.616L266.132 367.059H268.101L274.628 384.121H272.32L270.691 379.668ZM264.222 377.816H270.023L267.116 369.836L264.222 377.816ZM290.038 384.121H287.777L279.187 370.973V384.121H276.925V367.059H279.187L287.8 380.266V367.059H290.038V384.121ZM299.062 376.516C297.132 375.961 295.726 375.281 294.843 374.477C293.968 373.664 293.531 372.664 293.531 371.477C293.531 370.133 294.066 369.023 295.136 368.148C296.214 367.266 297.613 366.824 299.331 366.824C300.503 366.824 301.546 367.051 302.46 367.504C303.382 367.957 304.093 368.582 304.593 369.379C305.101 370.176 305.355 371.047 305.355 371.992H303.093C303.093 370.961 302.765 370.152 302.109 369.566C301.452 368.973 300.527 368.676 299.331 368.676C298.222 368.676 297.355 368.922 296.73 369.414C296.113 369.898 295.804 370.574 295.804 371.441C295.804 372.137 296.097 372.727 296.683 373.211C297.277 373.688 298.281 374.125 299.695 374.523C301.116 374.922 302.226 375.363 303.023 375.848C303.827 376.324 304.421 376.883 304.804 377.523C305.195 378.164 305.39 378.918 305.39 379.785C305.39 381.168 304.851 382.277 303.773 383.113C302.695 383.941 301.253 384.355 299.449 384.355C298.277 384.355 297.183 384.133 296.167 383.688C295.152 383.234 294.366 382.617 293.812 381.836C293.265 381.055 292.991 380.168 292.991 379.176H295.253C295.253 380.207 295.632 381.023 296.39 381.625C297.156 382.219 298.175 382.516 299.449 382.516C300.636 382.516 301.546 382.273 302.179 381.789C302.812 381.305 303.128 380.645 303.128 379.809C303.128 378.973 302.835 378.328 302.249 377.875C301.663 377.414 300.601 376.961 299.062 376.516ZM317.695 376.586H310.534V384.121H308.284V367.059H318.855V368.91H310.534V374.746H317.695V376.586ZM334.675 376.141C334.675 377.812 334.394 379.273 333.831 380.523C333.269 381.766 332.472 382.715 331.441 383.371C330.409 384.027 329.206 384.355 327.831 384.355C326.488 384.355 325.296 384.027 324.257 383.371C323.218 382.707 322.409 381.766 321.831 380.547C321.261 379.32 320.968 377.902 320.952 376.293V375.062C320.952 373.422 321.238 371.973 321.808 370.715C322.378 369.457 323.183 368.496 324.222 367.832C325.269 367.16 326.464 366.824 327.808 366.824C329.175 366.824 330.378 367.156 331.417 367.82C332.464 368.477 333.269 369.434 333.831 370.691C334.394 371.941 334.675 373.398 334.675 375.062V376.141ZM332.437 375.039C332.437 373.016 332.031 371.465 331.218 370.387C330.406 369.301 329.269 368.758 327.808 368.758C326.386 368.758 325.265 369.301 324.445 370.387C323.632 371.465 323.214 372.965 323.191 374.887V376.141C323.191 378.102 323.601 379.645 324.421 380.77C325.249 381.887 326.386 382.445 327.831 382.445C329.284 382.445 330.409 381.918 331.206 380.863C332.003 379.801 332.413 378.281 332.437 376.305V375.039ZM344.308 377.219H340.3V384.121H338.038V367.059H343.687C345.609 367.059 347.085 367.496 348.116 368.371C349.156 369.246 349.675 370.52 349.675 372.191C349.675 373.254 349.386 374.18 348.808 374.969C348.238 375.758 347.441 376.348 346.417 376.738L350.425 383.98V384.121H348.011L344.308 377.219ZM340.3 375.379H343.757C344.874 375.379 345.761 375.09 346.417 374.512C347.081 373.934 347.413 373.16 347.413 372.191C347.413 371.137 347.097 370.328 346.464 369.766C345.839 369.203 344.933 368.918 343.745 368.91H340.3V375.379ZM355.745 367.059L361.324 380.98L366.902 367.059H369.82V384.121H367.57V377.477L367.781 370.305L362.179 384.121H360.456L354.866 370.34L355.089 377.477V384.121H352.839V367.059H355.745Z" fill="white"/>
<rect x="53.2939" y="33.6396" width="60" height="60" rx="5" fill="white"/>
<rect x="53.2939" y="115.64" width="60" height="60" rx="5" fill="white"/>
<rect x="53.2939" y="197.64" width="60" height="60" rx="5" fill="white"/>
<rect x="53.2939" y="279.64" width="60" height="60" rx="5" fill="white"/>
<path d="M84.7163 222.626C82.2645 225.136 80.731 228.694 80.731 232.644C80.731 235.747 81.6785 238.606 83.2706 240.904L78.4356 246.178C78.0058 246.008 77.5467 245.913 77.0681 245.913C76.0131 245.913 75.0266 246.358 74.2842 247.163C73.5419 247.968 73.1316 249.048 73.1316 250.191C73.1316 251.335 73.5419 252.405 74.2842 253.21C75.0266 254.014 76.0229 254.438 77.0681 254.438C78.123 254.438 79.1095 254.025 79.8617 253.21C80.604 252.405 81.0143 251.325 81.0143 250.191C81.0143 249.747 80.9557 249.323 80.8287 248.91L85.7126 243.594C87.8615 245.384 90.5379 246.443 93.4585 246.443C100.482 246.443 106.157 240.269 106.157 232.655C106.157 225.75 101.497 220.031 95.3925 219.025V212.502C97.1019 211.718 98.147 209.982 98.147 207.959C98.147 205.195 96.1056 202.886 93.5562 202.886C91.0067 202.886 88.9946 205.195 88.9946 207.959C88.9946 209.982 90.0397 211.718 91.7491 212.502V218.983C90.2644 219.205 88.8578 219.693 87.5782 220.423C84.8823 218.21 76.101 211.348 71.0804 207.207C71.1976 206.741 71.2757 206.254 71.2757 205.746C71.2757 202.696 68.9803 200.218 66.1574 200.218C63.3443 200.218 61.0586 202.696 61.0586 205.746C61.0586 208.806 63.3443 211.284 66.1574 211.284C67.1146 211.284 68.0035 210.977 68.7752 210.479L84.7163 222.626ZM93.4585 239.951C89.7369 239.951 86.7187 236.679 86.7187 232.644C86.7187 228.609 89.7369 225.337 93.4585 225.337C97.18 225.337 100.198 228.609 100.198 232.644C100.198 236.679 97.18 239.951 93.4585 239.951Z" fill="#F78A57"/>
<path d="M77.9605 144.375H75.9843C76.036 143.995 76.2333 143.335 77.0073 143.335C77.5135 143.335 77.905 143.616 77.9605 144.375ZM88.2101 143.353C88.1748 143.353 87.1518 143.222 87.1518 144.826C87.1518 146.429 88.1741 146.299 88.2101 146.299C89.1851 146.299 89.2684 145.302 89.2684 144.826C89.2684 143.223 88.2438 143.353 88.2101 143.353ZM69.9685 145.103C69.8863 145.166 69.8209 145.248 69.778 145.342C69.735 145.435 69.7157 145.537 69.7217 145.64C69.7217 145.992 69.8778 146.085 69.9685 146.159C70.321 146.432 71.0988 146.315 71.5383 146.229V144.981C71.1393 144.902 70.2835 144.837 69.9685 145.103ZM107.294 143.37C107.294 149.821 101.294 154.742 94.8919 153.419C93.5141 155.85 89.5871 158.63 84.9768 156.485C81.8898 163.56 71.635 163.275 68.941 156.105C59.9619 157.864 55.5294 145.913 63.2957 141.427C60.6895 135.576 64.9937 128.64 71.869 128.64C73.2988 128.641 74.7092 128.964 75.991 129.587C77.2728 130.209 78.3917 131.112 79.2611 132.227C80.8136 130.65 82.9661 129.663 85.3473 129.663C88.5228 129.663 91.2724 131.395 92.7574 133.977C99.7189 130.98 107.294 136.056 107.294 143.37ZM68.3275 145.713C68.3275 144.847 67.4507 144.595 66.9872 144.448C66.592 144.293 65.9815 144.19 65.9815 143.79C65.9815 143.093 67.2565 143.299 67.8692 143.633C67.8692 143.633 67.957 143.686 67.9922 143.599C68.0102 143.547 68.1692 143.114 68.1865 143.062C68.1932 143.041 68.1915 143.019 68.1817 142.999C68.1719 142.98 68.1548 142.965 68.134 142.958C67.2092 142.396 65.0815 142.331 65.0815 143.893C65.0815 144.811 65.9432 145.031 66.4225 145.158C66.7765 145.274 67.4102 145.379 67.4102 145.799C67.4102 146.093 67.1455 146.319 66.7225 146.319C66.2085 146.318 65.7087 146.154 65.2975 145.851C65.2622 145.834 65.191 145.799 65.1737 145.903L64.9937 146.454C64.9585 146.523 65.011 146.541 65.011 146.558C65.1422 146.661 65.7835 147.043 66.7225 147.043C67.7102 147.043 68.3275 146.523 68.3275 145.709V145.713ZM70.7275 142.576C69.9677 142.576 69.328 142.81 69.1225 142.958C69.1143 142.964 69.1073 142.971 69.1019 142.979C69.0965 142.987 69.0929 142.997 69.0912 143.006C69.0896 143.016 69.0899 143.026 69.0921 143.035C69.0944 143.045 69.0986 143.054 69.1045 143.062L69.2987 143.582C69.304 143.6 69.3161 143.615 69.3326 143.625C69.349 143.634 69.3686 143.638 69.3872 143.633C69.436 143.633 69.8972 143.339 70.657 143.339C70.957 143.339 71.1865 143.391 71.3455 143.513C71.6155 143.719 71.575 144.123 71.575 144.292C71.2158 144.27 70.1418 144.039 69.3692 144.569C69.1931 144.687 69.0504 144.848 68.9541 145.035C68.8579 145.222 68.8113 145.43 68.8187 145.64C68.8187 146.074 68.932 146.406 69.313 146.697C70.231 147.298 72.034 146.844 72.1705 146.801C72.289 146.777 72.4353 146.752 72.4353 146.662V144.167C72.4383 143.827 72.4593 142.573 70.7268 142.573L70.7275 142.576ZM74.2188 141.031C74.2195 141.02 74.2178 141.008 74.2136 140.997C74.2094 140.986 74.2029 140.976 74.1946 140.968C74.1862 140.96 74.1761 140.953 74.165 140.949C74.1539 140.945 74.1421 140.944 74.1303 140.944H73.3938C73.382 140.944 73.3702 140.945 73.3592 140.95C73.3482 140.954 73.3383 140.96 73.33 140.968C73.3217 140.977 73.3153 140.986 73.3111 140.997C73.307 141.008 73.3053 141.02 73.306 141.031V146.85C73.3053 146.861 73.307 146.873 73.3111 146.884C73.3153 146.895 73.3217 146.905 73.33 146.913C73.3383 146.921 73.3482 146.927 73.3592 146.932C73.3702 146.936 73.382 146.937 73.3938 146.937H74.1348C74.1466 146.938 74.1584 146.936 74.1695 146.932C74.1806 146.928 74.1907 146.921 74.1991 146.913C74.2074 146.905 74.2139 146.895 74.2181 146.884C74.2223 146.873 74.224 146.862 74.2233 146.85L74.2188 141.031ZM78.4 143.162C78.2425 142.992 77.8908 142.607 77.0763 142.607C76.813 142.607 76.0143 142.624 75.5238 143.266C75.0475 143.828 75.0303 144.6 75.0303 144.843C75.0303 145.073 75.0415 145.893 75.5598 146.402C75.7578 146.616 76.2393 147.008 77.2705 147.008C78.082 147.008 78.5058 146.835 78.664 146.731C78.6993 146.714 78.7173 146.679 78.682 146.593L78.5058 146.09C78.4967 146.071 78.4813 146.055 78.4621 146.046C78.4429 146.036 78.421 146.034 78.4 146.038C78.2058 146.107 77.9238 146.246 77.2533 146.246C75.9468 146.246 75.9895 145.16 75.9828 145.016H78.7705C78.7909 145.016 78.8106 145.008 78.8264 144.996C78.8423 144.983 78.8535 144.966 78.8583 144.947C78.8365 144.947 79.0135 143.864 78.4015 143.162H78.4ZM81.1518 147.043C82.1396 147.043 82.7576 146.523 82.7576 145.709C82.7576 144.843 81.8801 144.592 81.4166 144.444C81.1061 144.322 80.4108 144.195 80.4108 143.786C80.4108 143.509 80.6576 143.318 81.0461 143.318C81.4823 143.327 81.9108 143.433 82.2986 143.63C82.2986 143.63 82.3871 143.682 82.4223 143.595C82.4396 143.544 82.5986 143.11 82.6158 143.058C82.6225 143.038 82.6208 143.015 82.611 142.996C82.6012 142.976 82.5841 142.962 82.5633 142.954C81.9701 142.593 81.3078 142.59 81.0461 142.59C80.1461 142.59 79.5116 143.127 79.5116 143.89C79.5116 144.807 80.3726 145.027 80.8518 145.154C81.3101 145.302 81.8396 145.395 81.8396 145.795C81.8396 146.09 81.5756 146.315 81.1518 146.315C80.6379 146.314 80.1381 146.15 79.7268 145.847C79.7162 145.839 79.7031 145.833 79.6893 145.831C79.6754 145.828 79.6612 145.83 79.6483 145.836C79.6354 145.841 79.6243 145.85 79.6163 145.861C79.6083 145.873 79.6037 145.886 79.6031 145.9L79.4268 146.454C79.3916 146.523 79.4441 146.541 79.4441 146.558C79.5731 146.661 80.2188 147.043 81.1533 147.043H81.1518ZM86.0756 142.781C86.0756 142.729 86.0576 142.694 85.9871 142.694H85.1051C85.1051 142.684 85.1756 142.036 85.4403 141.776C85.7523 141.47 86.3223 141.655 86.3403 141.655C86.4281 141.69 86.4461 141.655 86.4633 141.62L86.6756 141.048C86.7281 140.979 86.6756 140.962 86.6576 140.944C86.2758 140.797 85.3563 140.733 84.8231 141.257C84.4121 141.66 84.2981 142.282 84.2231 142.694H83.5878C83.5651 142.696 83.5437 142.706 83.5276 142.722C83.5116 142.738 83.5018 142.759 83.5001 142.781L83.3936 143.353C83.3936 143.404 83.4116 143.439 83.4821 143.439H84.0993C83.4611 146.967 83.4431 147.137 83.3231 147.528C83.2421 147.795 83.0763 148.036 82.8821 148.1C82.8753 148.1 82.5911 148.224 82.1591 148.082C82.1591 148.082 82.0886 148.048 82.0533 148.134C82.0353 148.187 81.8591 148.637 81.8411 148.689C81.8231 148.741 81.8411 148.793 81.8763 148.793C82.2596 148.94 82.8513 148.923 83.2173 148.793C83.6883 148.625 83.9463 148.212 84.0821 147.84C84.2883 147.272 84.2928 147.119 84.9641 143.44H85.8813C85.9042 143.438 85.9256 143.428 85.9418 143.412C85.958 143.396 85.968 143.375 85.9698 143.353L86.0756 142.781ZM90.0799 143.96C90.0379 143.836 89.6974 142.626 88.1921 142.626C87.0483 142.626 86.4671 143.362 86.3051 143.96C86.2301 144.181 86.0666 144.991 86.3051 145.692C86.3118 145.714 86.6358 147.027 88.1921 147.027C89.3134 147.027 89.9096 146.319 90.0799 145.692C90.3206 144.984 90.1556 144.181 90.0799 143.96ZM93.4849 142.73C93.1099 142.608 92.2384 142.59 91.8266 143.128V142.799C91.8273 142.787 91.8254 142.776 91.8212 142.765C91.817 142.754 91.8105 142.744 91.8021 142.736C91.7937 142.728 91.7837 142.722 91.7727 142.718C91.7617 142.714 91.7499 142.712 91.7381 142.713H91.0331C91.0214 142.712 91.0096 142.714 90.9985 142.718C90.9875 142.722 90.9775 142.728 90.9691 142.736C90.9608 142.744 90.9542 142.754 90.95 142.765C90.9458 142.776 90.944 142.787 90.9446 142.799V146.871C90.944 146.882 90.9458 146.894 90.95 146.905C90.9542 146.915 90.9607 146.925 90.9691 146.933C90.9774 146.942 90.9875 146.948 90.9985 146.952C91.0095 146.956 91.0213 146.958 91.0331 146.957H91.7561C91.7679 146.958 91.7797 146.956 91.7907 146.952C91.8018 146.948 91.8118 146.942 91.8201 146.933C91.8285 146.925 91.835 146.915 91.8392 146.905C91.8434 146.894 91.8453 146.882 91.8446 146.871V144.825C91.8446 144.611 91.8484 143.988 92.1791 143.717C92.5466 143.356 93.0791 143.469 93.1849 143.491C93.2074 143.491 93.2293 143.484 93.2481 143.472C93.2668 143.46 93.2816 143.442 93.2906 143.422C93.3786 143.23 93.4553 143.033 93.5201 142.833C93.5276 142.814 93.5281 142.794 93.5217 142.775C93.5152 142.756 93.5022 142.739 93.4849 142.729V142.73ZM96.9956 146.714L96.8366 146.177C96.8014 146.091 96.7309 146.125 96.7309 146.125C96.4136 146.259 95.9696 146.264 95.8841 146.264C95.5361 146.264 94.5964 146.181 94.5964 144.809C94.5964 144.35 94.7351 143.354 95.8316 143.354C96.1245 143.346 96.4166 143.387 96.6956 143.475C96.6956 143.475 96.7661 143.51 96.7841 143.423C96.8546 143.232 96.9071 143.094 96.9784 142.868C96.9956 142.799 96.9431 142.782 96.9251 142.782C96.0559 142.497 95.2496 142.596 94.8431 142.782C94.7239 142.836 93.6259 143.26 93.6259 144.809C93.6259 145.023 93.5824 147.027 95.7964 147.027C96.1939 147.026 96.5881 146.955 96.9604 146.818C96.9765 146.806 96.9886 146.79 96.9949 146.771C97.0012 146.753 97.0014 146.733 96.9956 146.714V146.714ZM101.036 143.804C100.976 143.583 100.633 142.608 99.3597 142.608C98.1596 142.608 97.5956 143.353 97.4366 143.977C97.3501 144.258 97.3084 144.55 97.3129 144.844C97.3129 146.749 98.7259 147.009 99.5539 147.009C100.365 147.009 100.788 146.836 100.947 146.732C100.983 146.714 101.001 146.68 100.965 146.594L100.788 146.091C100.779 146.071 100.764 146.056 100.745 146.047C100.726 146.037 100.704 146.035 100.683 146.039C100.488 146.108 100.206 146.247 99.5359 146.247C98.2294 146.247 98.2721 145.161 98.2661 145.017H101.053C101.074 145.016 101.093 145.009 101.109 144.997C101.125 144.984 101.137 144.967 101.142 144.947C101.124 144.947 101.212 144.427 101.036 143.803V143.804ZM99.2892 143.336C98.5144 143.336 98.3141 143.999 98.2661 144.376H100.244C100.178 143.498 99.6724 143.335 99.2892 143.335V143.336Z" fill="#3498D3"/>
<path d="M100.649 287.218H65.8446C62.6439 287.218 60.0439 289.707 60.0439 292.77V326.086C60.0439 329.15 62.6439 331.639 65.8446 331.639H100.649C103.849 331.639 106.449 329.15 106.449 326.086V292.77C106.449 289.707 103.849 287.218 100.649 287.218ZM89.4305 295.358C89.4305 293.395 92.5276 293.395 92.5276 295.358V315.14C92.5276 317.103 89.4305 317.103 89.4305 315.14V295.358ZM81.7032 294.615C81.7032 292.651 84.8003 292.651 84.8003 294.615V316.082C84.8003 318.045 81.7032 318.045 81.7032 316.082V294.615ZM73.9655 295.358C73.9655 293.395 77.0627 293.395 77.0627 295.358V315.14C77.0627 317.103 73.9655 317.103 73.9655 315.14V295.358ZM66.2279 298.323C66.2279 296.36 69.325 296.36 69.325 298.323V311.64C69.325 313.603 66.2279 313.603 66.2279 311.64V298.323V298.323ZM99.7267 320.911C92.1858 327.157 74.6906 327.395 66.7769 320.911C65.2231 319.641 67.2326 317.391 68.7864 318.66C75.6125 324.143 91.1707 324.004 97.7172 318.66C99.2605 317.381 101.27 319.632 99.7267 320.911V320.911ZM100.265 311.64C100.265 313.603 97.1682 313.603 97.1682 311.64V298.323C97.1682 296.36 100.265 296.36 100.265 298.323V311.64Z" fill="black"/>
<path d="M49.4619 376.113H42.0674V382.16H50.6572V384H39.8174V366.938H50.54V368.789H42.0674V374.273H49.4619V376.113ZM59.0244 373.477L63.1143 366.938H65.7627L60.3721 375.398L65.8916 384H63.2197L59.0244 377.344L54.8057 384H52.1455L57.6768 375.398L52.2744 366.938H54.9111L59.0244 373.477ZM80.2939 368.789H74.8096V384H72.5713V368.789H67.0986V366.938H80.2939V368.789ZM89.083 377.098H85.0752V384H82.8135V366.938H88.4619C90.3838 366.938 91.8604 367.375 92.8916 368.25C93.9307 369.125 94.4502 370.398 94.4502 372.07C94.4502 373.133 94.1611 374.059 93.583 374.848C93.0127 375.637 92.2158 376.227 91.1924 376.617L95.2002 383.859V384H92.7861L89.083 377.098ZM85.0752 375.258H88.5322C89.6494 375.258 90.5361 374.969 91.1924 374.391C91.8564 373.812 92.1885 373.039 92.1885 372.07C92.1885 371.016 91.8721 370.207 91.2393 369.645C90.6143 369.082 89.708 368.797 88.5205 368.789H85.0752V375.258ZM107.036 379.547H99.8877L98.2822 384H95.9619L102.478 366.938H104.446L110.974 384H108.665L107.036 379.547ZM100.567 377.695H106.368L103.462 369.715L100.567 377.695ZM125.681 378.586C125.47 380.391 124.802 381.785 123.677 382.77C122.56 383.746 121.071 384.234 119.212 384.234C117.196 384.234 115.579 383.512 114.36 382.066C113.149 380.621 112.544 378.688 112.544 376.266V374.625C112.544 373.039 112.825 371.645 113.388 370.441C113.958 369.238 114.763 368.316 115.802 367.676C116.841 367.027 118.044 366.703 119.411 366.703C121.224 366.703 122.677 367.211 123.771 368.227C124.864 369.234 125.501 370.633 125.681 372.422H123.419C123.224 371.062 122.798 370.078 122.142 369.469C121.493 368.859 120.583 368.555 119.411 368.555C117.974 368.555 116.845 369.086 116.024 370.148C115.212 371.211 114.806 372.723 114.806 374.684V376.336C114.806 378.188 115.192 379.66 115.966 380.754C116.739 381.848 117.821 382.395 119.212 382.395C120.462 382.395 121.419 382.113 122.083 381.551C122.755 380.98 123.2 379.992 123.419 378.586H125.681ZM140.2 368.789H134.716V384H132.478V368.789H127.005V366.938H140.2V368.789Z" fill="white"/>
<path d="M95.6512 62.3554C96.0091 62.3117 96.3714 62.3117 96.7292 62.3554C96.9216 61.9374 96.9552 61.2171 96.7814 60.4335C96.5229 59.269 96.1728 58.5629 95.4507 58.6731C94.7286 58.7834 94.7008 59.627 94.9593 60.7925C95.1053 61.4474 95.3638 62.0083 95.6547 62.3554H95.6512ZM89.4431 63.2808C89.9612 63.4991 90.2777 63.6366 90.4029 63.5133C90.6219 63.3016 89.9995 62.4885 88.998 62.0847C88.4198 61.8591 87.7896 61.7776 87.1682 61.8479C86.5467 61.9183 85.955 62.1381 85.45 62.4863C85.1023 62.7242 84.7766 63.056 84.823 63.2568C84.9215 63.665 85.9821 62.9611 87.4425 62.877C88.2539 62.829 88.9262 63.068 89.4431 63.2819V63.2808ZM88.3999 63.8407C87.3486 63.9957 86.6613 64.5533 86.8386 64.943C86.943 64.9801 86.9742 65.0314 87.4425 64.8546C88.1342 64.6087 88.8817 64.5354 89.6124 64.6417C89.9508 64.6789 90.1119 64.6985 90.1849 64.5883C90.3542 64.346 89.5231 63.7152 88.4011 63.8407H88.3999ZM94.6788 65.7069C95.0705 64.9571 93.4153 64.1867 93.0213 64.943C92.6272 65.6993 94.287 66.4578 94.6811 65.7036L94.6788 65.7069ZM96.4939 63.4729C95.606 63.4587 95.5724 65.1972 96.4638 65.2114C97.3551 65.2256 97.3887 63.486 96.4962 63.4696L96.4939 63.4729ZM71.134 72.0837C70.981 72.1175 70.4386 72.2419 70.1523 71.8272C69.5495 70.9541 71.44 69.603 70.5 67.9234C69.4452 66.0168 67.2754 66.4457 66.4374 67.3188C65.4278 68.3665 65.4266 69.8879 65.8578 69.9468C66.3528 70.009 66.3307 69.2407 66.7132 68.6776C66.8201 68.5223 66.9586 68.3885 67.1207 68.2839C67.2829 68.1793 67.4654 68.106 67.6578 68.0683C67.8502 68.0305 68.0486 68.0291 68.2416 68.064C68.4346 68.0989 68.6184 68.1694 68.7822 68.2716C70.1256 69.0999 68.941 70.2098 69.0465 71.395C69.2076 73.2154 71.1816 73.1816 71.5478 72.3772C71.5715 72.3376 71.5819 72.2921 71.5778 72.2467C71.5736 72.2014 71.5551 72.1583 71.5246 72.123C71.5281 72.2201 71.6035 71.9811 71.1363 72.0804L71.134 72.0837ZM105.874 70.2207C105.486 68.9406 105.577 69.2145 105.089 67.9813C105.373 67.5808 106.861 65.362 104.733 63.2612C103.527 62.0694 100.803 61.4561 99.9689 61.2378C99.795 59.9948 100.508 54.8316 97.4745 52.1796C99.8843 49.8277 101.388 47.2369 101.384 45.0149C101.377 40.7412 95.8031 39.449 88.9331 42.1261L87.4785 42.7078C87.4715 42.7023 84.8461 40.2773 84.8067 40.2446C76.977 33.8144 52.4888 59.4404 60.3185 65.6654L62.0293 67.0307C61.5676 68.1972 61.4048 69.4498 61.5541 70.6867C61.9435 74.3318 65.7268 77.2807 69.3815 77.2763C76.0729 91.7978 100.434 91.8218 106.738 77.6037C106.94 77.1159 107.794 74.9179 107.794 72.9786C107.794 71.0392 106.624 70.2207 105.878 70.2207H105.874ZM69.247 75.4767C66.602 75.4101 63.7459 73.1685 63.462 70.5099C62.7468 63.8189 72.0694 62.2953 73.1984 69.1643C73.7246 72.3991 72.6571 75.5476 69.2435 75.4734L69.247 75.4767ZM67.1015 63.0134C65.3443 63.3354 63.7958 64.2729 62.8476 65.5727C62.282 65.1285 61.2249 64.263 61.0406 63.9356C59.5326 61.2236 62.6912 55.9688 64.9004 52.9992C70.3609 45.6621 78.9116 40.1093 82.8722 41.1166C83.5155 41.2879 85.6471 43.6147 85.6471 43.6147C85.6471 43.6147 81.6888 45.6817 78.0202 48.564C73.0755 52.1491 69.3397 57.3592 67.1015 63.0134ZM94.79 74.0525C94.79 74.0525 90.6474 74.6309 86.7332 73.2809C87.453 71.0807 89.8627 73.9466 97.9068 71.7737C99.6791 71.2957 102.007 70.355 103.818 69.0071C104.208 69.8551 104.485 70.7451 104.644 71.6569C105.068 71.5849 106.295 71.6002 105.97 73.6323C105.588 75.8008 104.61 77.5612 102.964 79.1807C101.936 80.2296 100.712 81.0918 99.3534 81.7247C98.5966 82.098 97.808 82.4112 96.9958 82.661C90.7935 84.5687 84.4428 82.4711 82.3912 77.9682C82.2248 77.6245 82.0872 77.2691 81.9797 76.9053C81.1069 73.9368 81.8476 70.3757 84.1634 68.1341C84.306 67.9911 84.4509 67.823 84.4509 67.6113C84.4307 67.429 84.3532 67.2565 84.2283 67.1158C83.417 66.0103 80.6131 64.1255 81.1764 60.4771C81.5821 57.8579 84.0151 56.0124 86.2846 56.1216L86.8641 56.1532C87.847 56.2078 88.7059 56.3267 89.5161 56.3584C90.8711 56.413 92.0893 56.2285 93.5313 55.0968C94.0181 54.7148 94.4087 54.383 95.0682 54.2772C95.3348 54.215 95.6121 54.2046 95.8831 54.2467C96.1541 54.2887 96.4132 54.3823 96.6446 54.5217C97.8037 55.2463 97.966 57.0023 98.0262 58.2857C98.0599 59.0191 98.1537 60.7958 98.1862 61.3011C98.2592 62.4656 98.5838 62.6293 99.2421 62.829C99.6119 62.9436 99.955 63.0287 100.46 63.163C101.992 63.5679 102.894 63.9793 103.474 64.5064C103.77 64.779 103.962 65.135 104.023 65.5203C104.204 66.7611 103.001 68.2923 99.8147 69.6849C94.4006 72.0509 88.9563 71.2619 88.1681 71.1778C85.8325 70.8821 84.5019 73.7229 85.9021 75.6688C88.5263 79.315 100.089 77.8515 103.447 73.3387C103.527 73.2296 103.461 73.1652 103.363 73.2296C98.5212 76.3487 92.1125 77.3996 88.473 76.0671C87.9201 75.8652 86.7656 75.3643 86.6254 74.2478C91.679 75.72 94.8549 74.3286 94.8549 74.3286C94.8549 74.3286 95.0902 74.0241 94.79 74.0525ZM77.1868 52.9676C79.1272 50.8558 81.5172 49.0191 83.6581 47.9877C83.6742 47.9787 83.6931 47.975 83.7118 47.9773C83.7304 47.9795 83.7477 47.9875 83.761 48C83.7743 48.0125 83.7828 48.0288 83.7851 48.0463C83.7875 48.0639 83.7835 48.0816 83.774 48.0969C83.6048 48.3872 83.2767 49.0071 83.1724 49.4774C83.1683 49.4936 83.1694 49.5106 83.1758 49.5261C83.1821 49.5416 83.1934 49.5549 83.208 49.5643C83.2226 49.5737 83.2399 49.5786 83.2575 49.5785C83.2752 49.5784 83.2924 49.5732 83.3069 49.5636C84.6387 48.7091 86.9557 47.7935 88.9864 47.6756C89.0056 47.6744 89.0246 47.679 89.0408 47.6887C89.0569 47.6985 89.0693 47.7129 89.076 47.7298C89.0828 47.7467 89.0836 47.7652 89.0783 47.7826C89.073 47.7999 89.062 47.8152 89.0467 47.8262C88.7109 48.0698 88.4105 48.3538 88.1531 48.6709C88.1437 48.683 88.1381 48.6973 88.1368 48.7121C88.1355 48.727 88.1385 48.7419 88.1455 48.7553C88.1526 48.7687 88.1634 48.78 88.1768 48.788C88.1901 48.796 88.2056 48.8004 88.2214 48.8008C89.6483 48.8106 91.6593 49.281 92.9737 49.9729C93.0618 50.0198 92.9992 50.1813 92.8995 50.1606C84.838 48.421 78.6334 52.1829 77.3097 53.0887C77.2921 53.0994 77.2709 53.1038 77.2501 53.1012C77.2293 53.0985 77.2102 53.089 77.1963 53.0742C77.1823 53.0595 77.1744 53.0405 77.1739 53.0208C77.1734 53.001 77.1805 52.9818 77.1938 52.9665L77.1868 52.9676Z" fill="black"/>
<path d="M501.86 206L481.86 194.453V217.547L501.86 206ZM344 208C344.118 208 344.236 208 344.353 208C344.471 208 344.589 208 344.706 208C344.824 208 344.941 208 345.058 208C345.175 208 345.292 208 345.409 208C345.526 208 345.643 208 345.759 208C345.876 208 345.993 208 346.109 208C346.225 208 346.342 208 346.458 208C346.574 208 346.69 208 346.806 208C346.921 208 347.037 208 347.153 208C347.268 208 347.384 208 347.499 208C347.615 208 347.73 208 347.845 208C347.96 208 348.075 208 348.19 208C348.305 208 348.419 208 348.534 208C348.649 208 348.763 208 348.877 208C348.992 208 349.106 208 349.22 208C349.334 208 349.448 208 349.562 208C349.676 208 349.789 208 349.903 208C350.017 208 350.13 208 350.243 208C350.357 208 350.47 208 350.583 208C350.696 208 350.809 208 350.922 208C351.035 208 351.147 208 351.26 208C351.373 208 351.485 208 351.597 208C351.71 208 351.822 208 351.934 208C352.046 208 352.158 208 352.27 208C352.382 208 352.494 208 352.605 208C352.717 208 352.828 208 352.94 208C353.051 208 353.162 208 353.274 208C353.385 208 353.496 208 353.607 208C353.718 208 353.828 208 353.939 208C354.05 208 354.16 208 354.271 208C354.381 208 354.491 208 354.602 208C354.712 208 354.822 208 354.932 208C355.042 208 355.152 208 355.261 208C355.371 208 355.481 208 355.59 208C355.7 208 355.809 208 355.918 208C356.028 208 356.137 208 356.246 208C356.355 208 356.464 208 356.572 208C356.681 208 356.79 208 356.898 208C357.007 208 357.115 208 357.224 208C357.332 208 357.44 208 357.548 208C357.657 208 357.765 208 357.872 208C357.98 208 358.088 208 358.196 208C358.303 208 358.411 208 358.518 208C358.626 208 358.733 208 358.84 208C358.948 208 359.055 208 359.162 208C359.269 208 359.376 208 359.482 208C359.589 208 359.696 208 359.802 208C359.909 208 360.015 208 360.122 208C360.228 208 360.334 208 360.44 208C360.546 208 360.652 208 360.758 208C360.864 208 360.97 208 361.075 208C361.181 208 361.287 208 361.392 208C361.498 208 361.603 208 361.708 208C361.813 208 361.918 208 362.024 208C362.129 208 362.233 208 362.338 208C362.443 208 362.548 208 362.652 208C362.757 208 362.861 208 362.966 208C363.07 208 363.174 208 363.279 208C363.383 208 363.487 208 363.591 208C363.695 208 363.799 208 363.902 208C364.006 208 364.11 208 364.213 208C364.317 208 364.42 208 364.524 208C364.627 208 364.73 208 364.833 208C364.936 208 365.039 208 365.142 208C365.245 208 365.348 208 365.451 208C365.554 208 365.656 208 365.759 208C365.861 208 365.964 208 366.066 208C366.168 208 366.271 208 366.373 208C366.475 208 366.577 208 366.679 208C366.781 208 366.882 208 366.984 208C367.086 208 367.187 208 367.289 208C367.39 208 367.492 208 367.593 208C367.694 208 367.796 208 367.897 208C367.998 208 368.099 208 368.2 208C368.301 208 368.402 208 368.502 208C368.603 208 368.704 208 368.804 208C368.905 208 369.005 208 369.106 208C369.206 208 369.306 208 369.406 208C369.506 208 369.606 208 369.706 208C369.806 208 369.906 208 370.006 208C370.106 208 370.205 208 370.305 208C370.405 208 370.504 208 370.603 208C370.703 208 370.802 208 370.901 208C371.001 208 371.1 208 371.199 208C371.298 208 371.397 208 371.495 208C371.594 208 371.693 208 371.792 208C371.89 208 371.989 208 372.087 208C372.186 208 372.284 208 372.382 208C372.481 208 372.579 208 372.677 208C372.775 208 372.873 208 372.971 208C373.069 208 373.167 208 373.264 208C373.362 208 373.46 208 373.557 208C373.655 208 373.752 208 373.85 208C373.947 208 374.044 208 374.142 208C374.239 208 374.336 208 374.433 208C374.53 208 374.627 208 374.724 208C374.821 208 374.917 208 375.014 208C375.111 208 375.207 208 375.304 208C375.4 208 375.497 208 375.593 208C375.689 208 375.786 208 375.882 208C375.978 208 376.074 208 376.17 208C376.266 208 376.362 208 376.458 208C376.554 208 376.649 208 376.745 208C376.841 208 376.936 208 377.032 208C377.127 208 377.223 208 377.318 208C377.413 208 377.508 208 377.604 208C377.699 208 377.794 208 377.889 208C377.984 208 378.079 208 378.173 208C378.268 208 378.363 208 378.458 208C378.552 208 378.647 208 378.741 208C378.836 208 378.93 208 379.025 208C379.119 208 379.213 208 379.307 208C379.401 208 379.496 208 379.59 208C379.684 208 379.778 208 379.871 208C379.965 208 380.059 208 380.153 208C380.246 208 380.34 208 380.434 208C380.527 208 380.621 208 380.714 208C380.807 208 380.901 208 380.994 208C381.087 208 381.18 208 381.273 208C381.366 208 381.459 208 381.552 208C381.645 208 381.738 208 381.831 208C381.924 208 382.016 208 382.109 208C382.201 208 382.294 208 382.386 208C382.479 208 382.571 208 382.664 208C382.756 208 382.848 208 382.94 208C383.033 208 383.125 208 383.217 208C383.309 208 383.401 208 383.493 208C383.584 208 383.676 208 383.768 208C383.86 208 383.951 208 384.043 208C384.135 208 384.226 208 384.317 208C384.409 208 384.5 208 384.592 208C384.683 208 384.774 208 384.865 208C384.956 208 385.048 208 385.139 208C385.23 208 385.321 208 385.411 208C385.502 208 385.593 208 385.684 208C385.775 208 385.865 208 385.956 208C386.046 208 386.137 208 386.227 208C386.318 208 386.408 208 386.499 208C386.589 208 386.679 208 386.769 208C386.86 208 386.95 208 387.04 208C387.13 208 387.22 208 387.31 208C387.4 208 387.49 208 387.579 208C387.669 208 387.759 208 387.848 208C387.938 208 388.028 208 388.117 208C388.207 208 388.296 208 388.386 208C388.475 208 388.564 208 388.654 208C388.743 208 388.832 208 388.921 208C389.01 208 389.1 208 389.189 208C389.278 208 389.367 208 389.455 208C389.544 208 389.633 208 389.722 208C389.811 208 389.899 208 389.988 208C390.077 208 390.165 208 390.254 208C390.342 208 390.431 208 390.519 208C390.608 208 390.696 208 390.784 208C390.872 208 390.961 208 391.049 208C391.137 208 391.225 208 391.313 208C391.401 208 391.489 208 391.577 208C391.665 208 391.753 208 391.841 208C391.928 208 392.016 208 392.104 208C392.192 208 392.279 208 392.367 208C392.454 208 392.542 208 392.629 208C392.717 208 392.804 208 392.892 208C392.979 208 393.066 208 393.153 208C393.241 208 393.328 208 393.415 208C393.502 208 393.589 208 393.676 208C393.763 208 393.85 208 393.937 208C394.024 208 394.111 208 394.197 208C394.284 208 394.371 208 394.458 208C394.544 208 394.631 208 394.718 208C394.804 208 394.891 208 394.977 208C395.064 208 395.15 208 395.236 208C395.323 208 395.409 208 395.495 208C395.582 208 395.668 208 395.754 208C395.84 208 395.926 208 396.012 208C396.098 208 396.184 208 396.27 208C396.356 208 396.442 208 396.528 208C396.614 208 396.7 208 396.785 208C396.871 208 396.957 208 397.042 208C397.128 208 397.214 208 397.299 208C397.385 208 397.47 208 397.556 208C397.641 208 397.727 208 397.812 208C397.897 208 397.983 208 398.068 208C398.153 208 398.238 208 398.324 208C398.409 208 398.494 208 398.579 208C398.664 208 398.749 208 398.834 208C398.919 208 399.004 208 399.089 208C399.174 208 399.259 208 399.343 208C399.428 208 399.513 208 399.598 208C399.682 208 399.767 208 399.852 208C399.936 208 400.021 208 400.106 208C400.19 208 400.275 208 400.359 208C400.443 208 400.528 208 400.612 208C400.697 208 400.781 208 400.865 208C400.95 208 401.034 208 401.118 208C401.202 208 401.286 208 401.37 208C401.455 208 401.539 208 401.623 208C401.707 208 401.791 208 401.875 208C401.959 208 402.043 208 402.126 208C402.21 208 402.294 208 402.378 208C402.462 208 402.545 208 402.629 208C402.713 208 402.797 208 402.88 208C402.964 208 403.047 208 403.131 208C403.215 208 403.298 208 403.382 208C403.465 208 403.549 208 403.632 208C403.715 208 403.799 208 403.882 208C403.965 208 404.049 208 404.132 208C404.215 208 404.299 208 404.382 208C404.465 208 404.548 208 404.631 208C404.714 208 404.797 208 404.881 208C404.964 208 405.047 208 405.13 208C405.213 208 405.296 208 405.378 208C405.461 208 405.544 208 405.627 208C405.71 208 405.793 208 405.876 208C405.958 208 406.041 208 406.124 208C406.207 208 406.289 208 406.372 208C406.455 208 406.537 208 406.62 208C406.702 208 406.785 208 406.868 208C406.95 208 407.033 208 407.115 208C407.198 208 407.28 208 407.362 208C407.445 208 407.527 208 407.61 208C407.692 208 407.774 208 407.856 208C407.939 208 408.021 208 408.103 208C408.186 208 408.268 208 408.35 208C408.432 208 408.514 208 408.596 208C408.679 208 408.761 208 408.843 208C408.925 208 409.007 208 409.089 208C409.171 208 409.253 208 409.335 208C409.417 208 409.499 208 409.581 208C409.663 208 409.744 208 409.826 208C409.908 208 409.99 208 410.072 208C410.154 208 410.235 208 410.317 208C410.399 208 410.481 208 410.562 208C410.644 208 410.726 208 410.807 208C410.889 208 410.971 208 411.052 208C411.134 208 411.216 208 411.297 208C411.379 208 411.46 208 411.542 208C411.623 208 411.705 208 411.786 208C411.868 208 411.949 208 412.031 208C412.112 208 412.194 208 412.275 208C412.356 208 412.438 208 412.519 208C412.601 208 412.682 208 412.763 208C412.845 208 412.926 208 413.007 208C413.088 208 413.17 208 413.251 208C413.332 208 413.413 208 413.495 208C413.576 208 413.657 208 413.738 208C413.819 208 413.9 208 413.982 208C414.063 208 414.144 208 414.225 208C414.306 208 414.387 208 414.468 208C414.549 208 414.63 208 414.711 208C414.792 208 414.873 208 414.954 208C415.035 208 415.116 208 415.197 208C415.278 208 415.359 208 415.44 208C415.521 208 415.602 208 415.683 208C415.764 208 415.845 208 415.926 208C416.007 208 416.088 208 416.169 208C416.249 208 416.33 208 416.411 208C416.492 208 416.573 208 416.654 208C416.734 208 416.815 208 416.896 208C416.977 208 417.058 208 417.138 208C417.219 208 417.3 208 417.381 208C417.461 208 417.542 208 417.623 208C417.704 208 417.784 208 417.865 208C417.946 208 418.026 208 418.107 208C418.188 208 418.268 208 418.349 208C418.43 208 418.51 208 418.591 208C418.672 208 418.752 208 418.833 208C418.914 208 418.994 208 419.075 208C419.155 208 419.236 208 419.317 208C419.397 208 419.478 208 419.558 208C419.639 208 419.72 208 419.8 208C419.881 208 419.961 208 420.042 208C420.122 208 420.203 208 420.284 208C420.364 208 420.445 208 420.525 208C420.606 208 420.686 208 420.767 208C420.847 208 420.928 208 421.008 208C421.089 208 421.17 208 421.25 208C421.331 208 421.411 208 421.492 208C421.572 208 421.653 208 421.733 208C421.814 208 421.894 208 421.975 208C422.055 208 422.136 208 422.216 208C422.297 208 422.377 208 422.458 208C422.538 208 422.619 208 422.699 208C422.78 208 422.86 208 422.941 208C423.021 208 423.102 208 423.182 208C423.263 208 423.343 208 423.424 208C423.504 208 423.585 208 423.665 208C423.746 208 423.826 208 423.907 208C423.987 208 424.068 208 424.148 208C424.229 208 424.309 208 424.39 208C424.47 208 424.551 208 424.631 208C424.712 208 424.792 208 424.873 208C424.954 208 425.034 208 425.115 208C425.195 208 425.276 208 425.356 208C425.437 208 425.517 208 425.598 208C425.678 208 425.759 208 425.84 208C425.92 208 426.001 208 426.081 208C426.162 208 426.242 208 426.323 208C426.404 208 426.484 208 426.565 208C426.645 208 426.726 208 426.807 208C426.887 208 426.968 208 427.049 208C427.129 208 427.21 208 427.29 208C427.371 208 427.452 208 427.532 208C427.613 208 427.694 208 427.774 208C427.855 208 427.936 208 428.017 208C428.097 208 428.178 208 428.259 208C428.339 208 428.42 208 428.501 208C428.582 208 428.662 208 428.743 208C428.824 208 428.905 208 428.986 208C429.066 208 429.147 208 429.228 208C429.309 208 429.39 208 429.47 208C429.551 208 429.632 208 429.713 208C429.794 208 429.875 208 429.956 208C430.037 208 430.117 208 430.198 208C430.279 208 430.36 208 430.441 208C430.522 208 430.603 208 430.684 208C430.765 208 430.846 208 430.927 208C431.008 208 431.089 208 431.17 208C431.251 208 431.332 208 431.413 208C431.494 208 431.576 208 431.657 208C431.738 208 431.819 208 431.9 208C431.981 208 432.062 208 432.143 208C432.225 208 432.306 208 432.387 208C432.468 208 432.55 208 432.631 208C432.712 208 432.793 208 432.875 208C432.956 208 433.037 208 433.118 208C433.2 208 433.281 208 433.363 208C433.444 208 433.525 208 433.607 208C433.688 208 433.77 208 433.851 208C433.932 208 434.014 208 434.095 208C434.177 208 434.258 208 434.34 208C434.421 208 434.503 208 434.585 208C434.666 208 434.748 208 434.829 208C434.911 208 434.993 208 435.074 208C435.156 208 435.238 208 435.319 208C435.401 208 435.483 208 435.565 208C435.646 208 435.728 208 435.81 208C435.892 208 435.974 208 436.056 208C436.137 208 436.219 208 436.301 208C436.383 208 436.465 208 436.547 208C436.629 208 436.711 208 436.793 208C436.875 208 436.957 208 437.039 208C437.121 208 437.203 208 437.286 208C437.368 208 437.45 208 437.532 208C437.614 208 437.696 208 437.779 208C437.861 208 437.943 208 438.025 208C438.108 208 438.19 208 438.272 208C438.355 208 438.437 208 438.52 208C438.602 208 438.684 208 438.767 208C438.849 208 438.932 208 439.014 208C439.097 208 439.18 208 439.262 208C439.345 208 439.427 208 439.51 208C439.593 208 439.675 208 439.758 208C439.841 208 439.924 208 440.006 208C440.089 208 440.172 208 440.255 208C440.338 208 440.421 208 440.504 208C440.587 208 440.67 208 440.753 208C440.836 208 440.919 208 441.002 208C441.085 208 441.168 208 441.251 208C441.334 208 441.417 208 441.5 208C441.584 208 441.667 208 441.75 208C441.833 208 441.917 208 442 208C442.083 208 442.167 208 442.25 208C442.334 208 442.417 208 442.501 208C442.584 208 442.668 208 442.751 208C442.835 208 442.918 208 443.002 208C443.086 208 443.169 208 443.253 208C443.337 208 443.421 208 443.504 208C443.588 208 443.672 208 443.756 208C443.84 208 443.924 208 444.008 208C444.092 208 444.176 208 444.26 208C444.344 208 444.428 208 444.512 208C444.596 208 444.68 208 444.764 208C444.849 208 444.933 208 445.017 208C445.102 208 445.186 208 445.27 208C445.355 208 445.439 208 445.523 208C445.608 208 445.692 208 445.777 208C445.862 208 445.946 208 446.031 208C446.115 208 446.2 208 446.285 208C446.37 208 446.454 208 446.539 208C446.624 208 446.709 208 446.794 208C446.879 208 446.964 208 447.049 208C447.134 208 447.219 208 447.304 208C447.389 208 447.474 208 447.559 208C447.644 208 447.729 208 447.815 208C447.9 208 447.985 208 448.071 208C448.156 208 448.242 208 448.327 208C448.412 208 448.498 208 448.584 208C448.669 208 448.755 208 448.84 208C448.926 208 449.012 208 449.098 208C449.183 208 449.269 208 449.355 208C449.441 208 449.527 208 449.613 208C449.699 208 449.785 208 449.871 208C449.957 208 450.043 208 450.129 208C450.215 208 450.301 208 450.388 208C450.474 208 450.56 208 450.647 208C450.733 208 450.819 208 450.906 208C450.992 208 451.079 208 451.166 208C451.252 208 451.339 208 451.425 208C451.512 208 451.599 208 451.686 208C451.772 208 451.859 208 451.946 208C452.033 208 452.12 208 452.207 208C452.294 208 452.381 208 452.468 208C452.555 208 452.643 208 452.73 208C452.817 208 452.904 208 452.992 208C453.079 208 453.167 208 453.254 208C453.341 208 453.429 208 453.517 208C453.604 208 453.692 208 453.779 208C453.867 208 453.955 208 454.043 208C454.131 208 454.218 208 454.306 208C454.394 208 454.482 208 454.57 208C454.658 208 454.746 208 454.835 208C454.923 208 455.011 208 455.099 208C455.188 208 455.276 208 455.364 208C455.453 208 455.541 208 455.63 208C455.718 208 455.807 208 455.896 208C455.984 208 456.073 208 456.162 208C456.251 208 456.339 208 456.428 208C456.517 208 456.606 208 456.695 208C456.784 208 456.873 208 456.962 208C457.052 208 457.141 208 457.23 208C457.319 208 457.409 208 457.498 208C457.588 208 457.677 208 457.767 208C457.856 208 457.946 208 458.035 208C458.125 208 458.215 208 458.305 208C458.394 208 458.484 208 458.574 208C458.664 208 458.754 208 458.844 208C458.934 208 459.024 208 459.115 208C459.205 208 459.295 208 459.385 208C459.476 208 459.566 208 459.657 208C459.747 208 459.838 208 459.928 208C460.019 208 460.11 208 460.2 208C460.291 208 460.382 208 460.473 208C460.564 208 460.655 208 460.746 208C460.837 208 460.928 208 461.019 208C461.11 208 461.201 208 461.293 208C461.384 208 461.475 208 461.567 208C461.658 208 461.75 208 461.841 208C461.933 208 462.025 208 462.117 208C462.208 208 462.3 208 462.392 208C462.484 208 462.576 208 462.668 208C462.76 208 462.852 208 462.944 208C463.036 208 463.129 208 463.221 208C463.313 208 463.406 208 463.498 208C463.591 208 463.683 208 463.776 208C463.868 208 463.961 208 464.054 208C464.147 208 464.24 208 464.333 208C464.425 208 464.518 208 464.612 208C464.705 208 464.798 208 464.891 208C464.984 208 465.078 208 465.171 208C465.264 208 465.358 208 465.451 208C465.545 208 465.639 208 465.732 208C465.826 208 465.92 208 466.014 208C466.108 208 466.201 208 466.296 208C466.39 208 466.484 208 466.578 208C466.672 208 466.766 208 466.861 208C466.955 208 467.049 208 467.144 208C467.238 208 467.333 208 467.428 208C467.522 208 467.617 208 467.712 208C467.807 208 467.902 208 467.997 208C468.092 208 468.187 208 468.282 208C468.377 208 468.472 208 468.568 208C468.663 208 468.758 208 468.854 208C468.949 208 469.045 208 469.141 208C469.236 208 469.332 208 469.428 208C469.524 208 469.62 208 469.716 208C469.812 208 469.908 208 470.004 208C470.1 208 470.196 208 470.293 208C470.389 208 470.485 208 470.582 208C470.678 208 470.775 208 470.872 208C470.968 208 471.065 208 471.162 208C471.259 208 471.356 208 471.453 208C471.55 208 471.647 208 471.744 208C471.841 208 471.939 208 472.036 208C472.134 208 472.231 208 472.329 208C472.426 208 472.524 208 472.622 208C472.719 208 472.817 208 472.915 208C473.013 208 473.111 208 473.209 208C473.307 208 473.405 208 473.504 208C473.602 208 473.7 208 473.799 208C473.897 208 473.996 208 474.095 208C474.193 208 474.292 208 474.391 208C474.49 208 474.589 208 474.688 208C474.787 208 474.886 208 474.985 208C475.084 208 475.184 208 475.283 208C475.382 208 475.482 208 475.582 208C475.681 208 475.781 208 475.881 208C475.98 208 476.08 208 476.18 208C476.28 208 476.38 208 476.48 208C476.581 208 476.681 208 476.781 208C476.882 208 476.982 208 477.083 208C477.183 208 477.284 208 477.385 208C477.485 208 477.586 208 477.687 208C477.788 208 477.889 208 477.99 208C478.091 208 478.193 208 478.294 208C478.395 208 478.497 208 478.598 208C478.7 208 478.801 208 478.903 208C479.005 208 479.107 208 479.209 208C479.31 208 479.412 208 479.515 208C479.617 208 479.719 208 479.821 208C479.924 208 480.026 208 480.129 208C480.231 208 480.334 208 480.437 208C480.539 208 480.642 208 480.745 208C480.848 208 480.951 208 481.054 208C481.157 208 481.261 208 481.364 208C481.467 208 481.571 208 481.674 208C481.778 208 481.882 208 481.985 208C482.089 208 482.193 208 482.297 208C482.401 208 482.505 208 482.609 208C482.713 208 482.818 208 482.922 208C483.026 208 483.131 208 483.236 208C483.34 208 483.445 208 483.55 208C483.655 208 483.759 208 483.865 208V204C483.759 204 483.655 204 483.55 204C483.445 204 483.34 204 483.236 204C483.131 204 483.026 204 482.922 204C482.818 204 482.713 204 482.609 204C482.505 204 482.401 204 482.297 204C482.193 204 482.089 204 481.985 204C481.882 204 481.778 204 481.674 204C481.571 204 481.467 204 481.364 204C481.261 204 481.157 204 481.054 204C480.951 204 480.848 204 480.745 204C480.642 204 480.539 204 480.437 204C480.334 204 480.231 204 480.129 204C480.026 204 479.924 204 479.821 204C479.719 204 479.617 204 479.515 204C479.412 204 479.31 204 479.209 204C479.107 204 479.005 204 478.903 204C478.801 204 478.7 204 478.598 204C478.497 204 478.395 204 478.294 204C478.193 204 478.091 204 477.99 204C477.889 204 477.788 204 477.687 204C477.586 204 477.485 204 477.385 204C477.284 204 477.183 204 477.083 204C476.982 204 476.882 204 476.781 204C476.681 204 476.581 204 476.48 204C476.38 204 476.28 204 476.18 204C476.08 204 475.98 204 475.881 204C475.781 204 475.681 204 475.582 204C475.482 204 475.382 204 475.283 204C475.184 204 475.084 204 474.985 204C474.886 204 474.787 204 474.688 204C474.589 204 474.49 204 474.391 204C474.292 204 474.193 204 474.095 204C473.996 204 473.897 204 473.799 204C473.7 204 473.602 204 473.504 204C473.405 204 473.307 204 473.209 204C473.111 204 473.013 204 472.915 204C472.817 204 472.719 204 472.622 204C472.524 204 472.426 204 472.329 204C472.231 204 472.134 204 472.036 204C471.939 204 471.841 204 471.744 204C471.647 204 471.55 204 471.453 204C471.356 204 471.259 204 471.162 204C471.065 204 470.968 204 470.872 204C470.775 204 470.678 204 470.582 204C470.485 204 470.389 204 470.293 204C470.196 204 470.1 204 470.004 204C469.908 204 469.812 204 469.716 204C469.62 204 469.524 204 469.428 204C469.332 204 469.236 204 469.141 204C469.045 204 468.949 204 468.854 204C468.758 204 468.663 204 468.568 204C468.472 204 468.377 204 468.282 204C468.187 204 468.092 204 467.997 204C467.902 204 467.807 204 467.712 204C467.617 204 467.522 204 467.428 204C467.333 204 467.238 204 467.144 204C467.049 204 466.955 204 466.861 204C466.766 204 466.672 204 466.578 204C466.484 204 466.39 204 466.296 204C466.201 204 466.108 204 466.014 204C465.92 204 465.826 204 465.732 204C465.639 204 465.545 204 465.451 204C465.358 204 465.264 204 465.171 204C465.078 204 464.984 204 464.891 204C464.798 204 464.705 204 464.612 204C464.518 204 464.425 204 464.333 204C464.24 204 464.147 204 464.054 204C463.961 204 463.868 204 463.776 204C463.683 204 463.591 204 463.498 204C463.406 204 463.313 204 463.221 204C463.129 204 463.036 204 462.944 204C462.852 204 462.76 204 462.668 204C462.576 204 462.484 204 462.392 204C462.3 204 462.208 204 462.117 204C462.025 204 461.933 204 461.841 204C461.75 204 461.658 204 461.567 204C461.475 204 461.384 204 461.293 204C461.201 204 461.11 204 461.019 204C460.928 204 460.837 204 460.746 204C460.655 204 460.564 204 460.473 204C460.382 204 460.291 204 460.2 204C460.11 204 460.019 204 459.928 204C459.838 204 459.747 204 459.657 204C459.566 204 459.476 204 459.385 204C459.295 204 459.205 204 459.115 204C459.024 204 458.934 204 458.844 204C458.754 204 458.664 204 458.574 204C458.484 204 458.394 204 458.305 204C458.215 204 458.125 204 458.035 204C457.946 204 457.856 204 457.767 204C457.677 204 457.588 204 457.498 204C457.409 204 457.319 204 457.23 204C457.141 204 457.052 204 456.962 204C456.873 204 456.784 204 456.695 204C456.606 204 456.517 204 456.428 204C456.339 204 456.251 204 456.162 204C456.073 204 455.984 204 455.896 204C455.807 204 455.718 204 455.63 204C455.541 204 455.453 204 455.364 204C455.276 204 455.188 204 455.099 204C455.011 204 454.923 204 454.835 204C454.746 204 454.658 204 454.57 204C454.482 204 454.394 204 454.306 204C454.218 204 454.131 204 454.043 204C453.955 204 453.867 204 453.779 204C453.692 204 453.604 204 453.517 204C453.429 204 453.341 204 453.254 204C453.167 204 453.079 204 452.992 204C452.904 204 452.817 204 452.73 204C452.643 204 452.555 204 452.468 204C452.381 204 452.294 204 452.207 204C452.12 204 452.033 204 451.946 204C451.859 204 451.772 204 451.686 204C451.599 204 451.512 204 451.425 204C451.339 204 451.252 204 451.166 204C451.079 204 450.992 204 450.906 204C450.819 204 450.733 204 450.647 204C450.56 204 450.474 204 450.388 204C450.301 204 450.215 204 450.129 204C450.043 204 449.957 204 449.871 204C449.785 204 449.699 204 449.613 204C449.527 204 449.441 204 449.355 204C449.269 204 449.183 204 449.098 204C449.012 204 448.926 204 448.84 204C448.755 204 448.669 204 448.584 204C448.498 204 448.412 204 448.327 204C448.242 204 448.156 204 448.071 204C447.985 204 447.9 204 447.815 204C447.729 204 447.644 204 447.559 204C447.474 204 447.389 204 447.304 204C447.219 204 447.134 204 447.049 204C446.964 204 446.879 204 446.794 204C446.709 204 446.624 204 446.539 204C446.454 204 446.37 204 446.285 204C446.2 204 446.115 204 446.031 204C445.946 204 445.862 204 445.777 204C445.692 204 445.608 204 445.523 204C445.439 204 445.355 204 445.27 204C445.186 204 445.102 204 445.017 204C444.933 204 444.849 204 444.764 204C444.68 204 444.596 204 444.512 204C444.428 204 444.344 204 444.26 204C444.176 204 444.092 204 444.008 204C443.924 204 443.84 204 443.756 204C443.672 204 443.588 204 443.504 204C443.421 204 443.337 204 443.253 204C443.169 204 443.086 204 443.002 204C442.918 204 442.835 204 442.751 204C442.668 204 442.584 204 442.501 204C442.417 204 442.334 204 442.25 204C442.167 204 442.083 204 442 204C441.917 204 441.833 204 441.75 204C441.667 204 441.584 204 441.5 204C441.417 204 441.334 204 441.251 204C441.168 204 441.085 204 441.002 204C440.919 204 440.836 204 440.753 204C440.67 204 440.587 204 440.504 204C440.421 204 440.338 204 440.255 204C440.172 204 440.089 204 440.006 204C439.924 204 439.841 204 439.758 204C439.675 204 439.593 204 439.51 204C439.427 204 439.345 204 439.262 204C439.18 204 439.097 204 439.014 204C438.932 204 438.849 204 438.767 204C438.684 204 438.602 204 438.52 204C438.437 204 438.355 204 438.272 204C438.19 204 438.108 204 438.025 204C437.943 204 437.861 204 437.779 204C437.696 204 437.614 204 437.532 204C437.45 204 437.368 204 437.286 204C437.203 204 437.121 204 437.039 204C436.957 204 436.875 204 436.793 204C436.711 204 436.629 204 436.547 204C436.465 204 436.383 204 436.301 204C436.219 204 436.137 204 436.056 204C435.974 204 435.892 204 435.81 204C435.728 204 435.646 204 435.565 204C435.483 204 435.401 204 435.319 204C435.238 204 435.156 204 435.074 204C434.993 204 434.911 204 434.829 204C434.748 204 434.666 204 434.585 204C434.503 204 434.421 204 434.34 204C434.258 204 434.177 204 434.095 204C434.014 204 433.932 204 433.851 204C433.77 204 433.688 204 433.607 204C433.525 204 433.444 204 433.363 204C433.281 204 433.2 204 433.118 204C433.037 204 432.956 204 432.875 204C432.793 204 432.712 204 432.631 204C432.55 204 432.468 204 432.387 204C432.306 204 432.225 204 432.143 204C432.062 204 431.981 204 431.9 204C431.819 204 431.738 204 431.657 204C431.576 204 431.494 204 431.413 204C431.332 204 431.251 204 431.17 204C431.089 204 431.008 204 430.927 204C430.846 204 430.765 204 430.684 204C430.603 204 430.522 204 430.441 204C430.36 204 430.279 204 430.198 204C430.117 204 430.037 204 429.956 204C429.875 204 429.794 204 429.713 204C429.632 204 429.551 204 429.47 204C429.39 204 429.309 204 429.228 204C429.147 204 429.066 204 428.986 204C428.905 204 428.824 204 428.743 204C428.662 204 428.582 204 428.501 204C428.42 204 428.339 204 428.259 204C428.178 204 428.097 204 428.017 204C427.936 204 427.855 204 427.774 204C427.694 204 427.613 204 427.532 204C427.452 204 427.371 204 427.29 204C427.21 204 427.129 204 427.049 204C426.968 204 426.887 204 426.807 204C426.726 204 426.645 204 426.565 204C426.484 204 426.404 204 426.323 204C426.242 204 426.162 204 426.081 204C426.001 204 425.92 204 425.84 204C425.759 204 425.678 204 425.598 204C425.517 204 425.437 204 425.356 204C425.276 204 425.195 204 425.115 204C425.034 204 424.954 204 424.873 204C424.792 204 424.712 204 424.631 204C424.551 204 424.47 204 424.39 204C424.309 204 424.229 204 424.148 204C424.068 204 423.987 204 423.907 204C423.826 204 423.746 204 423.665 204C423.585 204 423.504 204 423.424 204C423.343 204 423.263 204 423.182 204C423.102 204 423.021 204 422.941 204C422.86 204 422.78 204 422.699 204C422.619 204 422.538 204 422.458 204C422.377 204 422.297 204 422.216 204C422.136 204 422.055 204 421.975 204C421.894 204 421.814 204 421.733 204C421.653 204 421.572 204 421.492 204C421.411 204 421.331 204 421.25 204C421.17 204 421.089 204 421.008 204C420.928 204 420.847 204 420.767 204C420.686 204 420.606 204 420.525 204C420.445 204 420.364 204 420.284 204C420.203 204 420.122 204 420.042 204C419.961 204 419.881 204 419.8 204C419.72 204 419.639 204 419.558 204C419.478 204 419.397 204 419.317 204C419.236 204 419.155 204 419.075 204C418.994 204 418.914 204 418.833 204C418.752 204 418.672 204 418.591 204C418.51 204 418.43 204 418.349 204C418.268 204 418.188 204 418.107 204C418.026 204 417.946 204 417.865 204C417.784 204 417.704 204 417.623 204C417.542 204 417.461 204 417.381 204C417.3 204 417.219 204 417.138 204C417.058 204 416.977 204 416.896 204C416.815 204 416.734 204 416.654 204C416.573 204 416.492 204 416.411 204C416.33 204 416.249 204 416.169 204C416.088 204 416.007 204 415.926 204C415.845 204 415.764 204 415.683 204C415.602 204 415.521 204 415.44 204C415.359 204 415.278 204 415.197 204C415.116 204 415.035 204 414.954 204C414.873 204 414.792 204 414.711 204C414.63 204 414.549 204 414.468 204C414.387 204 414.306 204 414.225 204C414.144 204 414.063 204 413.982 204C413.9 204 413.819 204 413.738 204C413.657 204 413.576 204 413.495 204C413.413 204 413.332 204 413.251 204C413.17 204 413.088 204 413.007 204C412.926 204 412.845 204 412.763 204C412.682 204 412.601 204 412.519 204C412.438 204 412.356 204 412.275 204C412.194 204 412.112 204 412.031 204C411.949 204 411.868 204 411.786 204C411.705 204 411.623 204 411.542 204C411.46 204 411.379 204 411.297 204C411.216 204 411.134 204 411.052 204C410.971 204 410.889 204 410.807 204C410.726 204 410.644 204 410.562 204C410.481 204 410.399 204 410.317 204C410.235 204 410.154 204 410.072 204C409.99 204 409.908 204 409.826 204C409.744 204 409.663 204 409.581 204C409.499 204 409.417 204 409.335 204C409.253 204 409.171 204 409.089 204C409.007 204 408.925 204 408.843 204C408.761 204 408.679 204 408.596 204C408.514 204 408.432 204 408.35 204C408.268 204 408.186 204 408.103 204C408.021 204 407.939 204 407.856 204C407.774 204 407.692 204 407.61 204C407.527 204 407.445 204 407.362 204C407.28 204 407.198 204 407.115 204C407.033 204 406.95 204 406.868 204C406.785 204 406.702 204 406.62 204C406.537 204 406.455 204 406.372 204C406.289 204 406.207 204 406.124 204C406.041 204 405.958 204 405.876 204C405.793 204 405.71 204 405.627 204C405.544 204 405.461 204 405.378 204C405.296 204 405.213 204 405.13 204C405.047 204 404.964 204 404.881 204C404.797 204 404.714 204 404.631 204C404.548 204 404.465 204 404.382 204C404.299 204 404.215 204 404.132 204C404.049 204 403.965 204 403.882 204C403.799 204 403.715 204 403.632 204C403.549 204 403.465 204 403.382 204C403.298 204 403.215 204 403.131 204C403.047 204 402.964 204 402.88 204C402.797 204 402.713 204 402.629 204C402.545 204 402.462 204 402.378 204C402.294 204 402.21 204 402.126 204C402.043 204 401.959 204 401.875 204C401.791 204 401.707 204 401.623 204C401.539 204 401.455 204 401.37 204C401.286 204 401.202 204 401.118 204C401.034 204 400.95 204 400.865 204C400.781 204 400.697 204 400.612 204C400.528 204 400.443 204 400.359 204C400.275 204 400.19 204 400.106 204C400.021 204 399.936 204 399.852 204C399.767 204 399.682 204 399.598 204C399.513 204 399.428 204 399.343 204C399.259 204 399.174 204 399.089 204C399.004 204 398.919 204 398.834 204C398.749 204 398.664 204 398.579 204C398.494 204 398.409 204 398.324 204C398.238 204 398.153 204 398.068 204C397.983 204 397.897 204 397.812 204C397.727 204 397.641 204 397.556 204C397.47 204 397.385 204 397.299 204C397.214 204 397.128 204 397.042 204C396.957 204 396.871 204 396.785 204C396.7 204 396.614 204 396.528 204C396.442 204 396.356 204 396.27 204C396.184 204 396.098 204 396.012 204C395.926 204 395.84 204 395.754 204C395.668 204 395.582 204 395.495 204C395.409 204 395.323 204 395.236 204C395.15 204 395.064 204 394.977 204C394.891 204 394.804 204 394.718 204C394.631 204 394.544 204 394.458 204C394.371 204 394.284 204 394.197 204C394.111 204 394.024 204 393.937 204C393.85 204 393.763 204 393.676 204C393.589 204 393.502 204 393.415 204C393.328 204 393.241 204 393.153 204C393.066 204 392.979 204 392.892 204C392.804 204 392.717 204 392.629 204C392.542 204 392.454 204 392.367 204C392.279 204 392.192 204 392.104 204C392.016 204 391.928 204 391.841 204C391.753 204 391.665 204 391.577 204C391.489 204 391.401 204 391.313 204C391.225 204 391.137 204 391.049 204C390.961 204 390.872 204 390.784 204C390.696 204 390.608 204 390.519 204C390.431 204 390.342 204 390.254 204C390.165 204 390.077 204 389.988 204C389.899 204 389.811 204 389.722 204C389.633 204 389.544 204 389.455 204C389.367 204 389.278 204 389.189 204C389.1 204 389.01 204 388.921 204C388.832 204 388.743 204 388.654 204C388.564 204 388.475 204 388.386 204C388.296 204 388.207 204 388.117 204C388.028 204 387.938 204 387.848 204C387.759 204 387.669 204 387.579 204C387.49 204 387.4 204 387.31 204C387.22 204 387.13 204 387.04 204C386.95 204 386.86 204 386.769 204C386.679 204 386.589 204 386.499 204C386.408 204 386.318 204 386.227 204C386.137 204 386.046 204 385.956 204C385.865 204 385.775 204 385.684 204C385.593 204 385.502 204 385.411 204C385.321 204 385.23 204 385.139 204C385.048 204 384.956 204 384.865 204C384.774 204 384.683 204 384.592 204C384.5 204 384.409 204 384.317 204C384.226 204 384.135 204 384.043 204C383.951 204 383.86 204 383.768 204C383.676 204 383.584 204 383.493 204C383.401 204 383.309 204 383.217 204C383.125 204 383.033 204 382.94 204C382.848 204 382.756 204 382.664 204C382.571 204 382.479 204 382.386 204C382.294 204 382.201 204 382.109 204C382.016 204 381.924 204 381.831 204C381.738 204 381.645 204 381.552 204C381.459 204 381.366 204 381.273 204C381.18 204 381.087 204 380.994 204C380.901 204 380.807 204 380.714 204C380.621 204 380.527 204 380.434 204C380.34 204 380.246 204 380.153 204C380.059 204 379.965 204 379.871 204C379.778 204 379.684 204 379.59 204C379.496 204 379.401 204 379.307 204C379.213 204 379.119 204 379.025 204C378.93 204 378.836 204 378.741 204C378.647 204 378.552 204 378.458 204C378.363 204 378.268 204 378.173 204C378.079 204 377.984 204 377.889 204C377.794 204 377.699 204 377.604 204C377.508 204 377.413 204 377.318 204C377.223 204 377.127 204 377.032 204C376.936 204 376.841 204 376.745 204C376.649 204 376.554 204 376.458 204C376.362 204 376.266 204 376.17 204C376.074 204 375.978 204 375.882 204C375.786 204 375.689 204 375.593 204C375.497 204 375.4 204 375.304 204C375.207 204 375.111 204 375.014 204C374.917 204 374.821 204 374.724 204C374.627 204 374.53 204 374.433 204C374.336 204 374.239 204 374.142 204C374.044 204 373.947 204 373.85 204C373.752 204 373.655 204 373.557 204C373.46 204 373.362 204 373.264 204C373.167 204 373.069 204 372.971 204C372.873 204 372.775 204 372.677 204C372.579 204 372.481 204 372.382 204C372.284 204 372.186 204 372.087 204C371.989 204 371.89 204 371.792 204C371.693 204 371.594 204 371.495 204C371.397 204 371.298 204 371.199 204C371.1 204 371.001 204 370.901 204C370.802 204 370.703 204 370.603 204C370.504 204 370.405 204 370.305 204C370.205 204 370.106 204 370.006 204C369.906 204 369.806 204 369.706 204C369.606 204 369.506 204 369.406 204C369.306 204 369.206 204 369.106 204C369.005 204 368.905 204 368.804 204C368.704 204 368.603 204 368.502 204C368.402 204 368.301 204 368.2 204C368.099 204 367.998 204 367.897 204C367.796 204 367.694 204 367.593 204C367.492 204 367.39 204 367.289 204C367.187 204 367.086 204 366.984 204C366.882 204 366.781 204 366.679 204C366.577 204 366.475 204 366.373 204C366.271 204 366.168 204 366.066 204C365.964 204 365.861 204 365.759 204C365.656 204 365.554 204 365.451 204C365.348 204 365.245 204 365.142 204C365.039 204 364.936 204 364.833 204C364.73 204 364.627 204 364.524 204C364.42 204 364.317 204 364.213 204C364.11 204 364.006 204 363.902 204C363.799 204 363.695 204 363.591 204C363.487 204 363.383 204 363.279 204C363.174 204 363.07 204 362.966 204C362.861 204 362.757 204 362.652 204C362.548 204 362.443 204 362.338 204C362.233 204 362.129 204 362.024 204C361.918 204 361.813 204 361.708 204C361.603 204 361.498 204 361.392 204C361.287 204 361.181 204 361.075 204C360.97 204 360.864 204 360.758 204C360.652 204 360.546 204 360.44 204C360.334 204 360.228 204 360.122 204C360.015 204 359.909 204 359.802 204C359.696 204 359.589 204 359.482 204C359.376 204 359.269 204 359.162 204C359.055 204 358.948 204 358.84 204C358.733 204 358.626 204 358.518 204C358.411 204 358.303 204 358.196 204C358.088 204 357.98 204 357.872 204C357.765 204 357.657 204 357.548 204C357.44 204 357.332 204 357.224 204C357.115 204 357.007 204 356.898 204C356.79 204 356.681 204 356.572 204C356.464 204 356.355 204 356.246 204C356.137 204 356.028 204 355.918 204C355.809 204 355.7 204 355.59 204C355.481 204 355.371 204 355.261 204C355.152 204 355.042 204 354.932 204C354.822 204 354.712 204 354.602 204C354.491 204 354.381 204 354.271 204C354.16 204 354.05 204 353.939 204C353.828 204 353.718 204 353.607 204C353.496 204 353.385 204 353.274 204C353.162 204 353.051 204 352.94 204C352.828 204 352.717 204 352.605 204C352.494 204 352.382 204 352.27 204C352.158 204 352.046 204 351.934 204C351.822 204 351.71 204 351.597 204C351.485 204 351.373 204 351.26 204C351.147 204 351.035 204 350.922 204C350.809 204 350.696 204 350.583 204C350.47 204 350.357 204 350.243 204C350.13 204 350.017 204 349.903 204C349.789 204 349.676 204 349.562 204C349.448 204 349.334 204 349.22 204C349.106 204 348.992 204 348.877 204C348.763 204 348.649 204 348.534 204C348.419 204 348.305 204 348.19 204C348.075 204 347.96 204 347.845 204C347.73 204 347.615 204 347.499 204C347.384 204 347.268 204 347.153 204C347.037 204 346.921 204 346.806 204C346.69 204 346.574 204 346.458 204C346.342 204 346.225 204 346.109 204C345.993 204 345.876 204 345.759 204C345.643 204 345.526 204 345.409 204C345.292 204 345.175 204 345.058 204C344.941 204 344.824 204 344.706 204C344.589 204 344.471 204 344.353 204C344.236 204 344.118 204 344 204V208Z" fill="#B3E8FF"/>
<path d="M258 198L241.353 181.993L235.814 204.413L258 198ZM119 66C131.073 66 141.753 72.2625 151.806 82.4396C161.868 92.6257 171.079 106.507 180.214 121.283C189.302 135.984 198.326 151.591 207.901 164.901C217.467 178.199 227.784 189.504 239.623 195.468L241.423 191.896C230.474 186.38 220.621 175.735 211.148 162.565C201.682 149.407 192.796 134.029 183.616 119.179C174.482 104.405 165.065 90.1704 154.652 79.6286C144.229 69.0778 132.586 62 119 62V66Z" fill="#B3E8FF"/>
<path d="M258 198L239.251 184.516L236.948 207.495L258 198ZM119 147C143.974 147 162.51 157.211 180.664 168.815C198.726 180.36 216.584 193.441 239.689 198.164L240.49 194.245C218.296 189.708 201.186 177.186 182.818 165.444C164.54 153.761 145.181 143 119 143V147Z" fill="#B3E8FF"/>
<path d="M258 198L238.644 210.597L237.413 187.536L258 198ZM119 224C144.144 224 162.87 218.549 181.043 212.428C199.204 206.311 216.97 199.458 239.816 196.972L240.249 200.948C217.937 203.377 200.653 210.044 182.32 216.219C164 222.389 144.789 228 119 228V224Z" fill="#B3E8FF"/>
<path d="M258 198L240.696 213.294L236.103 190.661L258 198ZM119 305C131.202 305 141.917 299.859 151.921 291.63C161.953 283.378 171.137 272.131 180.257 260.136C189.325 248.209 198.353 235.505 207.922 224.667C217.499 213.82 227.807 204.61 239.594 199.732L241.123 203.428C230.175 207.959 220.352 216.631 210.92 227.314C201.481 238.006 192.622 250.481 183.441 262.557C174.312 274.565 164.886 286.145 154.462 294.719C144.012 303.315 132.426 309 119 309V305Z" fill="#B3E8FF"/>
<defs>
<clipPath id="clip0">
<rect width="74" height="77" fill="white" transform="translate(264 167.218)"/>
</clipPath>
<clipPath id="clip1">
<rect width="75.8353" height="81.657" fill="white" transform="translate(508 165.218)"/>
</clipPath>
</defs>
</svg>
