<svg width="629" height="413" viewBox="0 0 629 413" fill="none" xmlns="http://www.w3.org/2000/svg">
<rect width="629" height="413" fill="#242436"/>
<path d="M258 198L237 218.785V177.215L258 198Z" fill="#B3E8FF"/>
<g clip-path="url(#clip0)">
<path d="M332.872 170.291H274.128C270.399 170.291 267.376 173.238 267.376 176.872V234.129C267.376 237.763 270.399 240.71 274.128 240.71H332.872C336.601 240.71 339.624 237.763 339.624 234.129V176.872C339.624 173.238 336.601 170.291 332.872 170.291Z" stroke="#29ABE2" stroke-width="10"/>
<path d="M319.526 199.487L318.842 200.888C318.592 201.407 318.058 201.623 317.582 201.417C316.598 200.986 315.697 200.368 314.905 199.594C314.521 199.222 314.421 198.566 314.671 198.056L315.355 196.655C314.78 195.871 314.329 194.96 314.029 193.97H312.653C312.152 193.97 311.719 193.549 311.635 192.961C311.468 191.785 311.46 190.55 311.635 189.325C311.719 188.738 312.152 188.306 312.653 188.306H314.029C314.329 187.317 314.78 186.405 315.355 185.622L314.671 184.22C314.421 183.711 314.513 183.054 314.905 182.682C315.697 181.908 316.607 181.291 317.582 180.859C318.058 180.654 318.592 180.869 318.842 181.389L319.526 182.79C320.402 182.604 321.294 182.604 322.17 182.79L322.854 181.389C323.104 180.869 323.638 180.654 324.113 180.859C325.098 181.291 325.999 181.908 326.791 182.682C327.175 183.054 327.275 183.711 327.025 184.22L326.341 185.622C326.916 186.405 327.366 187.317 327.667 188.306H329.043C329.544 188.306 329.977 188.728 330.061 189.316C330.227 190.491 330.236 191.726 330.061 192.951C329.977 193.539 329.544 193.97 329.043 193.97H327.667C327.366 194.96 326.916 195.871 326.341 196.655L327.025 198.056C327.275 198.566 327.183 199.222 326.791 199.594C325.999 200.368 325.089 200.986 324.113 201.417C323.638 201.623 323.104 201.407 322.854 200.888L322.17 199.487C321.303 199.673 320.402 199.673 319.526 199.487ZM318.65 193.725C321.861 196.625 325.523 192.324 323.054 188.551C319.843 185.641 316.181 189.953 318.65 193.725ZM309.033 208.805L311.844 210.451C312.686 211.02 313.053 212.225 312.72 213.303C311.977 215.674 310.518 217.849 309.166 219.75C308.549 220.622 307.481 220.838 306.639 220.27L304.212 218.623C302.877 219.966 301.326 221.034 299.632 221.729V225.022C299.632 226.158 298.94 227.138 297.989 227.334C295.937 227.746 293.785 227.765 291.658 227.334C290.699 227.138 289.99 226.168 289.99 225.022V221.729C288.297 221.024 286.746 219.966 285.411 218.623L282.984 220.26C282.15 220.828 281.074 220.612 280.456 219.74C279.105 217.839 277.679 215.664 276.936 213.303C276.603 212.235 276.97 211.029 277.812 210.451L280.59 208.805C280.265 206.757 280.265 204.65 280.59 202.593L277.812 200.937C276.97 200.368 276.594 199.163 276.936 198.095C277.679 195.724 279.105 193.549 280.456 191.648C281.074 190.776 282.141 190.56 282.984 191.128L285.411 192.775C286.746 191.432 288.297 190.364 289.99 189.668V186.366C289.99 185.239 290.674 184.26 291.625 184.064C293.677 183.652 295.837 183.632 297.964 184.054C298.923 184.25 299.632 185.22 299.632 186.366V189.659C301.326 190.364 302.877 191.422 304.212 192.765L306.639 191.119C307.473 190.55 308.549 190.766 309.166 191.638C310.518 193.539 311.936 195.714 312.678 198.085C313.012 199.153 312.686 200.359 311.844 200.937L309.033 202.583C309.358 204.641 309.358 206.747 309.033 208.805ZM299.224 210.873C304.162 203.328 296.83 194.715 290.407 200.515C285.469 208.06 292.801 216.673 299.224 210.873ZM319.526 228.775L318.842 230.176C318.592 230.695 318.058 230.911 317.582 230.705C316.598 230.274 315.697 229.657 314.905 228.883C314.521 228.51 314.421 227.854 314.671 227.344L315.355 225.943C314.78 225.159 314.329 224.248 314.029 223.258H312.653C312.152 223.258 311.719 222.837 311.635 222.249C311.468 221.073 311.46 219.838 311.635 218.614C311.719 218.026 312.152 217.594 312.653 217.594H314.029C314.329 216.605 314.78 215.694 315.355 214.91L314.671 213.508C314.421 212.999 314.513 212.342 314.905 211.97C315.697 211.196 316.607 210.579 317.582 210.148C318.058 209.942 318.592 210.157 318.842 210.677L319.526 212.078C320.402 211.892 321.294 211.892 322.17 212.078L322.854 210.677C323.104 210.157 323.638 209.942 324.113 210.148C325.098 210.579 325.999 211.196 326.791 211.97C327.175 212.342 327.275 212.999 327.025 213.508L326.341 214.91C326.916 215.694 327.366 216.605 327.667 217.594H329.043C329.544 217.594 329.977 218.016 330.061 218.604C330.227 219.78 330.236 221.014 330.061 222.239C329.977 222.827 329.544 223.258 329.043 223.258H327.667C327.366 224.248 326.916 225.159 326.341 225.943L327.025 227.344C327.275 227.854 327.183 228.51 326.791 228.883C325.999 229.657 325.089 230.274 324.113 230.705C323.638 230.911 323.104 230.695 322.854 230.176L322.17 228.775C321.303 228.961 320.402 228.961 319.526 228.775ZM318.65 223.003C321.861 225.904 325.523 221.602 323.054 217.83C319.843 214.929 316.181 219.231 318.65 223.003Z" fill="#29ABE2"/>
</g>
<path d="M524.452 382.281H532.538V384.121H522.19V367.059H524.452V382.281ZM547.456 376.141C547.456 377.812 547.175 379.273 546.612 380.523C546.05 381.766 545.253 382.715 544.222 383.371C543.19 384.027 541.987 384.355 540.612 384.355C539.268 384.355 538.077 384.027 537.038 383.371C535.999 382.707 535.19 381.766 534.612 380.547C534.042 379.32 533.749 377.902 533.733 376.293V375.062C533.733 373.422 534.018 371.973 534.589 370.715C535.159 369.457 535.964 368.496 537.003 367.832C538.05 367.16 539.245 366.824 540.589 366.824C541.956 366.824 543.159 367.156 544.198 367.82C545.245 368.477 546.05 369.434 546.612 370.691C547.175 371.941 547.456 373.398 547.456 375.062V376.141ZM545.218 375.039C545.218 373.016 544.811 371.465 543.999 370.387C543.186 369.301 542.05 368.758 540.589 368.758C539.167 368.758 538.046 369.301 537.225 370.387C536.413 371.465 535.995 372.965 535.972 374.887V376.141C535.972 378.102 536.382 379.645 537.202 380.77C538.03 381.887 539.167 382.445 540.612 382.445C542.065 382.445 543.19 381.918 543.987 380.863C544.784 379.801 545.194 378.281 545.218 376.305V375.039ZM559.995 379.668H552.847L551.241 384.121H548.921L555.436 367.059H557.405L563.933 384.121H561.624L559.995 379.668ZM553.526 377.816H559.327L556.421 369.836L553.526 377.816ZM566.229 384.121V367.059H571.046C572.53 367.059 573.843 367.387 574.983 368.043C576.124 368.699 577.003 369.633 577.62 370.844C578.245 372.055 578.561 373.445 578.569 375.016V376.105C578.569 377.715 578.257 379.125 577.632 380.336C577.015 381.547 576.128 382.477 574.972 383.125C573.823 383.773 572.483 384.105 570.952 384.121H566.229ZM568.479 368.91V382.281H570.847C572.581 382.281 573.929 381.742 574.89 380.664C575.858 379.586 576.343 378.051 576.343 376.059V375.062C576.343 373.125 575.886 371.621 574.972 370.551C574.065 369.473 572.776 368.926 571.104 368.91H568.479Z" fill="white"/>
<path d="M593 176.714V184.036C593 190.488 573.964 195.75 550.5 195.75C527.036 195.75 508 190.488 508 184.036V176.714C508 170.262 527.036 165 550.5 165C573.964 165 593 170.262 593 176.714ZM593 193.188V209.661C593 216.113 573.964 221.375 550.5 221.375C527.036 221.375 508 216.113 508 209.661V193.188C517.131 198.496 533.843 200.967 550.5 200.967C567.157 200.967 583.869 198.496 593 193.188ZM593 218.812V235.286C593 241.738 573.964 247 550.5 247C527.036 247 508 241.738 508 235.286V218.812C517.131 224.121 533.843 226.592 550.5 226.592C567.157 226.592 583.869 224.121 593 218.812Z" fill="#D3D3FF"/>
<path d="M243.949 368.91H238.464V384.121H236.226V368.91H230.753V367.059H243.949V368.91ZM252.738 377.219H248.73V384.121H246.468V367.059H252.116C254.038 367.059 255.515 367.496 256.546 368.371C257.585 369.246 258.105 370.52 258.105 372.191C258.105 373.254 257.816 374.18 257.238 374.969C256.667 375.758 255.87 376.348 254.847 376.738L258.855 383.98V384.121H256.441L252.738 377.219ZM248.73 375.379H252.187C253.304 375.379 254.191 375.09 254.847 374.512C255.511 373.934 255.843 373.16 255.843 372.191C255.843 371.137 255.527 370.328 254.894 369.766C254.269 369.203 253.363 368.918 252.175 368.91H248.73V375.379ZM270.691 379.668H263.542L261.937 384.121H259.616L266.132 367.059H268.101L274.628 384.121H272.32L270.691 379.668ZM264.222 377.816H270.023L267.116 369.836L264.222 377.816ZM290.038 384.121H287.777L279.187 370.973V384.121H276.925V367.059H279.187L287.8 380.266V367.059H290.038V384.121ZM299.062 376.516C297.132 375.961 295.726 375.281 294.843 374.477C293.968 373.664 293.531 372.664 293.531 371.477C293.531 370.133 294.066 369.023 295.136 368.148C296.214 367.266 297.613 366.824 299.331 366.824C300.503 366.824 301.546 367.051 302.46 367.504C303.382 367.957 304.093 368.582 304.593 369.379C305.101 370.176 305.355 371.047 305.355 371.992H303.093C303.093 370.961 302.765 370.152 302.109 369.566C301.452 368.973 300.527 368.676 299.331 368.676C298.222 368.676 297.355 368.922 296.73 369.414C296.113 369.898 295.804 370.574 295.804 371.441C295.804 372.137 296.097 372.727 296.683 373.211C297.277 373.688 298.281 374.125 299.695 374.523C301.116 374.922 302.226 375.363 303.023 375.848C303.827 376.324 304.421 376.883 304.804 377.523C305.195 378.164 305.39 378.918 305.39 379.785C305.39 381.168 304.851 382.277 303.773 383.113C302.695 383.941 301.253 384.355 299.449 384.355C298.277 384.355 297.183 384.133 296.167 383.688C295.152 383.234 294.366 382.617 293.812 381.836C293.265 381.055 292.991 380.168 292.991 379.176H295.253C295.253 380.207 295.632 381.023 296.39 381.625C297.156 382.219 298.175 382.516 299.449 382.516C300.636 382.516 301.546 382.273 302.179 381.789C302.812 381.305 303.128 380.645 303.128 379.809C303.128 378.973 302.835 378.328 302.249 377.875C301.663 377.414 300.601 376.961 299.062 376.516ZM317.695 376.586H310.534V384.121H308.284V367.059H318.855V368.91H310.534V374.746H317.695V376.586ZM334.675 376.141C334.675 377.812 334.394 379.273 333.831 380.523C333.269 381.766 332.472 382.715 331.441 383.371C330.409 384.027 329.206 384.355 327.831 384.355C326.488 384.355 325.296 384.027 324.257 383.371C323.218 382.707 322.409 381.766 321.831 380.547C321.261 379.32 320.968 377.902 320.952 376.293V375.062C320.952 373.422 321.238 371.973 321.808 370.715C322.378 369.457 323.183 368.496 324.222 367.832C325.269 367.16 326.464 366.824 327.808 366.824C329.175 366.824 330.378 367.156 331.417 367.82C332.464 368.477 333.269 369.434 333.831 370.691C334.394 371.941 334.675 373.398 334.675 375.062V376.141ZM332.437 375.039C332.437 373.016 332.031 371.465 331.218 370.387C330.406 369.301 329.269 368.758 327.808 368.758C326.386 368.758 325.265 369.301 324.445 370.387C323.632 371.465 323.214 372.965 323.191 374.887V376.141C323.191 378.102 323.601 379.645 324.421 380.77C325.249 381.887 326.386 382.445 327.831 382.445C329.284 382.445 330.409 381.918 331.206 380.863C332.003 379.801 332.413 378.281 332.437 376.305V375.039ZM344.308 377.219H340.3V384.121H338.038V367.059H343.687C345.609 367.059 347.085 367.496 348.116 368.371C349.156 369.246 349.675 370.52 349.675 372.191C349.675 373.254 349.386 374.18 348.808 374.969C348.238 375.758 347.441 376.348 346.417 376.738L350.425 383.98V384.121H348.011L344.308 377.219ZM340.3 375.379H343.757C344.874 375.379 345.761 375.09 346.417 374.512C347.081 373.934 347.413 373.16 347.413 372.191C347.413 371.137 347.097 370.328 346.464 369.766C345.839 369.203 344.933 368.918 343.745 368.91H340.3V375.379ZM355.745 367.059L361.324 380.98L366.902 367.059H369.82V384.121H367.57V377.477L367.781 370.305L362.179 384.121H360.456L354.866 370.34L355.089 377.477V384.121H352.839V367.059H355.745Z" fill="white"/>
<rect x="53.2939" y="33.6396" width="60" height="60" rx="5" fill="white"/>
<rect x="53.2939" y="115.64" width="60" height="60" rx="5" fill="white"/>
<rect x="53.2939" y="197.64" width="60" height="60" rx="5" fill="white"/>
<rect x="53.2939" y="279.64" width="60" height="60" rx="5" fill="white"/>
<path d="M84.7163 222.626C82.2645 225.136 80.731 228.694 80.731 232.644C80.731 235.747 81.6785 238.606 83.2706 240.904L78.4356 246.178C78.0058 246.008 77.5467 245.913 77.0681 245.913C76.0131 245.913 75.0266 246.358 74.2842 247.163C73.5419 247.968 73.1316 249.048 73.1316 250.191C73.1316 251.335 73.5419 252.405 74.2842 253.21C75.0266 254.014 76.0229 254.438 77.0681 254.438C78.123 254.438 79.1095 254.025 79.8617 253.21C80.604 252.405 81.0143 251.325 81.0143 250.191C81.0143 249.747 80.9557 249.323 80.8287 248.91L85.7126 243.594C87.8615 245.384 90.5379 246.443 93.4585 246.443C100.482 246.443 106.157 240.269 106.157 232.655C106.157 225.75 101.497 220.031 95.3925 219.025V212.502C97.1019 211.718 98.147 209.982 98.147 207.959C98.147 205.195 96.1056 202.886 93.5562 202.886C91.0068 202.886 88.9946 205.195 88.9946 207.959C88.9946 209.982 90.0397 211.718 91.7491 212.502V218.983C90.2644 219.205 88.8578 219.693 87.5782 220.423C84.8823 218.21 76.101 211.348 71.0804 207.207C71.1976 206.741 71.2757 206.254 71.2757 205.746C71.2757 202.696 68.9803 200.218 66.1574 200.218C63.3443 200.218 61.0586 202.696 61.0586 205.746C61.0586 208.806 63.3443 211.284 66.1574 211.284C67.1146 211.284 68.0035 210.977 68.7752 210.479L84.7163 222.626ZM93.4585 239.951C89.7369 239.951 86.7187 236.679 86.7187 232.644C86.7187 228.609 89.7369 225.337 93.4585 225.337C97.18 225.337 100.198 228.609 100.198 232.644C100.198 236.679 97.18 239.951 93.4585 239.951Z" fill="#F78A57"/>
<path d="M49.4619 376.113H42.0674V382.16H50.6572V384H39.8174V366.938H50.54V368.789H42.0674V374.273H49.4619V376.113ZM59.0244 373.477L63.1143 366.938H65.7627L60.3721 375.398L65.8916 384H63.2197L59.0244 377.344L54.8057 384H52.1455L57.6768 375.398L52.2744 366.938H54.9111L59.0244 373.477ZM80.2939 368.789H74.8096V384H72.5713V368.789H67.0986V366.938H80.2939V368.789ZM89.083 377.098H85.0752V384H82.8135V366.938H88.4619C90.3838 366.938 91.8604 367.375 92.8916 368.25C93.9307 369.125 94.4502 370.398 94.4502 372.07C94.4502 373.133 94.1611 374.059 93.583 374.848C93.0127 375.637 92.2158 376.227 91.1924 376.617L95.2002 383.859V384H92.7861L89.083 377.098ZM85.0752 375.258H88.5322C89.6494 375.258 90.5361 374.969 91.1924 374.391C91.8564 373.812 92.1885 373.039 92.1885 372.07C92.1885 371.016 91.8721 370.207 91.2393 369.645C90.6143 369.082 89.708 368.797 88.5205 368.789H85.0752V375.258ZM107.036 379.547H99.8877L98.2822 384H95.9619L102.478 366.938H104.446L110.974 384H108.665L107.036 379.547ZM100.567 377.695H106.368L103.462 369.715L100.567 377.695ZM125.681 378.586C125.47 380.391 124.802 381.785 123.677 382.77C122.56 383.746 121.071 384.234 119.212 384.234C117.196 384.234 115.579 383.512 114.36 382.066C113.149 380.621 112.544 378.688 112.544 376.266V374.625C112.544 373.039 112.825 371.645 113.388 370.441C113.958 369.238 114.763 368.316 115.802 367.676C116.841 367.027 118.044 366.703 119.411 366.703C121.224 366.703 122.677 367.211 123.771 368.227C124.864 369.234 125.501 370.633 125.681 372.422H123.419C123.224 371.062 122.798 370.078 122.142 369.469C121.493 368.859 120.583 368.555 119.411 368.555C117.974 368.555 116.845 369.086 116.024 370.148C115.212 371.211 114.806 372.723 114.806 374.684V376.336C114.806 378.188 115.192 379.66 115.966 380.754C116.739 381.848 117.821 382.395 119.212 382.395C120.462 382.395 121.419 382.113 122.083 381.551C122.755 380.98 123.2 379.992 123.419 378.586H125.681ZM140.2 368.789H134.716V384H132.478V368.789H127.005V366.938H140.2V368.789Z" fill="white"/>
<path d="M95.6512 307.355C96.0091 307.312 96.3714 307.312 96.7292 307.355C96.9216 306.937 96.9552 306.217 96.7814 305.433C96.5229 304.269 96.1728 303.563 95.4507 303.673C94.7286 303.783 94.7008 304.627 94.9593 305.793C95.1053 306.447 95.3638 307.008 95.6547 307.355H95.6512ZM89.4431 308.281C89.9612 308.499 90.2777 308.637 90.4029 308.513C90.6219 308.302 89.9995 307.489 88.998 307.085C88.4198 306.859 87.7896 306.778 87.1682 306.848C86.5467 306.918 85.955 307.138 85.45 307.486C85.1023 307.724 84.7766 308.056 84.823 308.257C84.9215 308.665 85.9821 307.961 87.4425 307.877C88.2539 307.829 88.9262 308.068 89.4431 308.282V308.281ZM88.3999 308.841C87.3486 308.996 86.6613 309.553 86.8386 309.943C86.943 309.98 86.9742 310.031 87.4425 309.855C88.1342 309.609 88.8817 309.535 89.6124 309.642C89.9508 309.679 90.1119 309.698 90.1849 309.588C90.3542 309.346 89.5231 308.715 88.4011 308.841H88.3999ZM94.6788 310.707C95.0705 309.957 93.4153 309.187 93.0213 309.943C92.6272 310.699 94.287 311.458 94.6811 310.704L94.6788 310.707ZM96.4939 308.473C95.606 308.459 95.5724 310.197 96.4638 310.211C97.3551 310.226 97.3887 308.486 96.4962 308.47L96.4939 308.473ZM71.134 317.084C70.981 317.117 70.4386 317.242 70.1523 316.827C69.5495 315.954 71.44 314.603 70.5 312.923C69.4452 311.017 67.2754 311.446 66.4374 312.319C65.4278 313.367 65.4266 314.888 65.8578 314.947C66.3528 315.009 66.3307 314.241 66.7132 313.678C66.8201 313.522 66.9586 313.388 67.1207 313.284C67.2829 313.179 67.4654 313.106 67.6578 313.068C67.8502 313.031 68.0486 313.029 68.2416 313.064C68.4346 313.099 68.6184 313.169 68.7822 313.272C70.1256 314.1 68.941 315.21 69.0465 316.395C69.2076 318.215 71.1816 318.182 71.5478 317.377C71.5715 317.338 71.5819 317.292 71.5778 317.247C71.5736 317.201 71.5551 317.158 71.5246 317.123C71.5281 317.22 71.6035 316.981 71.1363 317.08L71.134 317.084ZM105.874 315.221C105.486 313.941 105.577 314.215 105.089 312.981C105.373 312.581 106.861 310.362 104.733 308.261C103.527 307.069 100.803 306.456 99.9689 306.238C99.795 304.995 100.508 299.832 97.4745 297.18C99.8843 294.828 101.388 292.237 101.384 290.015C101.377 285.741 95.8031 284.449 88.9331 287.126L87.4785 287.708C87.4715 287.702 84.8461 285.277 84.8067 285.245C76.977 278.814 52.4888 304.44 60.3185 310.665L62.0293 312.031C61.5676 313.197 61.4048 314.45 61.5541 315.687C61.9435 319.332 65.7268 322.281 69.3815 322.276C76.0729 336.798 100.434 336.822 106.738 322.604C106.94 322.116 107.794 319.918 107.794 317.979C107.794 316.039 106.624 315.221 105.878 315.221H105.874ZM69.247 320.477C66.602 320.41 63.7459 318.168 63.462 315.51C62.7468 308.819 72.0694 307.295 73.1984 314.164C73.7246 317.399 72.6571 320.548 69.2435 320.473L69.247 320.477ZM67.1015 308.013C65.3443 308.335 63.7958 309.273 62.8476 310.573C62.282 310.128 61.2249 309.263 61.0406 308.936C59.5326 306.224 62.6912 300.969 64.9004 297.999C70.3609 290.662 78.9116 285.109 82.8722 286.117C83.5155 286.288 85.6471 288.615 85.6471 288.615C85.6471 288.615 81.6888 290.682 78.0202 293.564C73.0755 297.149 69.3397 302.359 67.1015 308.013ZM94.79 319.052C94.79 319.052 90.6474 319.631 86.7332 318.281C87.453 316.081 89.8627 318.947 97.9068 316.774C99.6791 316.296 102.007 315.355 103.818 314.007C104.208 314.855 104.485 315.745 104.644 316.657C105.068 316.585 106.295 316.6 105.97 318.632C105.588 320.801 104.61 322.561 102.964 324.181C101.936 325.23 100.712 326.092 99.3534 326.725C98.5966 327.098 97.808 327.411 96.9958 327.661C90.7935 329.569 84.4428 327.471 82.3912 322.968C82.2248 322.625 82.0872 322.269 81.9797 321.905C81.1069 318.937 81.8476 315.376 84.1634 313.134C84.306 312.991 84.4509 312.823 84.4509 312.611C84.4307 312.429 84.3532 312.256 84.2283 312.116C83.417 311.01 80.6131 309.126 81.1764 305.477C81.5821 302.858 84.0151 301.012 86.2846 301.122L86.8641 301.153C87.847 301.208 88.7059 301.327 89.5161 301.358C90.8711 301.413 92.0893 301.229 93.5313 300.097C94.0181 299.715 94.4087 299.383 95.0682 299.277C95.3348 299.215 95.6121 299.205 95.8831 299.247C96.1541 299.289 96.4132 299.382 96.6446 299.522C97.8037 300.246 97.966 302.002 98.0262 303.286C98.0599 304.019 98.1537 305.796 98.1862 306.301C98.2592 307.466 98.5838 307.629 99.2421 307.829C99.6119 307.944 99.955 308.029 100.46 308.163C101.992 308.568 102.894 308.979 103.474 309.506C103.77 309.779 103.962 310.135 104.023 310.52C104.204 311.761 103.001 313.292 99.8147 314.685C94.4006 317.051 88.9563 316.262 88.1681 316.178C85.8325 315.882 84.5019 318.723 85.9021 320.669C88.5263 324.315 100.089 322.851 103.447 318.339C103.527 318.23 103.461 318.165 103.363 318.23C98.5212 321.349 92.1125 322.4 88.473 321.067C87.9201 320.865 86.7656 320.364 86.6254 319.248C91.679 320.72 94.8549 319.329 94.8549 319.329C94.8549 319.329 95.0902 319.024 94.79 319.052ZM77.1868 297.968C79.1272 295.856 81.5172 294.019 83.6581 292.988C83.6742 292.979 83.6931 292.975 83.7118 292.977C83.7304 292.979 83.7477 292.987 83.761 293C83.7743 293.012 83.7828 293.029 83.7851 293.046C83.7875 293.064 83.7835 293.082 83.774 293.097C83.6048 293.387 83.2767 294.007 83.1724 294.477C83.1683 294.494 83.1694 294.511 83.1758 294.526C83.1821 294.542 83.1934 294.555 83.208 294.564C83.2226 294.574 83.2399 294.579 83.2575 294.579C83.2752 294.578 83.2924 294.573 83.3069 294.564C84.6387 293.709 86.9557 292.793 88.9864 292.676C89.0056 292.674 89.0246 292.679 89.0408 292.689C89.0569 292.699 89.0693 292.713 89.076 292.73C89.0828 292.747 89.0836 292.765 89.0783 292.783C89.073 292.8 89.062 292.815 89.0467 292.826C88.7109 293.07 88.4105 293.354 88.1531 293.671C88.1437 293.683 88.1381 293.697 88.1368 293.712C88.1355 293.727 88.1385 293.742 88.1455 293.755C88.1526 293.769 88.1634 293.78 88.1768 293.788C88.1901 293.796 88.2056 293.8 88.2214 293.801C89.6483 293.811 91.6593 294.281 92.9737 294.973C93.0618 295.02 92.9992 295.181 92.8995 295.161C84.838 293.421 78.6334 297.183 77.3097 298.089C77.2921 298.099 77.2709 298.104 77.2501 298.101C77.2293 298.099 77.2102 298.089 77.1963 298.074C77.1823 298.059 77.1744 298.041 77.1739 298.021C77.1734 298.001 77.1805 297.982 77.1938 297.966L77.1868 297.968Z" fill="black"/>
<g clip-path="url(#clip1)">
<path d="M102.5 48.2178V51.9678C102.5 55.2725 93.8776 57.9678 83.25 57.9678C72.6224 57.9678 64 55.2725 64 51.9678V48.2178C64 44.9131 72.6224 42.2178 83.25 42.2178C93.8776 42.2178 102.5 44.9131 102.5 48.2178ZM102.5 56.6553V65.0928C102.5 68.3975 93.8776 71.0928 83.25 71.0928C72.6224 71.0928 64 68.3975 64 65.0928V56.6553C68.1357 59.374 75.7054 60.6397 83.25 60.6397C90.7946 60.6397 98.3642 59.374 102.5 56.6553ZM102.5 69.7803V78.2178C102.5 81.5225 93.8776 84.2178 83.25 84.2178C72.6224 84.2178 64 81.5225 64 78.2178V69.7803C68.1357 72.499 75.7054 73.7647 83.25 73.7647C90.7946 73.7647 98.3642 72.499 102.5 69.7803Z" fill="#6363E1"/>
</g>
<path d="M97.6192 142.167L96.7396 144.4L99.0943 144.862C102.5 145.532 105 148.447 105 151.857C105 155.751 101.74 159 97.6 159H70.575C65.7886 159 62 155.236 62 150.714C62 147.139 64.3552 144.048 67.7122 142.899L69.1199 142.418L69.0632 140.931C69.0557 140.732 69.05 140.577 69.05 140.429C69.05 135.271 73.36 131 78.8 131C82.4379 131 85.5862 132.918 87.2657 135.749L88.3309 137.544L90.0789 136.403C90.878 135.882 91.8509 135.571 92.9 135.571C95.7403 135.571 97.95 137.799 97.95 140.429C97.95 141.04 97.8315 141.628 97.6192 142.167Z" stroke="#63B4E1" stroke-width="4"/>
<path d="M501.86 206L481.86 194.453V217.547L501.86 206ZM349 208C349.113 208 349.225 208 349.338 208C349.45 208 349.563 208 349.675 208C349.787 208 349.899 208 350.011 208C350.123 208 350.235 208 350.347 208C350.458 208 350.57 208 350.681 208C350.793 208 350.904 208 351.016 208C351.127 208 351.238 208 351.349 208C351.46 208 351.571 208 351.682 208C351.792 208 351.903 208 352.014 208C352.124 208 352.235 208 352.345 208C352.455 208 352.565 208 352.676 208C352.786 208 352.896 208 353.005 208C353.115 208 353.225 208 353.335 208C353.444 208 353.554 208 353.663 208C353.772 208 353.882 208 353.991 208C354.1 208 354.209 208 354.318 208C354.427 208 354.536 208 354.644 208C354.753 208 354.862 208 354.97 208C355.078 208 355.187 208 355.295 208C355.403 208 355.511 208 355.619 208C355.727 208 355.835 208 355.943 208C356.051 208 356.159 208 356.266 208C356.374 208 356.481 208 356.588 208C356.696 208 356.803 208 356.91 208C357.017 208 357.124 208 357.231 208C357.338 208 357.445 208 357.551 208C357.658 208 357.765 208 357.871 208C357.977 208 358.084 208 358.19 208C358.296 208 358.402 208 358.508 208C358.614 208 358.72 208 358.826 208C358.932 208 359.037 208 359.143 208C359.249 208 359.354 208 359.459 208C359.565 208 359.67 208 359.775 208C359.88 208 359.985 208 360.09 208C360.195 208 360.3 208 360.405 208C360.509 208 360.614 208 360.718 208C360.823 208 360.927 208 361.032 208C361.136 208 361.24 208 361.344 208C361.448 208 361.552 208 361.656 208C361.76 208 361.864 208 361.967 208C362.071 208 362.174 208 362.278 208C362.381 208 362.485 208 362.588 208C362.691 208 362.794 208 362.897 208C363 208 363.103 208 363.206 208C363.309 208 363.412 208 363.514 208C363.617 208 363.719 208 363.822 208C363.924 208 364.026 208 364.129 208C364.231 208 364.333 208 364.435 208C364.537 208 364.639 208 364.741 208C364.842 208 364.944 208 365.046 208C365.147 208 365.249 208 365.35 208C365.452 208 365.553 208 365.654 208C365.755 208 365.856 208 365.957 208C366.058 208 366.159 208 366.26 208C366.361 208 366.462 208 366.562 208C366.663 208 366.763 208 366.864 208C366.964 208 367.065 208 367.165 208C367.265 208 367.365 208 367.465 208C367.565 208 367.665 208 367.765 208C367.865 208 367.964 208 368.064 208C368.164 208 368.263 208 368.363 208C368.462 208 368.562 208 368.661 208C368.76 208 368.859 208 368.958 208C369.057 208 369.156 208 369.255 208C369.354 208 369.453 208 369.552 208C369.65 208 369.749 208 369.847 208C369.946 208 370.044 208 370.143 208C370.241 208 370.339 208 370.437 208C370.535 208 370.633 208 370.731 208C370.829 208 370.927 208 371.025 208C371.123 208 371.22 208 371.318 208C371.415 208 371.513 208 371.61 208C371.708 208 371.805 208 371.902 208C371.999 208 372.097 208 372.194 208C372.291 208 372.388 208 372.484 208C372.581 208 372.678 208 372.775 208C372.871 208 372.968 208 373.064 208C373.161 208 373.257 208 373.354 208C373.45 208 373.546 208 373.642 208C373.739 208 373.835 208 373.931 208C374.027 208 374.122 208 374.218 208C374.314 208 374.41 208 374.505 208C374.601 208 374.696 208 374.792 208C374.887 208 374.983 208 375.078 208C375.173 208 375.268 208 375.364 208C375.459 208 375.554 208 375.649 208C375.744 208 375.838 208 375.933 208C376.028 208 376.123 208 376.217 208C376.312 208 376.406 208 376.501 208C376.595 208 376.689 208 376.784 208C376.878 208 376.972 208 377.066 208C377.16 208 377.254 208 377.348 208C377.442 208 377.536 208 377.63 208C377.724 208 377.817 208 377.911 208C378.005 208 378.098 208 378.191 208C378.285 208 378.378 208 378.472 208C378.565 208 378.658 208 378.751 208C378.844 208 378.937 208 379.03 208C379.123 208 379.216 208 379.309 208C379.402 208 379.494 208 379.587 208C379.68 208 379.772 208 379.865 208C379.957 208 380.05 208 380.142 208C380.234 208 380.327 208 380.419 208C380.511 208 380.603 208 380.695 208C380.787 208 380.879 208 380.971 208C381.063 208 381.154 208 381.246 208C381.338 208 381.43 208 381.521 208C381.613 208 381.704 208 381.796 208C381.887 208 381.978 208 382.07 208C382.161 208 382.252 208 382.343 208C382.434 208 382.525 208 382.616 208C382.707 208 382.798 208 382.889 208C382.98 208 383.07 208 383.161 208C383.252 208 383.342 208 383.433 208C383.523 208 383.614 208 383.704 208C383.794 208 383.885 208 383.975 208C384.065 208 384.155 208 384.245 208C384.336 208 384.426 208 384.515 208C384.605 208 384.695 208 384.785 208C384.875 208 384.965 208 385.054 208C385.144 208 385.234 208 385.323 208C385.413 208 385.502 208 385.591 208C385.681 208 385.77 208 385.859 208C385.949 208 386.038 208 386.127 208C386.216 208 386.305 208 386.394 208C386.483 208 386.572 208 386.661 208C386.749 208 386.838 208 386.927 208C387.016 208 387.104 208 387.193 208C387.281 208 387.37 208 387.458 208C387.547 208 387.635 208 387.723 208C387.812 208 387.9 208 387.988 208C388.076 208 388.164 208 388.252 208C388.34 208 388.428 208 388.516 208C388.604 208 388.692 208 388.78 208C388.867 208 388.955 208 389.043 208C389.13 208 389.218 208 389.306 208C389.393 208 389.481 208 389.568 208C389.655 208 389.743 208 389.83 208C389.917 208 390.004 208 390.091 208C390.179 208 390.266 208 390.353 208C390.44 208 390.527 208 390.614 208C390.7 208 390.787 208 390.874 208C390.961 208 391.048 208 391.134 208C391.221 208 391.307 208 391.394 208C391.48 208 391.567 208 391.653 208C391.74 208 391.826 208 391.912 208C391.999 208 392.085 208 392.171 208C392.257 208 392.343 208 392.429 208C392.515 208 392.601 208 392.687 208C392.773 208 392.859 208 392.945 208C393.031 208 393.117 208 393.202 208C393.288 208 393.374 208 393.459 208C393.545 208 393.63 208 393.716 208C393.801 208 393.887 208 393.972 208C394.058 208 394.143 208 394.228 208C394.313 208 394.399 208 394.484 208C394.569 208 394.654 208 394.739 208C394.824 208 394.909 208 394.994 208C395.079 208 395.164 208 395.249 208C395.333 208 395.418 208 395.503 208C395.588 208 395.672 208 395.757 208C395.842 208 395.926 208 396.011 208C396.095 208 396.18 208 396.264 208C396.348 208 396.433 208 396.517 208C396.601 208 396.686 208 396.77 208C396.854 208 396.938 208 397.022 208C397.106 208 397.19 208 397.274 208C397.358 208 397.442 208 397.526 208C397.61 208 397.694 208 397.778 208C397.861 208 397.945 208 398.029 208C398.113 208 398.196 208 398.28 208C398.363 208 398.447 208 398.53 208C398.614 208 398.697 208 398.781 208C398.864 208 398.948 208 399.031 208C399.114 208 399.197 208 399.281 208C399.364 208 399.447 208 399.53 208C399.613 208 399.696 208 399.779 208C399.862 208 399.945 208 400.028 208C400.111 208 400.194 208 400.277 208C400.36 208 400.443 208 400.525 208C400.608 208 400.691 208 400.774 208C400.856 208 400.939 208 401.022 208C401.104 208 401.187 208 401.269 208C401.352 208 401.434 208 401.516 208C401.599 208 401.681 208 401.764 208C401.846 208 401.928 208 402.01 208C402.093 208 402.175 208 402.257 208C402.339 208 402.421 208 402.503 208C402.585 208 402.667 208 402.749 208C402.831 208 402.913 208 402.995 208C403.077 208 403.159 208 403.241 208C403.323 208 403.405 208 403.486 208C403.568 208 403.65 208 403.731 208C403.813 208 403.895 208 403.976 208C404.058 208 404.139 208 404.221 208C404.303 208 404.384 208 404.465 208C404.547 208 404.628 208 404.71 208C404.791 208 404.872 208 404.954 208C405.035 208 405.116 208 405.197 208C405.279 208 405.36 208 405.441 208C405.522 208 405.603 208 405.684 208C405.765 208 405.846 208 405.927 208C406.008 208 406.089 208 406.17 208C406.251 208 406.332 208 406.413 208C406.494 208 406.575 208 406.655 208C406.736 208 406.817 208 406.898 208C406.979 208 407.059 208 407.14 208C407.221 208 407.301 208 407.382 208C407.462 208 407.543 208 407.623 208C407.704 208 407.784 208 407.865 208C407.945 208 408.026 208 408.106 208C408.187 208 408.267 208 408.347 208C408.428 208 408.508 208 408.588 208C408.669 208 408.749 208 408.829 208C408.909 208 408.989 208 409.07 208C409.15 208 409.23 208 409.31 208C409.39 208 409.47 208 409.55 208C409.63 208 409.71 208 409.79 208C409.87 208 409.95 208 410.03 208C410.11 208 410.19 208 410.27 208C410.35 208 410.43 208 410.509 208C410.589 208 410.669 208 410.749 208C410.829 208 410.908 208 410.988 208C411.068 208 411.147 208 411.227 208C411.307 208 411.386 208 411.466 208C411.546 208 411.625 208 411.705 208C411.784 208 411.864 208 411.943 208C412.023 208 412.102 208 412.182 208C412.261 208 412.341 208 412.42 208C412.5 208 412.579 208 412.658 208C412.738 208 412.817 208 412.896 208C412.976 208 413.055 208 413.134 208C413.213 208 413.293 208 413.372 208C413.451 208 413.53 208 413.61 208C413.689 208 413.768 208 413.847 208C413.926 208 414.005 208 414.084 208C414.164 208 414.243 208 414.322 208C414.401 208 414.48 208 414.559 208C414.638 208 414.717 208 414.796 208C414.875 208 414.954 208 415.033 208C415.112 208 415.191 208 415.27 208C415.348 208 415.427 208 415.506 208C415.585 208 415.664 208 415.743 208C415.822 208 415.9 208 415.979 208C416.058 208 416.137 208 416.216 208C416.294 208 416.373 208 416.452 208C416.531 208 416.609 208 416.688 208C416.767 208 416.845 208 416.924 208C417.003 208 417.081 208 417.16 208C417.239 208 417.317 208 417.396 208C417.474 208 417.553 208 417.632 208C417.71 208 417.789 208 417.867 208C417.946 208 418.024 208 418.103 208C418.182 208 418.26 208 418.339 208C418.417 208 418.496 208 418.574 208C418.652 208 418.731 208 418.809 208C418.888 208 418.966 208 419.045 208C419.123 208 419.202 208 419.28 208C419.358 208 419.437 208 419.515 208C419.593 208 419.672 208 419.75 208C419.829 208 419.907 208 419.985 208C420.064 208 420.142 208 420.22 208C420.299 208 420.377 208 420.455 208C420.533 208 420.612 208 420.69 208C420.768 208 420.847 208 420.925 208C421.003 208 421.081 208 421.16 208C421.238 208 421.316 208 421.394 208C421.473 208 421.551 208 421.629 208C421.707 208 421.786 208 421.864 208C421.942 208 422.02 208 422.098 208C422.177 208 422.255 208 422.333 208C422.411 208 422.489 208 422.567 208C422.646 208 422.724 208 422.802 208C422.88 208 422.958 208 423.036 208C423.115 208 423.193 208 423.271 208C423.349 208 423.427 208 423.505 208C423.583 208 423.662 208 423.74 208C423.818 208 423.896 208 423.974 208C424.052 208 424.13 208 424.208 208C424.287 208 424.365 208 424.443 208C424.521 208 424.599 208 424.677 208C424.755 208 424.833 208 424.911 208C424.99 208 425.068 208 425.146 208C425.224 208 425.302 208 425.38 208C425.458 208 425.536 208 425.614 208C425.693 208 425.771 208 425.849 208C425.927 208 426.005 208 426.083 208C426.161 208 426.239 208 426.317 208C426.396 208 426.474 208 426.552 208C426.63 208 426.708 208 426.786 208C426.864 208 426.942 208 427.021 208C427.099 208 427.177 208 427.255 208C427.333 208 427.411 208 427.489 208C427.568 208 427.646 208 427.724 208C427.802 208 427.88 208 427.958 208C428.036 208 428.115 208 428.193 208C428.271 208 428.349 208 428.427 208C428.505 208 428.584 208 428.662 208C428.74 208 428.818 208 428.896 208C428.975 208 429.053 208 429.131 208C429.209 208 429.287 208 429.366 208C429.444 208 429.522 208 429.6 208C429.679 208 429.757 208 429.835 208C429.913 208 429.992 208 430.07 208C430.148 208 430.227 208 430.305 208C430.383 208 430.461 208 430.54 208C430.618 208 430.696 208 430.775 208C430.853 208 430.931 208 431.01 208C431.088 208 431.166 208 431.245 208C431.323 208 431.402 208 431.48 208C431.558 208 431.637 208 431.715 208C431.794 208 431.872 208 431.95 208C432.029 208 432.107 208 432.186 208C432.264 208 432.343 208 432.421 208C432.5 208 432.578 208 432.657 208C432.735 208 432.814 208 432.892 208C432.971 208 433.049 208 433.128 208C433.207 208 433.285 208 433.364 208C433.442 208 433.521 208 433.6 208C433.678 208 433.757 208 433.836 208C433.914 208 433.993 208 434.072 208C434.15 208 434.229 208 434.308 208C434.386 208 434.465 208 434.544 208C434.623 208 434.701 208 434.78 208C434.859 208 434.938 208 435.017 208C435.095 208 435.174 208 435.253 208C435.332 208 435.411 208 435.49 208C435.569 208 435.648 208 435.726 208C435.805 208 435.884 208 435.963 208C436.042 208 436.121 208 436.2 208C436.279 208 436.358 208 436.437 208C436.516 208 436.595 208 436.675 208C436.754 208 436.833 208 436.912 208C436.991 208 437.07 208 437.149 208C437.228 208 437.308 208 437.387 208C437.466 208 437.545 208 437.625 208C437.704 208 437.783 208 437.862 208C437.942 208 438.021 208 438.1 208C438.18 208 438.259 208 438.339 208C438.418 208 438.497 208 438.577 208C438.656 208 438.736 208 438.815 208C438.895 208 438.974 208 439.054 208C439.133 208 439.213 208 439.292 208C439.372 208 439.452 208 439.531 208C439.611 208 439.691 208 439.77 208C439.85 208 439.93 208 440.009 208C440.089 208 440.169 208 440.249 208C440.329 208 440.408 208 440.488 208C440.568 208 440.648 208 440.728 208C440.808 208 440.888 208 440.968 208C441.048 208 441.128 208 441.208 208C441.288 208 441.368 208 441.448 208C441.528 208 441.608 208 441.688 208C441.768 208 441.848 208 441.929 208C442.009 208 442.089 208 442.169 208C442.249 208 442.33 208 442.41 208C442.49 208 442.571 208 442.651 208C442.731 208 442.812 208 442.892 208C442.973 208 443.053 208 443.134 208C443.214 208 443.295 208 443.375 208C443.456 208 443.537 208 443.617 208C443.698 208 443.778 208 443.859 208C443.94 208 444.021 208 444.101 208C444.182 208 444.263 208 444.344 208C444.425 208 444.505 208 444.586 208C444.667 208 444.748 208 444.829 208C444.91 208 444.991 208 445.072 208C445.153 208 445.234 208 445.315 208C445.397 208 445.478 208 445.559 208C445.64 208 445.721 208 445.803 208C445.884 208 445.965 208 446.046 208C446.128 208 446.209 208 446.291 208C446.372 208 446.453 208 446.535 208C446.616 208 446.698 208 446.779 208C446.861 208 446.943 208 447.024 208C447.106 208 447.188 208 447.269 208C447.351 208 447.433 208 447.515 208C447.596 208 447.678 208 447.76 208C447.842 208 447.924 208 448.006 208C448.088 208 448.17 208 448.252 208C448.334 208 448.416 208 448.498 208C448.58 208 448.662 208 448.745 208C448.827 208 448.909 208 448.991 208C449.074 208 449.156 208 449.238 208C449.321 208 449.403 208 449.486 208C449.568 208 449.651 208 449.733 208C449.816 208 449.898 208 449.981 208C450.063 208 450.146 208 450.229 208C450.312 208 450.394 208 450.477 208C450.56 208 450.643 208 450.726 208C450.809 208 450.892 208 450.975 208C451.058 208 451.141 208 451.224 208C451.307 208 451.39 208 451.473 208C451.556 208 451.639 208 451.723 208C451.806 208 451.889 208 451.973 208C452.056 208 452.139 208 452.223 208C452.306 208 452.39 208 452.473 208C452.557 208 452.641 208 452.724 208C452.808 208 452.892 208 452.975 208C453.059 208 453.143 208 453.227 208C453.311 208 453.395 208 453.478 208C453.562 208 453.646 208 453.73 208C453.815 208 453.899 208 453.983 208C454.067 208 454.151 208 454.235 208C454.32 208 454.404 208 454.488 208C454.573 208 454.657 208 454.742 208C454.826 208 454.91 208 454.995 208C455.08 208 455.164 208 455.249 208C455.334 208 455.418 208 455.503 208C455.588 208 455.673 208 455.758 208C455.842 208 455.927 208 456.012 208C456.097 208 456.182 208 456.268 208C456.353 208 456.438 208 456.523 208C456.608 208 456.693 208 456.779 208C456.864 208 456.95 208 457.035 208C457.12 208 457.206 208 457.291 208C457.377 208 457.463 208 457.548 208C457.634 208 457.72 208 457.805 208C457.891 208 457.977 208 458.063 208C458.149 208 458.235 208 458.321 208C458.407 208 458.493 208 458.579 208C458.665 208 458.751 208 458.837 208C458.924 208 459.01 208 459.096 208C459.183 208 459.269 208 459.356 208C459.442 208 459.529 208 459.615 208C459.702 208 459.788 208 459.875 208C459.962 208 460.049 208 460.135 208C460.222 208 460.309 208 460.396 208C460.483 208 460.57 208 460.657 208C460.744 208 460.832 208 460.919 208C461.006 208 461.093 208 461.181 208C461.268 208 461.355 208 461.443 208C461.53 208 461.618 208 461.705 208C461.793 208 461.881 208 461.968 208C462.056 208 462.144 208 462.232 208C462.319 208 462.407 208 462.495 208C462.583 208 462.671 208 462.759 208C462.848 208 462.936 208 463.024 208C463.112 208 463.201 208 463.289 208C463.377 208 463.466 208 463.554 208C463.643 208 463.731 208 463.82 208C463.909 208 463.997 208 464.086 208C464.175 208 464.264 208 464.353 208C464.441 208 464.53 208 464.619 208C464.708 208 464.798 208 464.887 208C464.976 208 465.065 208 465.155 208C465.244 208 465.333 208 465.423 208C465.512 208 465.602 208 465.691 208C465.781 208 465.871 208 465.96 208C466.05 208 466.14 208 466.23 208C466.32 208 466.41 208 466.5 208C466.59 208 466.68 208 466.77 208C466.86 208 466.95 208 467.041 208C467.131 208 467.221 208 467.312 208C467.402 208 467.493 208 467.583 208C467.674 208 467.765 208 467.855 208C467.946 208 468.037 208 468.128 208C468.219 208 468.31 208 468.401 208C468.492 208 468.583 208 468.674 208C468.765 208 468.856 208 468.948 208C469.039 208 469.131 208 469.222 208C469.314 208 469.405 208 469.497 208C469.588 208 469.68 208 469.772 208C469.864 208 469.956 208 470.048 208C470.139 208 470.232 208 470.324 208C470.416 208 470.508 208 470.6 208C470.692 208 470.785 208 470.877 208C470.97 208 471.062 208 471.155 208C471.247 208 471.34 208 471.433 208C471.525 208 471.618 208 471.711 208C471.804 208 471.897 208 471.99 208C472.083 208 472.176 208 472.269 208C472.363 208 472.456 208 472.549 208C472.643 208 472.736 208 472.83 208C472.923 208 473.017 208 473.11 208C473.204 208 473.298 208 473.392 208C473.486 208 473.58 208 473.674 208C473.768 208 473.862 208 473.956 208C474.05 208 474.144 208 474.239 208C474.333 208 474.428 208 474.522 208C474.617 208 474.711 208 474.806 208C474.901 208 474.995 208 475.09 208C475.185 208 475.28 208 475.375 208C475.47 208 475.565 208 475.66 208C475.756 208 475.851 208 475.946 208C476.042 208 476.137 208 476.233 208C476.328 208 476.424 208 476.52 208C476.615 208 476.711 208 476.807 208C476.903 208 476.999 208 477.095 208C477.191 208 477.287 208 477.383 208C477.48 208 477.576 208 477.672 208C477.769 208 477.865 208 477.962 208C478.058 208 478.155 208 478.252 208C478.349 208 478.446 208 478.543 208C478.639 208 478.737 208 478.834 208C478.931 208 479.028 208 479.125 208C479.223 208 479.32 208 479.418 208C479.515 208 479.613 208 479.71 208C479.808 208 479.906 208 480.004 208C480.102 208 480.199 208 480.298 208C480.396 208 480.494 208 480.592 208C480.69 208 480.789 208 480.887 208C480.985 208 481.084 208 481.182 208C481.281 208 481.38 208 481.479 208C481.577 208 481.676 208 481.775 208C481.874 208 481.973 208 482.072 208C482.172 208 482.271 208 482.37 208C482.47 208 482.569 208 482.669 208C482.768 208 482.868 208 482.968 208C483.067 208 483.167 208 483.267 208C483.367 208 483.467 208 483.567 208C483.667 208 483.768 208 483.868 208V204C483.768 204 483.667 204 483.567 204C483.467 204 483.367 204 483.267 204C483.167 204 483.067 204 482.968 204C482.868 204 482.768 204 482.669 204C482.569 204 482.47 204 482.37 204C482.271 204 482.172 204 482.072 204C481.973 204 481.874 204 481.775 204C481.676 204 481.577 204 481.479 204C481.38 204 481.281 204 481.182 204C481.084 204 480.985 204 480.887 204C480.789 204 480.69 204 480.592 204C480.494 204 480.396 204 480.298 204C480.199 204 480.102 204 480.004 204C479.906 204 479.808 204 479.71 204C479.613 204 479.515 204 479.418 204C479.32 204 479.223 204 479.125 204C479.028 204 478.931 204 478.834 204C478.737 204 478.639 204 478.543 204C478.446 204 478.349 204 478.252 204C478.155 204 478.058 204 477.962 204C477.865 204 477.769 204 477.672 204C477.576 204 477.48 204 477.383 204C477.287 204 477.191 204 477.095 204C476.999 204 476.903 204 476.807 204C476.711 204 476.615 204 476.52 204C476.424 204 476.328 204 476.233 204C476.137 204 476.042 204 475.946 204C475.851 204 475.756 204 475.66 204C475.565 204 475.47 204 475.375 204C475.28 204 475.185 204 475.09 204C474.995 204 474.901 204 474.806 204C474.711 204 474.617 204 474.522 204C474.428 204 474.333 204 474.239 204C474.144 204 474.05 204 473.956 204C473.862 204 473.768 204 473.674 204C473.58 204 473.486 204 473.392 204C473.298 204 473.204 204 473.11 204C473.017 204 472.923 204 472.83 204C472.736 204 472.643 204 472.549 204C472.456 204 472.363 204 472.269 204C472.176 204 472.083 204 471.99 204C471.897 204 471.804 204 471.711 204C471.618 204 471.525 204 471.433 204C471.34 204 471.247 204 471.155 204C471.062 204 470.97 204 470.877 204C470.785 204 470.692 204 470.6 204C470.508 204 470.416 204 470.324 204C470.232 204 470.139 204 470.048 204C469.956 204 469.864 204 469.772 204C469.68 204 469.588 204 469.497 204C469.405 204 469.314 204 469.222 204C469.131 204 469.039 204 468.948 204C468.856 204 468.765 204 468.674 204C468.583 204 468.492 204 468.401 204C468.31 204 468.219 204 468.128 204C468.037 204 467.946 204 467.855 204C467.765 204 467.674 204 467.583 204C467.493 204 467.402 204 467.312 204C467.221 204 467.131 204 467.041 204C466.95 204 466.86 204 466.77 204C466.68 204 466.59 204 466.5 204C466.41 204 466.32 204 466.23 204C466.14 204 466.05 204 465.96 204C465.871 204 465.781 204 465.691 204C465.602 204 465.512 204 465.423 204C465.333 204 465.244 204 465.155 204C465.065 204 464.976 204 464.887 204C464.798 204 464.708 204 464.619 204C464.53 204 464.441 204 464.353 204C464.264 204 464.175 204 464.086 204C463.997 204 463.909 204 463.82 204C463.731 204 463.643 204 463.554 204C463.466 204 463.377 204 463.289 204C463.201 204 463.112 204 463.024 204C462.936 204 462.848 204 462.759 204C462.671 204 462.583 204 462.495 204C462.407 204 462.319 204 462.232 204C462.144 204 462.056 204 461.968 204C461.881 204 461.793 204 461.705 204C461.618 204 461.53 204 461.443 204C461.355 204 461.268 204 461.181 204C461.093 204 461.006 204 460.919 204C460.832 204 460.744 204 460.657 204C460.57 204 460.483 204 460.396 204C460.309 204 460.222 204 460.135 204C460.049 204 459.962 204 459.875 204C459.788 204 459.702 204 459.615 204C459.529 204 459.442 204 459.356 204C459.269 204 459.183 204 459.096 204C459.01 204 458.924 204 458.837 204C458.751 204 458.665 204 458.579 204C458.493 204 458.407 204 458.321 204C458.235 204 458.149 204 458.063 204C457.977 204 457.891 204 457.805 204C457.72 204 457.634 204 457.548 204C457.463 204 457.377 204 457.291 204C457.206 204 457.12 204 457.035 204C456.95 204 456.864 204 456.779 204C456.693 204 456.608 204 456.523 204C456.438 204 456.353 204 456.268 204C456.182 204 456.097 204 456.012 204C455.927 204 455.842 204 455.758 204C455.673 204 455.588 204 455.503 204C455.418 204 455.334 204 455.249 204C455.164 204 455.08 204 454.995 204C454.91 204 454.826 204 454.742 204C454.657 204 454.573 204 454.488 204C454.404 204 454.32 204 454.235 204C454.151 204 454.067 204 453.983 204C453.899 204 453.815 204 453.73 204C453.646 204 453.562 204 453.478 204C453.395 204 453.311 204 453.227 204C453.143 204 453.059 204 452.975 204C452.892 204 452.808 204 452.724 204C452.641 204 452.557 204 452.473 204C452.39 204 452.306 204 452.223 204C452.139 204 452.056 204 451.973 204C451.889 204 451.806 204 451.723 204C451.639 204 451.556 204 451.473 204C451.39 204 451.307 204 451.224 204C451.141 204 451.058 204 450.975 204C450.892 204 450.809 204 450.726 204C450.643 204 450.56 204 450.477 204C450.394 204 450.312 204 450.229 204C450.146 204 450.063 204 449.981 204C449.898 204 449.816 204 449.733 204C449.651 204 449.568 204 449.486 204C449.403 204 449.321 204 449.238 204C449.156 204 449.074 204 448.991 204C448.909 204 448.827 204 448.745 204C448.662 204 448.58 204 448.498 204C448.416 204 448.334 204 448.252 204C448.17 204 448.088 204 448.006 204C447.924 204 447.842 204 447.76 204C447.678 204 447.596 204 447.515 204C447.433 204 447.351 204 447.269 204C447.188 204 447.106 204 447.024 204C446.943 204 446.861 204 446.779 204C446.698 204 446.616 204 446.535 204C446.453 204 446.372 204 446.291 204C446.209 204 446.128 204 446.046 204C445.965 204 445.884 204 445.803 204C445.721 204 445.64 204 445.559 204C445.478 204 445.397 204 445.315 204C445.234 204 445.153 204 445.072 204C444.991 204 444.91 204 444.829 204C444.748 204 444.667 204 444.586 204C444.505 204 444.425 204 444.344 204C444.263 204 444.182 204 444.101 204C444.021 204 443.94 204 443.859 204C443.778 204 443.698 204 443.617 204C443.537 204 443.456 204 443.375 204C443.295 204 443.214 204 443.134 204C443.053 204 442.973 204 442.892 204C442.812 204 442.731 204 442.651 204C442.571 204 442.49 204 442.41 204C442.33 204 442.249 204 442.169 204C442.089 204 442.009 204 441.929 204C441.848 204 441.768 204 441.688 204C441.608 204 441.528 204 441.448 204C441.368 204 441.288 204 441.208 204C441.128 204 441.048 204 440.968 204C440.888 204 440.808 204 440.728 204C440.648 204 440.568 204 440.488 204C440.408 204 440.329 204 440.249 204C440.169 204 440.089 204 440.009 204C439.93 204 439.85 204 439.77 204C439.691 204 439.611 204 439.531 204C439.452 204 439.372 204 439.292 204C439.213 204 439.133 204 439.054 204C438.974 204 438.895 204 438.815 204C438.736 204 438.656 204 438.577 204C438.497 204 438.418 204 438.339 204C438.259 204 438.18 204 438.1 204C438.021 204 437.942 204 437.862 204C437.783 204 437.704 204 437.625 204C437.545 204 437.466 204 437.387 204C437.308 204 437.228 204 437.149 204C437.07 204 436.991 204 436.912 204C436.833 204 436.754 204 436.675 204C436.595 204 436.516 204 436.437 204C436.358 204 436.279 204 436.2 204C436.121 204 436.042 204 435.963 204C435.884 204 435.805 204 435.726 204C435.648 204 435.569 204 435.49 204C435.411 204 435.332 204 435.253 204C435.174 204 435.095 204 435.017 204C434.938 204 434.859 204 434.78 204C434.701 204 434.623 204 434.544 204C434.465 204 434.386 204 434.308 204C434.229 204 434.15 204 434.072 204C433.993 204 433.914 204 433.836 204C433.757 204 433.678 204 433.6 204C433.521 204 433.442 204 433.364 204C433.285 204 433.207 204 433.128 204C433.049 204 432.971 204 432.892 204C432.814 204 432.735 204 432.657 204C432.578 204 432.5 204 432.421 204C432.343 204 432.264 204 432.186 204C432.107 204 432.029 204 431.95 204C431.872 204 431.794 204 431.715 204C431.637 204 431.558 204 431.48 204C431.402 204 431.323 204 431.245 204C431.166 204 431.088 204 431.01 204C430.931 204 430.853 204 430.775 204C430.696 204 430.618 204 430.54 204C430.461 204 430.383 204 430.305 204C430.227 204 430.148 204 430.07 204C429.992 204 429.913 204 429.835 204C429.757 204 429.679 204 429.6 204C429.522 204 429.444 204 429.366 204C429.287 204 429.209 204 429.131 204C429.053 204 428.975 204 428.896 204C428.818 204 428.74 204 428.662 204C428.584 204 428.505 204 428.427 204C428.349 204 428.271 204 428.193 204C428.115 204 428.036 204 427.958 204C427.88 204 427.802 204 427.724 204C427.646 204 427.568 204 427.489 204C427.411 204 427.333 204 427.255 204C427.177 204 427.099 204 427.021 204C426.942 204 426.864 204 426.786 204C426.708 204 426.63 204 426.552 204C426.474 204 426.396 204 426.317 204C426.239 204 426.161 204 426.083 204C426.005 204 425.927 204 425.849 204C425.771 204 425.693 204 425.614 204C425.536 204 425.458 204 425.38 204C425.302 204 425.224 204 425.146 204C425.068 204 424.99 204 424.911 204C424.833 204 424.755 204 424.677 204C424.599 204 424.521 204 424.443 204C424.365 204 424.287 204 424.208 204C424.13 204 424.052 204 423.974 204C423.896 204 423.818 204 423.74 204C423.662 204 423.583 204 423.505 204C423.427 204 423.349 204 423.271 204C423.193 204 423.115 204 423.036 204C422.958 204 422.88 204 422.802 204C422.724 204 422.646 204 422.567 204C422.489 204 422.411 204 422.333 204C422.255 204 422.177 204 422.098 204C422.02 204 421.942 204 421.864 204C421.786 204 421.707 204 421.629 204C421.551 204 421.473 204 421.394 204C421.316 204 421.238 204 421.16 204C421.081 204 421.003 204 420.925 204C420.847 204 420.768 204 420.69 204C420.612 204 420.533 204 420.455 204C420.377 204 420.299 204 420.22 204C420.142 204 420.064 204 419.985 204C419.907 204 419.829 204 419.75 204C419.672 204 419.593 204 419.515 204C419.437 204 419.358 204 419.28 204C419.202 204 419.123 204 419.045 204C418.966 204 418.888 204 418.809 204C418.731 204 418.652 204 418.574 204C418.496 204 418.417 204 418.339 204C418.26 204 418.182 204 418.103 204C418.024 204 417.946 204 417.867 204C417.789 204 417.71 204 417.632 204C417.553 204 417.474 204 417.396 204C417.317 204 417.239 204 417.16 204C417.081 204 417.003 204 416.924 204C416.845 204 416.767 204 416.688 204C416.609 204 416.531 204 416.452 204C416.373 204 416.294 204 416.216 204C416.137 204 416.058 204 415.979 204C415.9 204 415.822 204 415.743 204C415.664 204 415.585 204 415.506 204C415.427 204 415.348 204 415.27 204C415.191 204 415.112 204 415.033 204C414.954 204 414.875 204 414.796 204C414.717 204 414.638 204 414.559 204C414.48 204 414.401 204 414.322 204C414.243 204 414.164 204 414.084 204C414.005 204 413.926 204 413.847 204C413.768 204 413.689 204 413.61 204C413.53 204 413.451 204 413.372 204C413.293 204 413.213 204 413.134 204C413.055 204 412.976 204 412.896 204C412.817 204 412.738 204 412.658 204C412.579 204 412.5 204 412.42 204C412.341 204 412.261 204 412.182 204C412.102 204 412.023 204 411.943 204C411.864 204 411.784 204 411.705 204C411.625 204 411.546 204 411.466 204C411.386 204 411.307 204 411.227 204C411.147 204 411.068 204 410.988 204C410.908 204 410.829 204 410.749 204C410.669 204 410.589 204 410.509 204C410.43 204 410.35 204 410.27 204C410.19 204 410.11 204 410.03 204C409.95 204 409.87 204 409.79 204C409.71 204 409.63 204 409.55 204C409.47 204 409.39 204 409.31 204C409.23 204 409.15 204 409.07 204C408.989 204 408.909 204 408.829 204C408.749 204 408.669 204 408.588 204C408.508 204 408.428 204 408.347 204C408.267 204 408.187 204 408.106 204C408.026 204 407.945 204 407.865 204C407.784 204 407.704 204 407.623 204C407.543 204 407.462 204 407.382 204C407.301 204 407.221 204 407.14 204C407.059 204 406.979 204 406.898 204C406.817 204 406.736 204 406.655 204C406.575 204 406.494 204 406.413 204C406.332 204 406.251 204 406.17 204C406.089 204 406.008 204 405.927 204C405.846 204 405.765 204 405.684 204C405.603 204 405.522 204 405.441 204C405.36 204 405.279 204 405.197 204C405.116 204 405.035 204 404.954 204C404.872 204 404.791 204 404.71 204C404.628 204 404.547 204 404.465 204C404.384 204 404.303 204 404.221 204C404.139 204 404.058 204 403.976 204C403.895 204 403.813 204 403.731 204C403.65 204 403.568 204 403.486 204C403.405 204 403.323 204 403.241 204C403.159 204 403.077 204 402.995 204C402.913 204 402.831 204 402.749 204C402.667 204 402.585 204 402.503 204C402.421 204 402.339 204 402.257 204C402.175 204 402.093 204 402.01 204C401.928 204 401.846 204 401.764 204C401.681 204 401.599 204 401.516 204C401.434 204 401.352 204 401.269 204C401.187 204 401.104 204 401.022 204C400.939 204 400.856 204 400.774 204C400.691 204 400.608 204 400.525 204C400.443 204 400.36 204 400.277 204C400.194 204 400.111 204 400.028 204C399.945 204 399.862 204 399.779 204C399.696 204 399.613 204 399.53 204C399.447 204 399.364 204 399.281 204C399.197 204 399.114 204 399.031 204C398.948 204 398.864 204 398.781 204C398.697 204 398.614 204 398.53 204C398.447 204 398.363 204 398.28 204C398.196 204 398.113 204 398.029 204C397.945 204 397.861 204 397.778 204C397.694 204 397.61 204 397.526 204C397.442 204 397.358 204 397.274 204C397.19 204 397.106 204 397.022 204C396.938 204 396.854 204 396.77 204C396.686 204 396.601 204 396.517 204C396.433 204 396.348 204 396.264 204C396.18 204 396.095 204 396.011 204C395.926 204 395.842 204 395.757 204C395.672 204 395.588 204 395.503 204C395.418 204 395.333 204 395.249 204C395.164 204 395.079 204 394.994 204C394.909 204 394.824 204 394.739 204C394.654 204 394.569 204 394.484 204C394.399 204 394.313 204 394.228 204C394.143 204 394.058 204 393.972 204C393.887 204 393.801 204 393.716 204C393.63 204 393.545 204 393.459 204C393.374 204 393.288 204 393.202 204C393.117 204 393.031 204 392.945 204C392.859 204 392.773 204 392.687 204C392.601 204 392.515 204 392.429 204C392.343 204 392.257 204 392.171 204C392.085 204 391.999 204 391.912 204C391.826 204 391.74 204 391.653 204C391.567 204 391.48 204 391.394 204C391.307 204 391.221 204 391.134 204C391.048 204 390.961 204 390.874 204C390.787 204 390.7 204 390.614 204C390.527 204 390.44 204 390.353 204C390.266 204 390.179 204 390.091 204C390.004 204 389.917 204 389.83 204C389.743 204 389.655 204 389.568 204C389.481 204 389.393 204 389.306 204C389.218 204 389.13 204 389.043 204C388.955 204 388.867 204 388.78 204C388.692 204 388.604 204 388.516 204C388.428 204 388.34 204 388.252 204C388.164 204 388.076 204 387.988 204C387.9 204 387.812 204 387.723 204C387.635 204 387.547 204 387.458 204C387.37 204 387.281 204 387.193 204C387.104 204 387.016 204 386.927 204C386.838 204 386.749 204 386.661 204C386.572 204 386.483 204 386.394 204C386.305 204 386.216 204 386.127 204C386.038 204 385.949 204 385.859 204C385.77 204 385.681 204 385.591 204C385.502 204 385.413 204 385.323 204C385.234 204 385.144 204 385.054 204C384.965 204 384.875 204 384.785 204C384.695 204 384.605 204 384.515 204C384.426 204 384.336 204 384.245 204C384.155 204 384.065 204 383.975 204C383.885 204 383.794 204 383.704 204C383.614 204 383.523 204 383.433 204C383.342 204 383.252 204 383.161 204C383.07 204 382.98 204 382.889 204C382.798 204 382.707 204 382.616 204C382.525 204 382.434 204 382.343 204C382.252 204 382.161 204 382.07 204C381.978 204 381.887 204 381.796 204C381.704 204 381.613 204 381.521 204C381.43 204 381.338 204 381.246 204C381.154 204 381.063 204 380.971 204C380.879 204 380.787 204 380.695 204C380.603 204 380.511 204 380.419 204C380.327 204 380.234 204 380.142 204C380.05 204 379.957 204 379.865 204C379.772 204 379.68 204 379.587 204C379.494 204 379.402 204 379.309 204C379.216 204 379.123 204 379.03 204C378.937 204 378.844 204 378.751 204C378.658 204 378.565 204 378.472 204C378.378 204 378.285 204 378.191 204C378.098 204 378.005 204 377.911 204C377.817 204 377.724 204 377.63 204C377.536 204 377.442 204 377.348 204C377.254 204 377.16 204 377.066 204C376.972 204 376.878 204 376.784 204C376.689 204 376.595 204 376.501 204C376.406 204 376.312 204 376.217 204C376.123 204 376.028 204 375.933 204C375.838 204 375.744 204 375.649 204C375.554 204 375.459 204 375.364 204C375.268 204 375.173 204 375.078 204C374.983 204 374.887 204 374.792 204C374.696 204 374.601 204 374.505 204C374.41 204 374.314 204 374.218 204C374.122 204 374.027 204 373.931 204C373.835 204 373.739 204 373.642 204C373.546 204 373.45 204 373.354 204C373.257 204 373.161 204 373.064 204C372.968 204 372.871 204 372.775 204C372.678 204 372.581 204 372.484 204C372.388 204 372.291 204 372.194 204C372.097 204 371.999 204 371.902 204C371.805 204 371.708 204 371.61 204C371.513 204 371.415 204 371.318 204C371.22 204 371.123 204 371.025 204C370.927 204 370.829 204 370.731 204C370.633 204 370.535 204 370.437 204C370.339 204 370.241 204 370.143 204C370.044 204 369.946 204 369.847 204C369.749 204 369.65 204 369.552 204C369.453 204 369.354 204 369.255 204C369.156 204 369.057 204 368.958 204C368.859 204 368.76 204 368.661 204C368.562 204 368.462 204 368.363 204C368.263 204 368.164 204 368.064 204C367.964 204 367.865 204 367.765 204C367.665 204 367.565 204 367.465 204C367.365 204 367.265 204 367.165 204C367.065 204 366.964 204 366.864 204C366.763 204 366.663 204 366.562 204C366.462 204 366.361 204 366.26 204C366.159 204 366.058 204 365.957 204C365.856 204 365.755 204 365.654 204C365.553 204 365.452 204 365.35 204C365.249 204 365.147 204 365.046 204C364.944 204 364.842 204 364.741 204C364.639 204 364.537 204 364.435 204C364.333 204 364.231 204 364.129 204C364.026 204 363.924 204 363.822 204C363.719 204 363.617 204 363.514 204C363.412 204 363.309 204 363.206 204C363.103 204 363 204 362.897 204C362.794 204 362.691 204 362.588 204C362.485 204 362.381 204 362.278 204C362.174 204 362.071 204 361.967 204C361.864 204 361.76 204 361.656 204C361.552 204 361.448 204 361.344 204C361.24 204 361.136 204 361.032 204C360.927 204 360.823 204 360.718 204C360.614 204 360.509 204 360.405 204C360.3 204 360.195 204 360.09 204C359.985 204 359.88 204 359.775 204C359.67 204 359.565 204 359.459 204C359.354 204 359.249 204 359.143 204C359.037 204 358.932 204 358.826 204C358.72 204 358.614 204 358.508 204C358.402 204 358.296 204 358.19 204C358.084 204 357.977 204 357.871 204C357.765 204 357.658 204 357.551 204C357.445 204 357.338 204 357.231 204C357.124 204 357.017 204 356.91 204C356.803 204 356.696 204 356.588 204C356.481 204 356.374 204 356.266 204C356.159 204 356.051 204 355.943 204C355.835 204 355.727 204 355.619 204C355.511 204 355.403 204 355.295 204C355.187 204 355.078 204 354.97 204C354.862 204 354.753 204 354.644 204C354.536 204 354.427 204 354.318 204C354.209 204 354.1 204 353.991 204C353.882 204 353.772 204 353.663 204C353.554 204 353.444 204 353.335 204C353.225 204 353.115 204 353.005 204C352.896 204 352.786 204 352.676 204C352.565 204 352.455 204 352.345 204C352.235 204 352.124 204 352.014 204C351.903 204 351.792 204 351.682 204C351.571 204 351.46 204 351.349 204C351.238 204 351.127 204 351.016 204C350.904 204 350.793 204 350.681 204C350.57 204 350.458 204 350.347 204C350.235 204 350.123 204 350.011 204C349.899 204 349.787 204 349.675 204C349.563 204 349.45 204 349.338 204C349.225 204 349.113 204 349 204V208Z" fill="#B3E8FF"/>
<path d="M258 198L241.353 181.993L235.814 204.413L258 198ZM119 66C131.073 66 141.753 72.2625 151.806 82.4396C161.868 92.6257 171.079 106.507 180.214 121.283C189.302 135.984 198.326 151.591 207.901 164.901C217.467 178.199 227.784 189.504 239.623 195.468L241.423 191.896C230.474 186.38 220.621 175.735 211.148 162.565C201.682 149.407 192.796 134.029 183.616 119.179C174.482 104.405 165.065 90.1704 154.652 79.6286C144.229 69.0778 132.586 62 119 62V66Z" fill="#B3E8FF"/>
<path d="M258 198L239.251 184.516L236.948 207.495L258 198ZM119 147C143.974 147 162.51 157.211 180.664 168.815C198.726 180.36 216.584 193.441 239.689 198.164L240.49 194.245C218.296 189.708 201.186 177.186 182.818 165.444C164.54 153.761 145.181 143 119 143V147Z" fill="#B3E8FF"/>
<path d="M258 198L238.644 210.597L237.413 187.536L258 198ZM119 224C144.144 224 162.87 218.549 181.043 212.428C199.204 206.311 216.97 199.458 239.816 196.972L240.249 200.948C217.937 203.377 200.653 210.044 182.32 216.219C164 222.389 144.789 228 119 228V224Z" fill="#B3E8FF"/>
<path d="M258 198L240.696 213.294L236.103 190.661L258 198ZM119 305C131.202 305 141.917 299.859 151.921 291.63C161.953 283.378 171.137 272.131 180.257 260.136C189.325 248.209 198.353 235.505 207.922 224.667C217.499 213.82 227.807 204.61 239.594 199.732L241.123 203.428C230.175 207.959 220.352 216.631 210.92 227.314C201.481 238.006 192.622 250.481 183.441 262.557C174.312 274.565 164.886 286.145 154.462 294.719C144.012 303.315 132.426 309 119 309V305Z" fill="#B3E8FF"/>
<defs>
<clipPath id="clip0">
<rect width="79" height="77" fill="white" transform="translate(264 167)"/>
</clipPath>
<clipPath id="clip1">
<rect width="38.5" height="42" fill="white" transform="translate(64 42.2178)"/>
</clipPath>
</defs>
</svg>
