<svg width="469" height="469" viewBox="0 0 469 469" fill="none" xmlns="http://www.w3.org/2000/svg">
<path fill-rule="evenodd" clip-rule="evenodd" d="M364.375 0L456.301 102.414C473.233 121.278 473.233 151.966 456.301 170.83L452.889 174.631L410.812 127.753C400.418 178.4 359.73 216.335 311.165 216.335H240.707C210.911 216.335 186.667 243.348 186.667 276.543V355.037C186.667 403.891 160.27 429.604 145.547 443.945C145.351 444.136 145.157 444.325 144.965 444.512C130.368 458.739 107.866 468.901 85.9713 468.901C64.0768 468.901 45.2233 459.416 37.9251 452.642C30.6269 445.867 20.8017 432.995 17.8552 427.576C13.8037 420.124 6.29974 405.897 0.826126 383.541C-4.64749 361.185 18.4633 344.249 29.4106 364.572C32.218 369.784 34.4655 374.15 36.3889 377.886C41.9656 388.718 44.8182 394.259 50.6969 399.8C58.6032 407.252 70.7668 413.349 85.9713 412.672C101.176 411.994 138.415 388.232 138.415 355.037V276.543C138.415 213.702 184.301 162.577 240.707 162.577H311.165C340.958 162.577 365.204 135.567 365.204 102.372V76.942L360.964 72.2173C344.031 53.3531 344.031 22.6614 360.964 3.80073L364.375 0ZM271.11 342.669V337.293C271.11 310.614 290.59 288.908 314.533 288.908H413.457V355.038C413.457 417.878 367.571 469 311.165 469H166.468C182.451 454.683 195.356 436.289 203.928 415.242H311.165C340.958 415.242 365.205 388.229 365.205 355.038V342.669H271.11Z" fill="#6090ED"/>
</svg>
