<?xml version="1.0" encoding="UTF-8" standalone="yes"?>
<svg width="500" height="500" viewBox="0 0 500 500" fill="none" version="1.2" baseProfile="tiny-ps" xmlns="http://www.w3.org/2000/svg">
  <title>bimi-svg-tiny-12-ps</title>
  <rect width="500" height="500" fill="white"/>
  <g>
    <path fill-rule="evenodd" d="M453.259 155.519L379.573 81.8758L376.839 84.6088C363.266 98.1711 363.266 120.241 376.839 133.806L380.238 137.203V155.489C380.238 179.359 360.803 198.781 336.922 198.781H280.444C235.231 198.781 198.45 235.544 198.45 280.731V337.174C198.45 361.044 179.017 380.469 155.134 380.469H70.8062C51.6141 380.469 35.9995 396.072 35.9995 415.258V419.125H155.134C200.344 419.125 237.128 382.364 237.128 337.174V280.731C237.128 256.861 256.561 237.437 280.444 237.437H336.922C375.85 237.437 408.464 210.159 416.796 173.74L450.524 207.449L453.259 204.716C466.831 191.151 466.831 169.084 453.259 155.519Z" fill="#29ABE2"/>
    <path fill-rule="evenodd" d="M304.815 324.416V328.282H380.238V337.175C380.238 361.043 360.803 380.467 336.922 380.467H250.964C244.092 395.602 233.749 408.828 220.936 419.123H336.922C382.135 419.123 418.916 382.363 418.916 337.175V289.624H339.621C320.429 289.624 304.815 305.232 304.815 324.416Z" fill="#29ABE2"/>
  </g>
  <defs/>
</svg>