<svg xmlns="http://www.w3.org/2000/svg" width="230" height="51" viewBox="0 0 230 51">
  <path fill="#F37021" d="M214.373171,19.4309023 C223.472977,19.4650615 230.033966,24.8223657 229.999868,33.0205782 C229.965503,43.6839477 220.483448,51.0338729 211.092677,50.9998323 C201.964345,50.9712477 195.420472,45.6708756 195.448905,37.415731 C195.488934,26.8092936 204.908232,19.4024363 214.361761,19.4365955 L214.361761,19.4365955 Z M38.9266306,2.84217094e-14 L51.1072486,11.2213034 L34.482274,22.5849368 L35.6233155,16.7664832 L21.2404875,16.7152444 C19.7286075,16.7095512 16.6021538,17.4553608 16.6021538,19.7838809 C16.5964486,21.2071817 18.889942,22.3913679 21.5428634,23.7691231 C26.1697867,26.1887344 32.5196826,29.456633 32.4854514,37.1595369 C32.4569254,44.9763048 25.2512483,51.0338729 16.0772747,50.9998574 L16.0772747,50.9998574 L3.55271368e-15,50.9427817 L2.23644133,40.1997073 L16.2712517,40.2509462 L16.2712517,40.2509462 L16.3265934,40.2504281 C16.865978,40.2413819 20.7840709,40.0765398 20.7840709,37.1196844 C20.7897761,35.7760885 18.5590399,34.5919023 15.9745809,33.2141471 C11.3647733,30.7432969 5.02058258,27.3558411 5.04340341,19.7212557 C5.07763466,10.7316879 13.5213417,5.93801087 21.4515801,5.93801087 L21.4515801,5.93801087 L37.7456527,5.9949429 L38.9266306,2.84217094e-14 Z M184.997058,19.3568907 C192.265492,19.3568907 196.378947,22.8240514 196.378947,22.8240514 L196.378947,22.8240514 L192.008758,29.7242136 C192.008758,29.7242136 189.492761,27.5323304 184.968532,27.5323304 C183.502293,27.5266372 181.676627,27.9593206 181.676627,29.0979612 L181.676627,29.0979612 L181.693743,29.1036544 C181.693743,31.4492541 193.674678,32.1096657 193.674678,41.2187907 C193.651858,47.0714035 188.471529,50.897236 180.895014,50.897236 C176.302284,50.8268085 171.857001,49.2682385 168.229453,46.4565376 L168.229453,46.4565376 L173.318498,39.9719792 C175.491229,41.6889836 178.169557,42.6452313 180.940655,42.6933303 C182.520998,42.6990235 184.23256,42.2378741 184.23256,41.1789383 C184.24397,38.4860532 172.26874,37.9736649 172.297266,29.0694952 C172.297266,23.205496 178.572994,19.3056518 184.997058,19.3568907 Z M154.263105,19.2258298 C163.362911,19.2601062 169.9239,24.6117172 169.895466,32.8156229 C169.855437,43.4789923 160.379087,50.8289176 150.982611,50.7948769 C141.882805,50.7605992 135.356047,45.4659202 135.356047,37.2050825 C135.390279,26.6271111 144.809576,19.1917878 154.263105,19.2258298 Z M127.762416,8.12420088 L137.923391,8.14697369 L129.610904,50.0090963 L120.100323,50.0090963 L120.516803,48.0164752 C120.528213,47.9570524 120.539601,47.8983858 120.550925,47.8406128 L120.617767,47.5058008 C120.759475,46.808382 120.876231,46.3085143 120.876231,46.3085143 L120.876231,46.3085143 L120.762127,46.3085143 C118.708969,49.0507584 115.480595,50.6668232 112.050275,50.6695079 C104.656326,50.6239623 100.326074,45.5456251 100.35446,37.6605387 C100.411652,26.4677014 108.398942,19.0608441 117.390349,19.1006965 C119.917756,19.1063897 123.306649,19.7668013 125.018212,21.8220476 L125.018212,21.8220476 L125.132316,21.8220476 C125.132316,21.8220476 125.195073,21.0420788 125.314882,20.4727585 L125.314882,20.4727585 L127.762416,8.12420088 Z M52.5506661,18.8558888 C61.125593,18.8843548 65.4273194,23.7634299 65.4273194,30.7376037 C65.3335462,32.7537915 64.9492536,34.7459908 64.2862779,36.6528418 L64.2862779,36.6528418 L45.2023589,36.5845234 C45.1909485,39.9833656 47.3589273,41.9930663 51.118659,41.9930663 C55.5459,42.0101459 60.110066,38.9813619 60.110066,38.9813619 L60.110066,38.9813619 L62.665999,46.553322 C62.665999,46.553322 57.2859883,50.4303934 50.4397393,50.4303934 C40.090493,50.390541 35.0356791,44.281734 35.0356791,37.1936961 C35.0699104,26.7011227 42.5551426,18.8217296 52.5335505,18.8672752 L52.5335505,18.8672752 Z M89.7885553,18.9925257 L89.7885553,19.0152985 C95.0145254,19.0608441 99.2763154,21.3381254 99.2763154,27.6006488 C99.234666,28.7233114 99.0914536,29.8399229 98.8484248,30.9368658 L98.8484248,30.9368658 L95.0829879,49.9123119 L84.9277186,49.8724595 L88.3964847,32.5423491 C88.498095,31.9610028 88.5572047,31.3730522 88.5733461,30.7831494 C88.5790513,28.9670176 87.7061546,28.1984351 85.8861934,28.1984351 C81.8925482,28.1870487 78.4694237,32.0982793 77.6307582,36.4877389 L77.6307582,36.4877389 L75.0006575,49.8383003 L64.8453882,49.804141 L70.8244457,19.6301644 L80.6259921,19.6586304 L80.3293213,21.1844089 C80.1247206,22.1920418 79.8657069,23.1879064 79.5534131,24.1676473 L79.5534131,24.1676473 L79.6732225,24.1676473 C81.3847847,21.4804554 85.6180487,18.9925257 89.7885553,18.9925257 L89.7885553,18.9925257 Z M214.213425,27.8739226 C210.21978,27.8739226 205.724035,31.4720269 205.724035,36.9830476 C205.712666,40.4957539 208.051801,42.5623866 211.286654,42.5623866 L211.286654,42.5623866 C215.337351,42.5851595 219.713287,39.1464648 219.713287,33.6354441 C219.724656,30.0601126 217.385521,27.8739226 214.213425,27.8739226 Z M154.120475,27.6575808 C150.121124,27.6575808 145.631085,31.2613784 145.631085,36.7667059 C145.619716,40.2851054 147.958851,42.3517381 151.187998,42.3517381 L151.187998,42.3517381 C155.238696,42.3745109 159.614631,38.930123 159.614631,33.4247956 C159.626,29.849464 157.29257,27.6575808 154.120475,27.6575808 Z M118.240425,27.6461658 C114.777364,27.634808 110.63533,31.0165707 110.63533,36.9375019 C110.623973,40.216787 112.438229,42.2834466 115.370706,42.2834466 C118.599853,42.2948061 122.918764,38.6910085 122.918764,32.9978054 C122.930106,30.1227378 121.53233,27.6461658 118.240425,27.6461658 Z M52.3338682,26.4733946 C49.4185072,26.4620082 47.5072627,28.392004 46.5659035,30.7888426 L46.5659035,30.7888426 L55.488848,30.8230018 C55.488848,30.8230018 55.551626,30.1170446 55.551626,29.764066 C55.5573104,27.8910022 54.3877429,26.4733946 52.3338682,26.4733946 Z"/>
</svg>
