<?xml version="1.0" encoding="UTF-8" standalone="no"?>
<svg
   xmlns:dc="http://purl.org/dc/elements/1.1/"
   xmlns:cc="http://creativecommons.org/ns#"
   xmlns:rdf="http://www.w3.org/1999/02/22-rdf-syntax-ns#"
   xmlns:svg="http://www.w3.org/2000/svg"
   xmlns="http://www.w3.org/2000/svg"
   viewBox="0 0 764.86639 240.60805"
   height="240.60805"
   width="764.86639"
   xml:space="preserve"
   id="svg2"
   version="1.1"><metadata
     id="metadata8"><rdf:RDF><cc:Work
         rdf:about=""><dc:format>image/svg+xml</dc:format><dc:type
           rdf:resource="http://purl.org/dc/dcmitype/StillImage" /></cc:Work></rdf:RDF></metadata><defs
     id="defs6" /><g
     transform="matrix(1.3333333,0,0,-1.3333333,0,255.60799)"
     id="g10"><g
       transform="scale(0.1)"
       id="g12"><path
         id="path14"
         style="fill:#100f0d;fill-opacity:1;fill-rule:nonzero;stroke:none"
         d="m 341.711,1665.48 c 99.156,67.61 280.352,64.23 325.945,64.23 45.59,0 509.554,0.59 509.554,0.59 v 186.76 c 0,0 -397.827,0 -464.796,0 -66.965,0 -333.418,0 -479.059,-99.3 C 155.438,1764.64 0,1642.57 0,1312.98 0,983.398 155.438,861.328 233.355,808.211 378.996,708.91 645.449,708.91 712.414,708.91 c 66.969,0 464.796,0 464.796,0 v 202.301 c 0,0 -463.753,-0.652 -509.343,-0.652 -45.594,0 -227,0 -326.156,67.601 -44.242,30.17 -125.152,93.06 -150.805,243.27 h 986.304 v 176.12 H 187.273 c 20.547,168.15 107.84,236.16 154.438,267.93" /><path
         id="path16"
         style="fill:#100f0d;fill-opacity:1;fill-rule:nonzero;stroke:none"
         d="m 2379.63,712.539 c 0,0 0.12,463.481 0.12,509.071 0,45.6 2.67,227.28 -64.94,326.44 -36.17,53.04 -119.27,158.87 -343.66,158.87 -224.39,0 -307.49,-105.83 -343.66,-158.87 -67.61,-99.16 -67.61,-280.57 -67.61,-326.16 0,-45.59 0.66,-509.351 0.66,-509.351 v 0 h -202.3 c 0,0 0,397.841 0,464.801 0,66.97 0,333.42 99.3,479.06 53.12,77.92 175.19,233.36 504.77,233.36 329.59,0 451.65,-155.44 504.78,-233.36 99.3,-145.64 99.3,-412.09 99.3,-479.06 0,-66.96 0,-464.801 0,-464.801 h -186.76 v 0" /><path
         id="path18"
         style="fill:#100f0d;fill-opacity:1;fill-rule:nonzero;stroke:none"
         d="m 5615.98,1719.29 c 0,0 -463.76,2.79 -509.35,2.79 -45.59,0 -227,0 -326.15,-67.61 -53.05,-36.17 -158.88,-119.27 -158.88,-343.66 0,-224.38 105.83,-307.49 158.88,-343.662 99.15,-67.609 280.56,-67.609 326.15,-67.609 45.59,0 509.35,0.66 509.35,0.66 v 0 -202.301 c 0,0 -397.83,0 -464.8,0 -66.97,0 -333.42,0 -479.06,99.301 -77.92,53.121 -233.36,175.188 -233.36,504.771 0,329.59 155.44,451.65 233.36,504.78 145.64,99.3 412.09,99.3 479.06,99.3 66.97,0 464.8,0 464.8,0 v -186.76 0" /><path
         id="path20"
         style="fill:#100f0d;fill-opacity:1;fill-rule:nonzero;stroke:none"
         d="M 2751.34,1917.06 V 712.539 h 176.12 V 1917.06 h -176.12" /><path
         id="path22"
         style="fill:#100f0d;fill-opacity:1;fill-rule:nonzero;stroke:none"
         d="m 4091.93,1917.06 c -115.6,0 -251.93,0 -288.68,0 -66.97,0 -333.42,0 -479.06,-99.3 -77.92,-53.12 -233.36,-175.19 -233.36,-504.78 0,-329.582 155.44,-451.652 233.36,-504.769 145.64,-99.301 412.09,-99.301 479.06,-99.301 4.77,0 11.22,0 19.08,0 l -0.3,201.692 c -25.88,-0.032 -55.89,-0.043 -63.33,-0.043 -45.59,0 -227,0 -326.16,67.601 -53.04,36.17 -158.87,119.27 -158.87,343.66 0,224.39 105.83,307.5 158.87,343.66 99.16,67.61 280.57,67.61 326.16,67.61 26.7,0 196.82,-0.95 333.23,-1.75 V 708.91 h 176.12 v 1021.39 186.76 c 0,0 -81.06,0 -176.12,0" /><path
         id="path24"
         style="fill:none;stroke:#100f0d;stroke-width:60;stroke-linecap:butt;stroke-linejoin:miter;stroke-miterlimit:10;stroke-dasharray:none;stroke-opacity:1"
         d="M 0,601.66 H 5615.98" /><g
         transform="scale(10)"
         id="g26"><text
           id="text30"
           style="font-variant:normal;font-weight:300;font-size:48px;font-family:AbadiMT;-inkscape-font-specification:AbadiMT-CondensedLight;writing-mode:lr-tb;fill:#100f0d;fill-opacity:1;fill-rule:nonzero;stroke:none"
           transform="matrix(1,0,0,-1,392.606,11.8359)"><tspan
             id="tspan28"
             y="0"
             x="0 21.504 42.528 66.528 86.015999 108.528 130.51199 151.536">VENTURES</tspan></text>
</g></g></g></svg>