<svg width="183" height="49" viewBox="0 0 183 49" fill="none" xmlns="http://www.w3.org/2000/svg">
<g clip-path="url(#clip0)">
<path d="M85.7268 26.2823L88.7308 16.9678H90.8492L86.5002 29.0957H84.9198L80.526 16.9678H82.6444L85.7268 26.2823ZM97.5521 27.6274C98.2918 27.6274 98.9382 27.4032 99.4912 26.9548C100.044 26.5065 100.351 25.946 100.41 25.2735H102.372C102.334 25.9685 102.095 26.6298 101.654 27.2575C101.214 27.8852 100.623 28.3858 99.8835 28.7594C99.1512 29.1331 98.374 29.3199 97.5521 29.3199C95.9006 29.3199 94.5855 28.7706 93.6066 27.6722C92.6351 26.5663 92.1494 25.0568 92.1494 23.1439V22.7964C92.1494 21.6157 92.3661 20.5658 92.7995 19.6467C93.2329 18.7276 93.8532 18.014 94.6602 17.5059C95.4747 16.9977 96.4349 16.7437 97.5408 16.7437C98.9008 16.7437 100.029 17.1509 100.926 17.9654C101.83 18.7799 102.312 19.8373 102.372 21.1375H100.41C100.351 20.3529 100.052 19.7102 99.5136 19.2096C98.983 18.7015 98.3255 18.4474 97.5408 18.4474C96.4872 18.4474 95.669 18.8285 95.0861 19.5907C94.5107 20.3454 94.2231 21.4401 94.2231 22.8748V23.2672C94.2231 24.6645 94.5107 25.7405 95.0861 26.4953C95.6615 27.25 96.4835 27.6274 97.5521 27.6274Z" fill="black"/>
<path d="M32.9843 15.7887H34.6102V22.2289C34.9482 21.6162 35.4691 21.1571 36.0517 20.7265C36.6651 20.2975 37.433 20.0838 38.3528 20.0838C39.028 20.0838 39.6098 20.1748 40.1013 20.3901C40.6222 20.6046 41.052 20.9117 41.4201 21.279C41.7573 21.6487 42.0644 22.1387 42.2489 22.6603C42.4325 23.212 42.5243 23.7653 42.5243 24.439V31.2481H40.9293V24.8672C40.9293 23.8564 40.6831 23.0585 40.1314 22.4759C39.6098 21.8624 38.8435 21.5869 37.8921 21.5869C37.4013 21.5869 37.0023 21.6796 36.5733 21.8323C36.1435 21.9859 35.8063 22.2012 35.53 22.5384C35.2538 22.8147 35.0084 23.2136 34.8247 23.611C34.6712 24.0416 34.5793 24.5007 34.5793 25.0224V31.2789H32.9535V15.7887H32.9843Z" fill="black"/>
<path d="M48.2284 31.4927C47.7067 31.4927 47.216 31.4325 46.7252 31.2781C46.2344 31.1554 45.8046 30.9417 45.4056 30.6354C45.0383 30.3583 44.7011 29.991 44.4858 29.5921C44.2713 29.1631 44.1486 28.6715 44.1486 28.1206V28.0588C44.1486 27.4454 44.2713 26.9554 44.4858 26.4939C44.7003 26.034 45.0383 25.6651 45.4373 25.3904C45.8663 25.1134 46.3571 24.8672 46.9088 24.7144C47.4922 24.5617 48.1358 24.4999 48.7809 24.4999C49.4862 24.4999 50.0996 24.5308 50.5896 24.6226C51.1121 24.7144 51.602 24.8063 52.0928 24.9598V24.6226C52.0928 23.6719 51.8174 22.9358 51.2348 22.4141C50.6514 21.8925 49.8543 21.6788 48.8418 21.6788C48.1991 21.6788 47.584 21.7397 47.0933 21.8925C46.5415 22.0152 46.0508 22.2004 45.5299 22.4751L45.0391 21.1263C45.6518 20.85 46.2661 20.6038 46.8787 20.421C47.4922 20.2674 48.2292 20.174 49.0263 20.174C50.5904 20.174 51.7865 20.603 52.5844 21.4017C53.3514 22.1688 53.7195 23.2112 53.7195 24.6218V31.3082H52.1253V29.6823C51.7564 30.1731 51.2355 30.6021 50.5912 31.0011C50.007 31.3082 49.2107 31.4927 48.2284 31.4927ZM48.5664 30.143C49.088 30.143 49.5479 30.0829 49.9777 29.9285C50.4068 29.7757 50.8049 29.5913 51.1129 29.3166C51.4192 29.0697 51.6947 28.734 51.8791 28.3952C52.0627 28.058 52.1554 27.629 52.1554 27.1984V26.1868C51.7263 26.0649 51.2965 25.9715 50.744 25.8796C50.2231 25.7894 49.6397 25.7284 48.9653 25.7284C47.9537 25.7284 47.1867 25.9113 46.6041 26.3403C46.0516 26.7694 45.7761 27.2609 45.7761 27.9361V27.9662C45.7761 28.305 45.8378 28.6113 45.9906 28.8852C46.1442 29.1631 46.3286 29.4069 46.6041 29.5612C46.8495 29.7457 47.1558 29.8691 47.4621 29.991C47.8611 30.1122 48.1983 30.143 48.5664 30.143Z" fill="black"/>
<path d="M61.1112 31.5235C60.3133 31.5235 59.5771 31.37 58.8719 31.0628C58.1967 30.7866 57.5832 30.3575 57.0924 29.8367C56.5708 29.3158 56.2027 28.7325 55.8963 28.0272C55.6201 27.3203 55.4673 26.6166 55.4673 25.848V25.8187C55.4673 25.0524 55.5892 24.3155 55.8963 23.6094C56.2035 22.9041 56.5716 22.2907 57.0924 21.7999C57.6141 21.2782 58.1658 20.8793 58.8719 20.5429C59.5471 20.2357 60.3133 20.083 61.1112 20.083C61.6321 20.083 62.092 20.1431 62.5218 20.2357C62.9516 20.3276 63.3197 20.4503 63.6569 20.664C63.9941 20.8492 64.3321 21.0336 64.6076 21.3091C64.8838 21.5545 65.191 21.7991 65.4363 22.0754L64.3638 23.2113C63.9031 22.7514 63.4424 22.3825 62.9215 22.0754C62.4007 21.7674 61.7864 21.5854 61.0503 21.5854C60.4985 21.5854 60.007 21.678 59.5162 21.8917C59.0262 22.1062 58.6273 22.4134 58.2584 22.7814C57.9212 23.1503 57.6148 23.6094 57.4304 24.1311C57.246 24.6527 57.1541 25.1736 57.1541 25.7886V25.8187C57.1541 26.4314 57.246 26.9546 57.4621 27.4754C57.6766 27.9955 57.9521 28.4253 58.3201 28.8243C58.6573 29.1924 59.1172 29.5304 59.608 29.7449C60.0988 29.9594 60.6204 30.0504 61.203 30.0504C61.9083 30.0504 62.5527 29.8969 63.0743 29.5604C63.5952 29.2224 64.0867 28.8551 64.5458 28.4253L65.5582 29.3752C65.0065 29.9895 64.363 30.4802 63.6878 30.9093C63.0134 31.4 62.1236 31.5235 61.1112 31.5235Z" fill="black"/>
<path d="M67.2142 15.7887H68.8401V26.4614L74.7603 20.2967H76.8144L72.2146 24.9899L76.9379 31.2465H74.9756L71.0494 26.125L68.81 28.3628V31.2156H67.1841V15.7879H67.2142V15.7887Z" fill="black"/>
<path d="M78.012 29.0388H79.9743V31.2774H78.012V29.0388Z" fill="black"/>
<path d="M113.641 34.1919C111.802 33.1494 110.36 31.8299 109.409 30.2966C108.457 28.7625 107.967 27.0448 107.967 25.1427C107.967 23.2421 108.457 21.5236 109.409 19.9896C110.36 18.4555 111.77 17.1676 113.641 16.0943L113.919 16.585C112.2 17.5974 110.882 18.8244 109.991 20.2959C109.102 21.7381 108.643 23.364 108.643 25.1728C108.643 26.9823 109.102 28.6098 109.991 30.0488C110.882 31.4911 112.2 32.718 113.919 33.7613L113.641 34.1919Z" fill="black"/>
<path d="M120.267 33.7629C121.985 32.7505 123.303 31.5235 124.193 30.0504C125.083 28.6113 125.543 26.9839 125.543 25.1743C125.543 23.3656 125.083 21.7397 124.193 20.2975C123.303 18.8568 121.985 17.6299 120.267 16.5866L120.545 16.0958C122.383 17.1383 123.824 18.4571 124.776 19.9911C125.726 21.5252 126.217 23.2429 126.217 25.1443C126.217 27.0456 125.726 28.7633 124.776 30.2982C123.824 31.8314 122.414 33.1201 120.545 34.1935L120.267 33.7629Z" fill="black"/>
<path d="M17.1746 16.3902C15.5812 17.2681 13.8952 18.4166 12.3366 19.9008C11.34 20.8499 10.5381 21.7721 9.89142 22.6357L5.94148 23.3307L1.30209 27.7493L5.43884 27.8728L8.35261 25.0991C7.32515 27.1271 7.23411 28.472 7.23411 28.472L8.53704 29.7116C8.53704 29.7116 9.99511 29.5802 12.1411 28.5915L9.16555 31.4206L9.29537 35.3594L13.9371 30.9433L14.6701 27.1643C15.5868 26.5524 16.5564 25.7933 17.5427 24.8553C19.1029 23.3703 20.3077 21.7666 21.2314 20.2499C20.2135 20.0536 19.2794 19.6499 18.5425 18.9502C17.8055 18.2473 17.3789 17.3583 17.1746 16.3902ZM18.7111 15.605C18.8227 16.5541 19.1536 17.318 19.7029 17.8388C20.2523 18.3652 21.0541 18.6802 22.0539 18.7839C23.5151 15.9739 23.9774 13.7757 23.9774 13.7757C23.9774 13.7757 21.6676 14.2142 18.7111 15.605Z" fill="black"/>
</g>
<defs>
<clipPath id="clip0">
<rect width="182.061" height="48.6641" fill="white"/>
</clipPath>
</defs>
</svg>
