<svg width="80" height="80" viewBox="0 0 80 80" fill="none" xmlns="http://www.w3.org/2000/svg">
<rect width="80" height="80" fill="white"/>
<path d="M30.9087 39.3687C29.8983 39.3687 29.0768 39.6625 28.447 40.2501C27.8171 40.8381 27.4976 41.6089 27.4976 42.5534C27.4976 43.0429 27.577 43.4891 27.7333 43.8981C27.8897 44.3078 28.133 44.6874 28.4601 45.0304C28.7872 45.3737 29.4419 45.8401 30.4176 46.433C31.615 47.1513 32.3985 47.7342 32.7746 48.1894C33.1509 48.6442 33.3376 49.1208 33.3376 49.6177C33.3376 50.283 33.1147 50.8141 32.6567 51.2133C32.1979 51.6127 31.5843 51.8117 30.8235 51.8117C30.0211 51.8117 29.3222 51.5337 28.7219 50.9817C28.1217 50.4289 27.8187 49.6977 27.8119 48.7813H27.4387V52.1076H27.8119C27.9258 51.7926 28.0835 51.6315 28.2898 51.6315C28.3891 51.6315 28.6216 51.6988 28.9838 51.8245C29.8651 52.1327 30.5886 52.2813 31.1574 52.2813C32.1377 52.2813 32.9744 51.944 33.6715 51.2583C34.3676 50.573 34.719 49.7464 34.719 48.7813C34.719 48.033 34.487 47.3672 34.0316 46.7868C33.5762 46.2058 32.6905 45.5299 31.3669 44.7538C30.228 44.0813 29.4887 43.5336 29.1475 43.1067C28.8057 42.6804 28.6303 42.2088 28.6303 41.6913C28.6303 41.1315 28.8395 40.6819 29.2523 40.3466C29.665 40.011 30.2058 39.8448 30.8825 39.8448C31.644 39.8448 32.2788 40.0669 32.7811 40.5139C33.2829 40.9617 33.573 41.5822 33.6584 42.3797H34.0316V39.4973H33.6846C33.6422 39.6443 33.6029 39.7382 33.5668 39.7804C33.5317 39.8224 33.4641 39.8448 33.3638 39.8448C33.2431 39.8448 33.0278 39.7948 32.7222 39.6968C32.0675 39.4801 31.4638 39.3687 30.9087 39.3687ZM43.1058 39.3687C41.8747 39.3687 40.757 39.6538 39.7472 40.2244C38.7358 40.7939 37.9352 41.5847 37.3444 42.592C36.7539 43.5992 36.4606 44.6689 36.4606 45.8089C36.4606 47.3405 36.9707 48.7049 37.9991 49.9008C39.028 51.096 40.261 51.8407 41.6916 52.1269C42.0187 52.2944 42.4867 52.7268 43.0993 53.4265C43.7896 54.2163 44.3736 54.7859 44.8539 55.1251C45.3336 55.4644 45.8516 55.7132 46.399 55.8778C46.9468 56.0418 47.5392 56.1223 48.1798 56.1223C48.9555 56.1223 49.65 55.9898 50.2617 55.717L50.1242 55.3824C49.7691 55.5083 49.3904 55.569 48.9916 55.569C48.4503 55.569 47.9032 55.3936 47.3548 55.0414C46.8072 54.6884 46.1224 54.0148 45.3056 53.0212C44.9217 52.5451 44.6567 52.2447 44.5069 52.1269C46.0721 51.8265 47.3593 51.081 48.3631 49.8879C49.3666 48.6954 49.8689 47.3343 49.8689 45.8089C49.8689 43.9977 49.2132 42.4755 47.9113 41.2345C46.6085 39.9933 45.0063 39.3687 43.1058 39.3687ZM50.72 39.3687L50.7397 39.7611C51.5593 39.7611 52.0184 39.9984 52.1211 40.4753C52.1593 40.6459 52.1769 40.9609 52.18 41.4146L52.1735 50.0938C52.1667 50.742 52.0726 51.1559 51.8919 51.3356C51.711 51.5139 51.4051 51.6256 50.9623 51.6701L50.9426 52.0626H59.1133L59.3229 50.0938H58.9497C58.8431 50.6302 58.5988 51.0144 58.2099 51.2326C57.8199 51.4525 57.1304 51.5607 56.1344 51.5607H55.3619C54.4657 51.5607 53.9472 51.2424 53.8102 50.6021C53.782 50.4754 53.7723 50.3396 53.771 50.1903L53.8037 41.4146C53.8035 40.7674 53.8867 40.3337 54.059 40.1214C54.2332 39.9099 54.5472 39.7915 55.0018 39.7611L54.9822 39.3687H50.72H50.72ZM43.2367 39.8448C44.6252 39.8448 45.7589 40.3822 46.6347 41.4661C47.5101 42.5504 47.9441 44.0365 47.9441 45.9183C47.9441 47.7014 47.5038 49.1292 46.6216 50.2032C45.7393 51.2768 44.565 51.8117 43.1058 51.8117C41.704 51.8117 40.5671 51.2602 39.6948 50.1517C38.8233 49.0433 38.3919 47.6042 38.3919 45.8346C38.3919 44.0162 38.8285 42.5605 39.7079 41.4725C40.5868 40.3857 41.7637 39.8448 43.2367 39.8448ZM62.0268 41.7106C61.8275 41.7106 61.6756 41.7767 61.5619 41.91C61.4457 42.0428 61.41 42.2036 61.4506 42.399C61.4899 42.5885 61.5986 42.7545 61.7714 42.8944C61.9432 43.0341 62.1286 43.1067 62.3279 43.1067C62.5207 43.1067 62.6676 43.0341 62.7731 42.8944C62.8787 42.7545 62.9109 42.5885 62.8713 42.399C62.8307 42.2036 62.7257 42.0428 62.5636 41.91C62.3997 41.7767 62.2195 41.7106 62.0268 41.7106ZM67.415 43.0424C67.0764 44.3225 66.3423 45.0152 65.2152 45.1269L65.2283 45.4936H66.5442L66.518 49.83C66.5201 50.5714 66.5432 51.065 66.5966 51.3163C66.7262 51.9177 67.1259 52.2234 67.7947 52.2234C68.7624 52.2234 69.7774 51.6442 70.8391 50.4863L70.5183 50.2161C69.7518 50.9786 69.074 51.3613 68.4822 51.3613C68.1184 51.3613 67.8929 51.1557 67.8078 50.7501C67.7845 50.6516 67.7751 50.5364 67.7751 50.4027L67.7882 45.4936H69.7981L69.7785 44.9082H67.7947V43.0424H67.415H67.415ZM75.1863 44.6766C74.0621 44.6766 73.1476 45.2129 72.4366 46.2786C71.7292 47.3461 71.5103 48.5288 71.7884 49.83C71.9521 50.5922 72.2781 51.183 72.777 51.5993C73.2751 52.0155 73.907 52.2234 74.6626 52.2234C75.366 52.2234 76.3454 52.0484 76.7576 51.6958C77.1709 51.3435 77.5517 50.7727 77.9034 49.9909L77.6218 49.7014C77.0609 50.7156 75.9288 51.2262 75.075 51.2262C73.9013 51.2262 73.1824 50.5933 72.9145 49.3346C72.8797 49.174 72.8538 49.0014 72.8359 48.8199C74.2323 48.6027 75.2906 48.218 76.0047 47.6618C76.7183 47.1054 77.4349 46.5156 77.301 45.8925C77.2214 45.5223 77.0258 45.2312 76.7249 45.0111C76.4201 44.7912 75.6287 44.6766 75.1863 44.6766ZM62.8975 44.7216L60.4751 45.2685V45.6931L61.3131 45.5902C61.7191 45.5902 61.9579 45.7708 62.0333 46.1306C62.0587 46.251 62.0747 46.4201 62.0791 46.6324L62.053 50.5249C62.0462 51.0635 61.9854 51.3767 61.8631 51.4707C61.7397 51.5649 61.4145 51.6122 60.8876 51.6122L60.8745 51.9789H64.7176L64.7111 51.6122C64.1771 51.6122 63.8309 51.5708 63.6766 51.49C63.525 51.4096 63.4205 51.2635 63.3755 51.0396C63.3406 50.8783 63.3255 50.6003 63.3231 50.2161L63.3362 44.7216H62.8975H62.8975ZM74.5709 45.4422C74.8048 45.4422 75.0308 45.5309 75.2584 45.706C75.4828 45.8804 75.6195 46.0743 75.6643 46.285C75.8835 47.3199 74.9499 48.0353 72.849 48.4339C72.7891 47.6793 72.9221 46.9943 73.2615 46.3751C73.5983 45.7564 74.0369 45.4422 74.5709 45.4422Z" fill="#003B57"/>
<path d="M25.4825 24.5074H4.63545C3.23826 24.5074 2.09509 25.631 2.09509 27.004V49.5969C2.09509 50.9698 3.23826 52.0932 4.63545 52.0932H18.3659C18.21 45.3795 20.543 32.3504 25.4825 24.5074Z" fill="#0F80CC"/>
<path d="M24.7251 25.2358H4.63535C3.64327 25.2358 2.83594 26.0289 2.83594 27.0041V47.9485C7.38582 46.2325 14.2146 44.7518 18.9364 44.819C19.8852 39.9436 22.6738 30.3886 24.7251 25.2358V25.2358Z" fill="url(#paint0_linear)"/>
<path d="M30.3451 23.7682C28.9173 22.5169 27.1887 23.0195 25.4825 24.5075C25.2293 24.7286 24.9765 24.9739 24.7251 25.2358C21.8065 28.2785 19.0973 33.9146 18.2556 38.2188C18.5835 38.8722 18.8396 39.706 19.0083 40.343C19.0515 40.5064 19.0905 40.6598 19.1216 40.7903C19.1958 41.0991 19.2356 41.2993 19.2356 41.2993C19.2356 41.2993 19.2094 41.202 19.102 40.896C19.0816 40.8374 19.0588 40.7733 19.0318 40.6979C19.0203 40.6667 19.0043 40.6289 18.9868 40.5885C18.7964 40.1536 18.2697 39.2356 18.038 38.8359C17.8397 39.4106 17.6645 39.9482 17.5179 40.4346C18.187 41.6377 18.5947 43.6994 18.5947 43.6994C18.5947 43.6994 18.5594 43.5658 18.3913 43.0995C18.242 42.687 17.4985 41.4069 17.3224 41.1076C17.0211 42.2005 16.9014 42.9384 17.0094 43.1181C17.2189 43.4662 17.4186 44.0669 17.5938 44.7311C17.9898 46.2276 18.265 48.0494 18.265 48.0494C18.265 48.0494 18.2739 48.1701 18.2889 48.3559C18.2339 49.6126 18.2669 50.9156 18.3659 52.0933C18.4971 53.6523 18.744 54.9915 19.0588 55.7083L19.2725 55.5938C18.8103 54.1816 18.6225 52.331 18.7047 50.1968C18.8291 46.9346 19.593 43.0004 21.0046 38.9C23.3893 32.7102 26.6979 27.7438 29.726 25.372C26.9661 27.8215 23.2306 35.7503 22.1123 38.6864C20.8603 41.9744 19.973 45.0598 19.4383 48.0159C20.3609 45.2446 23.344 44.0533 23.344 44.0533C23.344 44.0533 24.8071 42.2801 26.5169 39.7467C25.4927 39.9763 23.8109 40.3692 23.2476 40.6019C22.4166 40.9444 22.1927 41.0613 22.1927 41.0613C22.1927 41.0613 24.8844 39.4505 27.1936 38.7211C30.3695 33.8057 33.8295 26.8227 30.3451 23.7682" fill="#003B57"/>
<defs>
<linearGradient id="paint0_linear" x1="15.4575" y1="25.7006" x2="15.4575" y2="46.6854" gradientUnits="userSpaceOnUse">
<stop stop-color="#97D9F6"/>
<stop offset="0.920245" stop-color="#0F80CC"/>
<stop offset="1" stop-color="#0F80CC"/>
</linearGradient>
</defs>
</svg>
