<svg width="500" height="500" viewBox="0 0 500 500" fill="none" xmlns="http://www.w3.org/2000/svg">
<rect width="500" height="500" fill="white"/>
<path fill-rule="evenodd" clip-rule="evenodd" d="M0 500H500V0H0V500Z" fill="#242436"/>
<path fill-rule="evenodd" clip-rule="evenodd" d="M374.614 25L462.815 123.265C479.062 141.365 479.062 170.81 462.815 188.91L459.542 192.557L419.169 147.578C409.196 196.173 370.157 232.57 323.559 232.57H255.955C227.367 232.57 204.105 258.489 204.105 290.34V365.654C204.105 412.529 178.777 437.2 164.651 450.96C164.463 451.143 164.276 451.325 164.092 451.504C150.087 465.154 128.496 474.905 107.488 474.905C86.481 474.905 68.3912 465.805 61.3887 459.304C54.3862 452.804 44.959 440.454 42.1318 435.254C38.2445 428.104 31.0445 414.454 25.7927 393.003C20.5408 371.553 42.7154 355.303 53.2191 374.803C55.9128 379.804 58.0692 383.993 59.9147 387.577C65.2655 397.971 68.0025 403.287 73.6431 408.604C81.2291 415.754 92.8999 421.604 107.488 420.954C122.077 420.304 157.808 397.504 157.808 365.654V290.34C157.808 230.045 201.835 180.991 255.955 180.991H323.559C352.145 180.991 375.409 155.075 375.409 123.225V98.825L371.34 94.2916C355.094 76.1917 355.094 46.7433 371.34 28.6468L374.614 25ZM285.127 353.787V348.628C285.127 323.031 303.817 302.204 326.791 302.204H421.707V365.654C421.707 425.95 377.68 475 323.559 475H184.724C200.06 461.263 212.441 443.615 220.667 423.42H323.559C352.145 423.42 375.409 397.502 375.409 365.654V353.787H285.127Z" fill="#2FE5A4"/>
</svg>
