<svg
  width="375"
  height="261"
  viewBox="0 0 375 261"
  fill="none"
  xmlns="http://www.w3.org/2000/svg"
>
    <path
    d="M30.3014 161.767C28.0284 153.642 26.8677 145.262 26.8494 136.843C26.8115 124.004 29.3819 111.285 34.4132 99.4138C39.4446 87.5426 46.838 76.7533 56.1693 67.6643C65.5007 58.5754 76.5866 51.3656 88.7914 46.4483C100.996 41.531 114.08 39.003 127.292 39.0092C141.074 38.9962 154.708 41.7728 167.325 47.162C174.646 30.6656 187.597 17.1269 203.995 8.82879C220.392 0.530687 239.233 -2.01915 257.34 1.60923C275.447 5.23761 291.713 14.8222 303.394 28.7469C315.075 42.6716 321.458 60.0845 321.465 78.0494C321.306 80.8732 321.002 83.6875 320.554 86.4817C339.951 95.1823 355.706 110.06 365.212 128.652C374.717 147.243 377.401 168.431 372.819 188.707C368.237 208.983 356.665 227.13 340.019 240.141C323.373 253.153 302.652 260.248 281.288 260.252H53.6021C41.493 260.263 29.739 256.279 20.2643 248.952C10.7896 241.624 4.15564 231.389 1.44864 219.92C-1.25833 208.451 0.121887 196.429 5.36356 185.822C10.6052 175.215 19.3977 166.652 30.3014 161.534V161.767Z"
    fill="url(#paint0_linear_217_635)"
  />
    <defs>
      <linearGradient
      id="paint0_linear_217_635"
      x1="0.0957484"
      y1="208.126"
      x2="375"
      y2="208.126"
      gradientUnits="userSpaceOnUse"
    >
        <stop stop-color="white" />
        <stop offset="1" stop-color="#EFF4FF" />
      </linearGradient>
    </defs>
  </svg>
