<svg
  width="437"
  height="212"
  viewBox="0 0 437 212"
  fill="none"
  xmlns="http://www.w3.org/2000/svg"
>
    <path
    d="M64.1929 82.8214C70.2716 82.8133 76.3196 83.6888 82.1501 85.4209C82.1356 65.6137 88.9593 46.418 101.452 31.123C113.945 15.828 131.328 5.38582 150.625 1.58577C169.921 -2.21428 189.929 0.864362 207.219 10.2942C224.51 19.724 238.006 34.9179 245.397 53.2725C254.209 41.7049 266.395 33.2071 280.246 28.9719C294.096 24.7367 308.915 24.9765 322.623 29.6577C336.331 34.3388 348.24 43.2265 356.679 55.0732C365.117 66.92 369.662 81.1312 369.675 95.7126C369.673 101.068 369.072 106.407 367.885 111.628C374.947 109.058 382.481 108.081 389.959 108.763C397.436 109.446 404.674 111.772 411.162 115.578C417.65 119.384 423.231 124.577 427.511 130.792C431.791 137.006 434.665 144.09 435.933 151.546C437.2 159.001 436.829 166.645 434.845 173.94C432.862 181.235 429.315 188.003 424.453 193.767C419.592 199.531 413.535 204.151 406.709 207.301C399.883 210.451 392.455 212.054 384.947 211.999H64.1929C47.1679 211.999 30.8402 205.185 18.8017 193.058C6.76319 180.93 0 164.481 0 147.33C0 130.179 6.76319 113.731 18.8017 101.603C30.8402 89.4755 47.1679 82.6622 64.1929 82.6622V82.8214Z"
    fill="url(#paint0_linear_217_510)"
  />
    <defs>
      <linearGradient
      id="paint0_linear_217_510"
      x1="436.669"
      y1="185.586"
      x2="1.12908e-06"
      y2="185.586"
      gradientUnits="userSpaceOnUse"
    >
        <stop stop-color="white" />
        <stop offset="1" stop-color="#EFF4FF" />
      </linearGradient>
    </defs>
  </svg>
