<svg
  width="423"
  height="267"
  viewBox="0 0 423 267"
  fill="none"
  xmlns="http://www.w3.org/2000/svg"
>
<path
    d="M101.132 70.4512C108.642 70.4509 116.129 71.2997 123.45 72.9818C135.725 47.9577 155.69 27.5365 180.41 14.7177C205.13 1.89904 233.302 -2.64134 260.789 1.76371C288.276 6.16875 313.628 19.287 333.121 39.1913C352.614 59.0956 365.22 84.7366 369.088 112.348C386.707 118.313 401.673 130.291 411.369 146.187C421.066 162.084 424.875 180.889 422.133 199.314C419.39 217.739 410.27 234.613 396.365 246.986C382.461 259.358 364.658 266.442 346.068 267H98.3244H96.0785C70.0197 266.329 45.2943 255.317 27.3417 236.386C9.3891 217.455 -0.320122 192.156 0.349963 166.054C1.02005 139.953 12.0146 115.187 30.9148 97.2056C49.8151 79.2238 75.0728 69.4988 101.132 70.1699V70.4512Z"
    fill="url(#paint0_linear_217_548)"
  />
<defs>
<linearGradient
      id="paint0_linear_217_548"
      x1="0.317444"
      y1="267"
      x2="423"
      y2="267"
      gradientUnits="userSpaceOnUse"
    >
<stop stop-color="white" />
<stop offset="1" stop-color="#EFF4FF" />
</linearGradient>
</defs>
</svg>
