<svg width="80" height="80" viewBox="0 0 80 80" fill="none" xmlns="http://www.w3.org/2000/svg">
<g clip-path="url(#clip0)">
<path d="M9.66664 34.6214C8.5658 29.7827 6.27138 28.4946 5.68609 27.584C5.44474 27.1829 5.23094 26.7659 5.04615 26.336C5.01523 26.7658 4.95843 27.0367 4.59173 27.3626C3.85544 28.0167 0.728377 30.5557 0.465212 36.0535C0.220023 41.1795 4.24731 44.3403 4.77939 44.667C5.18852 44.8676 5.68681 44.6713 5.92984 44.4872C7.87122 43.1596 10.5237 39.6205 9.6688 34.6214" fill="#10AA50"/>
<path d="M5.21303 41.9374C5.11165 43.2062 5.03903 43.9434 4.78162 44.6684C4.78162 44.6684 4.95059 45.8763 5.06923 47.1558H5.48914C5.5893 46.2548 5.74224 45.3604 5.94716 44.4771C5.40358 44.2106 5.23389 43.0508 5.21303 41.9374Z" fill="#B8C4C2"/>
<path d="M5.94632 44.4778C5.39698 44.225 5.23807 43.0407 5.21362 41.9374C5.34948 40.1175 5.38908 38.2917 5.33226 36.4676C5.3035 35.5104 5.34593 27.6026 5.0957 26.4449C5.26687 26.837 5.46408 27.2173 5.68603 27.5833C6.27132 28.4946 8.56646 29.7827 9.66658 34.6214C10.5237 39.6119 7.88554 43.1417 5.94632 44.4778Z" fill="#12924F"/>
<path d="M78.3527 42.7283C78.1174 42.7283 77.8875 42.659 77.6917 42.5291C77.4959 42.3992 77.343 42.2146 77.2523 41.9984C77.1615 41.7821 77.1369 41.544 77.1817 41.3139C77.2264 41.0838 77.3383 40.872 77.5035 40.7052C77.6687 40.5383 77.8797 40.4238 78.11 40.3761C78.3403 40.3284 78.5796 40.3496 78.7978 40.4371C79.016 40.5245 79.2034 40.6743 79.3365 40.8676C79.4695 41.0608 79.5423 41.289 79.5455 41.5233C79.5498 41.6813 79.522 41.8386 79.4638 41.9856C79.4055 42.1327 79.3181 42.2665 79.2067 42.379C79.0953 42.4915 78.9622 42.5805 78.8155 42.6405C78.6687 42.7005 78.5113 42.7304 78.3527 42.7283V42.7283ZM78.3527 40.4587C78.1377 40.4573 77.9272 40.5195 77.7478 40.6373C77.5684 40.7552 77.4281 40.9235 77.3447 41.1209C77.2614 41.3183 77.2387 41.5358 77.2795 41.7461C77.3204 41.9563 77.4229 42.1497 77.5742 42.3019C77.7255 42.454 77.9186 42.558 78.1292 42.6006C78.3399 42.6433 78.5584 42.6227 78.7573 42.5414C78.9561 42.4602 79.1263 42.322 79.2463 42.1443C79.3663 41.9667 79.4306 41.7575 79.4312 41.5434C79.434 41.401 79.4081 41.2595 79.355 41.1274C79.3019 40.9952 79.2227 40.8749 79.1222 40.7738C79.0216 40.6726 78.9016 40.5926 78.7695 40.5385C78.6373 40.4844 78.4955 40.4573 78.3527 40.4587V40.4587ZM78.6403 42.2913L78.3325 41.6301H78.0845V42.2913H77.904V40.7868H78.3491C78.6805 40.7868 78.8186 40.9301 78.8186 41.2074C78.8186 41.428 78.7143 41.5656 78.5202 41.6079L78.838 42.2892L78.6403 42.2913ZM78.0916 41.4746H78.3527C78.564 41.4746 78.6446 41.403 78.6446 41.211C78.6446 41.019 78.5676 40.9538 78.3296 40.9538H78.0916V41.4746Z" fill="#21313C"/>
<path d="M60.5991 41.6451C60.922 41.9023 61.5669 42.0083 62.1357 42.0083C62.8727 42.0083 63.5953 41.8722 64.3014 41.2367C65.0204 40.5855 65.5151 39.589 65.5151 37.9978C65.5151 36.469 64.9313 35.2281 63.7334 34.5017C63.0575 34.0783 62.1817 33.9114 61.183 33.9114C60.8954 33.9114 60.5991 33.9264 60.4309 34.0024C60.3619 34.0566 60.313 34.1322 60.2921 34.2173C60.2619 34.4895 60.2619 36.5628 60.2619 37.7886C60.2619 39.0452 60.2619 40.7976 60.2921 41.0125C60.3079 41.1945 60.3999 41.514 60.5991 41.648V41.6451ZM57.5332 33.2308C57.7942 33.2308 58.7864 33.2759 59.2481 33.2759C60.1109 33.2759 60.707 33.2308 62.3198 33.2308C63.6715 33.2308 64.809 33.594 65.6223 34.2896C66.6059 35.1379 67.1322 36.3178 67.1322 37.7557C67.1322 39.7989 66.1975 40.9795 65.2577 41.6451C64.323 42.3415 63.1071 42.7348 61.375 42.7348C60.4532 42.7348 58.8706 42.7047 57.5497 42.6896H57.5224C57.4605 42.5686 57.6353 42.0964 57.7431 42.0843C58.1026 42.0441 58.1975 42.0298 58.3629 41.9618C58.6419 41.8478 58.7073 41.706 58.7383 41.2067C58.7843 40.2681 58.7692 39.1484 58.7692 37.8767C58.7692 36.969 58.7843 35.1981 58.7541 34.6378C58.7073 34.1693 58.5089 34.0482 58.1069 33.9572C57.8219 33.8969 57.5339 33.8515 57.2441 33.8211C57.2139 33.7301 57.4498 33.3196 57.5267 33.2308" fill="#21313C"/>
<path d="M70.9396 33.9988C70.8784 34.0139 70.8015 34.1657 70.8015 34.241C70.7857 34.7862 70.7706 36.2082 70.7706 37.1919C70.7745 37.2107 70.7839 37.2279 70.7975 37.2414C70.8112 37.255 70.8286 37.2641 70.8475 37.2678C71.0467 37.2829 71.5385 37.2986 71.9534 37.2986C72.5373 37.2986 72.8752 37.2227 73.0593 37.1317C73.5511 36.8896 73.7783 36.3594 73.7783 35.7848C73.7783 34.4681 72.8565 33.9687 71.4896 33.9687C71.3048 33.9664 71.1201 33.9765 70.9367 33.9988H70.9396ZM74.424 40.0525C74.424 38.7207 73.4404 37.9642 71.6428 37.9642C71.5666 37.9642 70.9957 37.9491 70.8598 37.9792C70.8137 37.9943 70.7677 38.0244 70.7677 38.0552C70.7677 39.0087 70.7519 40.5368 70.7986 41.1422C70.8296 41.3994 71.0143 41.7626 71.2437 41.8687C71.4896 42.0048 72.0426 42.0349 72.4265 42.0349C73.4864 42.0349 74.424 41.4453 74.424 40.0525V40.0525ZM68.1641 33.2573C68.3029 33.2573 68.7113 33.3025 69.756 33.3025C70.739 33.3025 71.5378 33.2724 72.4884 33.2724C73.6712 33.2724 75.2991 33.6965 75.2991 35.4517C75.2991 36.3114 74.685 37.0106 73.8862 37.3438C73.8401 37.3588 73.8401 37.3889 73.8862 37.404C75.0229 37.6905 76.021 38.3876 76.021 39.7194C76.021 41.0211 75.207 41.8386 74.0242 42.353C73.3052 42.6711 72.4114 42.7764 71.5076 42.7764C70.8166 42.7764 68.9644 42.7047 67.9347 42.7162C67.8269 42.6711 68.0332 42.186 68.1253 42.1108C68.3612 42.1036 68.5952 42.067 68.822 42.0019C69.1902 41.9117 69.234 41.7934 69.28 41.2482C69.311 40.779 69.311 39.099 69.311 37.9033C69.311 36.2684 69.3268 35.1644 69.311 34.6192C69.2959 34.1958 69.142 34.059 68.8501 33.9838C68.62 33.9379 68.236 33.8928 67.929 33.8477C67.852 33.7717 68.0886 33.3175 68.1648 33.2573" fill="#21313C"/>
<path d="M13.0683 42.7284C13.0287 42.6315 13.0127 42.5267 13.0215 42.4225C13.0181 42.3514 13.0342 42.2808 13.0683 42.2183C13.2669 42.1897 13.4638 42.1498 13.6579 42.0987C13.9297 42.0313 14.0318 41.8837 14.0476 41.5384C14.0922 40.7224 14.095 39.1914 14.0792 38.1154V38.0838C14.0792 37.9678 14.0792 37.8102 13.9354 37.6991C13.6826 37.5411 13.4082 37.4205 13.1207 37.3409C12.992 37.3029 12.9209 37.2356 12.9244 37.1568C12.928 37.078 13.0093 36.9849 13.1768 36.9519C13.6219 36.9068 14.7882 36.6295 15.2462 36.4189C15.2934 36.4801 15.3152 36.557 15.3073 36.6338C15.3073 36.6811 15.3001 36.7312 15.2951 36.7828C15.2821 36.9347 15.2678 37.1074 15.2678 37.2793C15.2706 37.3002 15.2792 37.3199 15.2926 37.3362C15.3061 37.3524 15.3238 37.3646 15.3438 37.3714C15.3639 37.3782 15.3854 37.3793 15.406 37.3745C15.4266 37.3698 15.4455 37.3594 15.4605 37.3445C16.3327 36.6632 17.1142 36.4203 17.5147 36.4203C18.1741 36.4203 18.6875 36.7341 19.0851 37.3803C19.0942 37.3959 19.1072 37.4089 19.1228 37.4181C19.1384 37.4272 19.1561 37.4322 19.1743 37.4326C19.1907 37.4325 19.2069 37.4283 19.2214 37.4206C19.236 37.4129 19.2484 37.4018 19.2577 37.3882C20.0594 36.7821 20.8539 36.4203 21.386 36.4203C22.6429 36.4203 23.3942 37.3581 23.3942 38.9278C23.3942 39.3791 23.3899 39.9515 23.3856 40.4853C23.382 40.9538 23.3784 41.393 23.3784 41.6967C23.3784 41.7684 23.4777 41.9747 23.6265 42.0156C23.8106 42.1051 24.0759 42.151 24.4117 42.2083H24.4246C24.4498 42.2985 24.3966 42.6489 24.3455 42.7205C24.2621 42.7205 24.1471 42.7133 24.0033 42.7062C23.7423 42.6933 23.3842 42.6754 22.9679 42.6754C22.1323 42.6754 21.6959 42.6911 21.2789 42.7184C21.2472 42.6145 21.2364 42.2792 21.2745 42.209C21.4472 42.1821 21.6182 42.145 21.7865 42.0979C22.0525 42.0105 22.1295 41.8902 22.146 41.5384C22.1525 41.2884 22.2007 39.0854 22.1151 38.5624C22.036 38.0201 21.6262 37.3853 20.7295 37.3853C20.3966 37.3853 19.8595 37.5236 19.3475 37.9105C19.3158 37.9463 19.2979 37.9923 19.2972 38.0401V38.0509C19.3576 38.3332 19.3576 38.6627 19.3576 39.1606C19.3576 39.4472 19.3576 39.7459 19.354 40.0447C19.3504 40.6522 19.3475 41.2253 19.3576 41.6588C19.3576 41.9539 19.5367 42.0249 19.6812 42.0815C19.7596 42.0987 19.8214 42.1137 19.8839 42.128C20.004 42.1574 20.1291 42.1875 20.3154 42.2169C20.3429 42.3427 20.3405 42.4733 20.3082 42.598C20.3006 42.6448 20.2821 42.6892 20.2542 42.7277C19.7897 42.7119 19.313 42.6983 18.6249 42.6983C18.4164 42.6983 18.0763 42.7069 17.7757 42.7148C17.532 42.7212 17.3019 42.7277 17.171 42.7284C17.1356 42.6452 17.1199 42.555 17.125 42.4647C17.1177 42.3797 17.1344 42.2944 17.1732 42.2183L17.358 42.1846C17.5191 42.156 17.6585 42.1316 17.7894 42.0987C18.0166 42.027 18.1022 41.9038 18.1187 41.6151C18.1633 40.9416 18.1978 39.0009 18.1022 38.5151C17.9397 37.7357 17.4946 37.3402 16.7785 37.3402C16.3593 37.3402 15.8293 37.5415 15.3965 37.8646C15.3548 37.905 15.322 37.9535 15.3001 38.0072C15.2782 38.0608 15.2677 38.1184 15.2692 38.1763C15.2692 38.4077 15.2692 38.6828 15.2692 38.9779C15.2692 39.9523 15.2627 41.1652 15.2865 41.6896C15.3008 41.8515 15.3584 42.0435 15.6625 42.1137C15.7294 42.133 15.8444 42.1517 15.9782 42.1739C16.0551 42.1868 16.1392 42.2004 16.2262 42.2161C16.2539 42.3877 16.2398 42.5634 16.1852 42.7284C16.0515 42.7284 15.8869 42.7198 15.6985 42.7119C15.4109 42.699 15.0513 42.6833 14.6451 42.6833C14.1648 42.6833 13.8304 42.699 13.5622 42.7119C13.3817 42.7205 13.2257 42.7277 13.0697 42.7284" fill="#21313C"/>
<path d="M28.4879 37.0679C28.2284 37.0625 27.9731 37.1341 27.7545 37.2735C27.221 37.5966 26.9492 38.2421 26.9492 39.1907C26.9492 40.9659 27.8415 42.2061 29.1192 42.2061C29.4618 42.2169 29.7959 42.099 30.0554 41.8758C30.448 41.557 30.6565 40.905 30.6565 39.9923C30.6565 38.2435 29.7843 37.0679 28.4864 37.0679H28.4879ZM28.7324 42.8644C26.4243 42.8644 25.6024 41.1773 25.6024 39.599C25.6024 38.4964 26.0547 37.6346 26.947 37.0364C27.572 36.6509 28.2894 36.4396 29.0243 36.4246C30.7852 36.4246 32.0154 37.6862 32.0154 39.4937C32.0154 40.7216 31.5243 41.6917 30.5946 42.2978C30.1481 42.57 29.3723 42.8644 28.7324 42.8644" fill="#21313C"/>
<path d="M51.9858 37.0679C51.7258 37.062 51.4699 37.1336 51.251 37.2735C50.7175 37.5966 50.4457 38.2421 50.4457 39.1907C50.4457 40.9659 51.338 42.2061 52.6157 42.2061C52.9593 42.2176 53.2946 42.0997 53.5548 41.8758C53.9473 41.557 54.1551 40.905 54.1551 39.9923C54.1551 38.2435 53.2837 37.0679 51.9858 37.0679V37.0679ZM52.2317 42.8644C49.9237 42.8644 49.1018 41.1773 49.1018 39.5997C49.1018 38.4957 49.5541 37.6346 50.4471 37.0364C51.0717 36.6506 51.7889 36.4393 52.5237 36.4246C54.2846 36.4246 55.5148 37.6869 55.5148 39.493C55.5148 40.7224 55.0237 41.6917 54.094 42.297C53.6475 42.57 52.8717 42.8644 52.2317 42.8644" fill="#21313C"/>
<path d="M44.2146 37.0078C43.5035 37.0078 43.0433 37.5673 43.0433 38.4335C43.0433 39.2996 43.4395 40.3291 44.5533 40.3291C44.7445 40.3291 45.0911 40.2446 45.2629 40.0561C45.5218 39.819 45.6944 39.329 45.6944 38.8117C45.6944 37.6819 45.1421 37.0078 44.2182 37.0078H44.2146ZM44.1262 42.9856C43.9253 42.9834 43.7272 43.0327 43.5509 43.1289C42.9879 43.4871 42.7269 43.8453 42.7269 44.2615C42.7269 44.6512 42.8786 44.9615 43.2051 45.2366C43.6005 45.5704 44.1341 45.733 44.8351 45.733C46.2149 45.733 46.8333 44.9937 46.8333 44.2615C46.8333 43.7514 46.5766 43.4097 46.0481 43.2163C45.6412 43.068 44.961 42.9863 44.1283 42.9863L44.1262 42.9856ZM44.2204 46.4967C43.392 46.4967 42.7952 46.3226 42.2854 45.9315C41.7893 45.5503 41.5664 44.9844 41.5664 44.5932C41.5718 44.3411 41.6683 44.0995 41.8382 43.9126C41.982 43.7493 42.3164 43.4434 43.0893 42.9139C43.1013 42.9089 43.1115 42.9004 43.1187 42.8895C43.1258 42.8787 43.1296 42.866 43.1296 42.853C43.1298 42.8386 43.1251 42.8244 43.1162 42.813C43.1073 42.8015 43.0948 42.7934 43.0807 42.79C42.4443 42.5471 42.2524 42.1452 42.1941 41.9303C42.1941 41.9224 42.1941 41.9102 42.1876 41.8966C42.1697 41.8121 42.1524 41.7318 42.2682 41.6495C42.3573 41.5864 42.4997 41.5019 42.6521 41.4123C42.8673 41.2936 43.0737 41.1598 43.2698 41.0118C43.2803 41.0006 43.2881 40.987 43.2926 40.9723C43.2971 40.9575 43.2981 40.9419 43.2956 40.9267C43.2931 40.9115 43.2872 40.8971 43.2782 40.8845C43.2692 40.8719 43.2575 40.8616 43.2439 40.8542C42.302 40.539 41.8274 39.8419 41.8274 38.7766C41.8245 38.4444 41.9021 38.1164 42.0536 37.8205C42.205 37.5245 42.4259 37.2693 42.6974 37.0766C43.0764 36.7778 44.0277 36.4189 44.6439 36.4189H44.6798C45.3133 36.4339 45.6706 36.5665 46.1653 36.7484C46.4467 36.8498 46.7449 36.897 47.044 36.8874C47.5682 36.8874 47.7975 36.7219 47.9946 36.5292C48.0265 36.616 48.0435 36.7076 48.0449 36.8C48.0569 37.0203 47.9969 37.2385 47.8738 37.4219C47.7666 37.5702 47.5142 37.6776 47.2834 37.6776C47.2597 37.6776 47.2367 37.6776 47.2115 37.674C47.0901 37.6655 46.9697 37.6456 46.852 37.6146L46.7931 37.6354C46.7744 37.6626 46.7866 37.6927 46.8017 37.7314C46.8054 37.7389 46.8083 37.7468 46.8103 37.755C46.8524 37.9462 46.881 38.1401 46.8959 38.3353C46.8959 39.4493 46.4551 39.9343 45.9784 40.294C45.5175 40.6386 44.9701 40.8498 44.3965 40.9044V40.9044C44.3843 40.9044 44.3246 40.9094 44.2124 40.9194C44.1405 40.9259 44.0471 40.9345 44.0334 40.9345H44.0197C43.9162 40.9631 43.6458 41.0914 43.6458 41.3299C43.6458 41.5277 43.7681 41.7734 44.3527 41.8178L44.7309 41.8443C45.5017 41.898 46.4645 41.9647 46.9174 42.1173C47.2179 42.2226 47.4775 42.4196 47.6591 42.6803C47.8407 42.941 47.9352 43.2521 47.9291 43.5695C47.9291 44.5689 47.2158 45.5088 46.0215 46.0834C45.4583 46.3514 44.8416 46.4893 44.2175 46.4867" fill="#21313C"/>
<path d="M40.687 42.1954C40.3491 42.1502 40.1024 42.1044 39.8112 41.9683C39.7541 41.9093 39.7165 41.8343 39.7034 41.7533C39.6725 41.2841 39.6725 39.9222 39.6725 39.0309C39.6725 38.3038 39.5502 37.6698 39.2411 37.2148C38.8722 36.6997 38.3502 36.3974 37.6743 36.3974C37.0753 36.3974 36.2765 36.8058 35.6164 37.366C35.6006 37.381 35.4992 37.477 35.5014 37.328C35.5035 37.179 35.5266 36.8767 35.5409 36.6832C35.5473 36.6319 35.5415 36.5797 35.5241 36.5309C35.5066 36.4822 35.4779 36.4381 35.4403 36.4024C35.0089 36.6173 33.7987 36.9039 33.3508 36.9476C33.0243 37.0107 32.9417 37.3237 33.2904 37.4319H33.2954C33.5746 37.5086 33.841 37.6254 34.0863 37.7787C34.2244 37.8847 34.2093 38.0358 34.2093 38.1569C34.2244 39.1706 34.2244 40.7296 34.1784 41.5771C34.1633 41.9102 34.0705 42.0313 33.8246 42.0922L33.8476 42.0843C33.6604 42.1311 33.4704 42.1665 33.2789 42.1903C33.2019 42.2656 33.2019 42.7047 33.2789 42.7957C33.4327 42.7957 34.2136 42.7506 34.8607 42.7506C35.7509 42.7506 36.2118 42.7957 36.4426 42.7957C36.5354 42.6897 36.5656 42.2813 36.5044 42.1903C36.2917 42.1808 36.0805 42.1503 35.8738 42.0994C35.6287 42.0392 35.5668 41.9174 35.5517 41.6459C35.5215 40.9338 35.5215 39.4207 35.5215 38.3912C35.5215 38.1046 35.5977 37.9678 35.6898 37.8897C35.9968 37.6175 36.5044 37.4362 36.9495 37.4362C37.3809 37.4362 37.6685 37.5723 37.8842 37.7536C38.1355 37.972 38.293 38.2782 38.3243 38.609C38.3854 39.1821 38.3696 40.3348 38.3696 41.3314C38.3696 41.8766 38.3243 42.0134 38.1244 42.0736C38.0324 42.1187 37.7865 42.1646 37.4945 42.1946C37.4025 42.2856 37.4327 42.709 37.4945 42.8C37.8936 42.8 38.3574 42.7549 39.0304 42.7549C39.8752 42.7549 40.4131 42.8 40.6281 42.8C40.7201 42.694 40.751 42.2985 40.6899 42.1946" fill="#21313C"/>
</g>
<defs>
<clipPath id="clip0">
<rect width="80" height="21.4925" fill="white" transform="translate(0 26)"/>
</clipPath>
</defs>
</svg>
