<svg
  width="81"
  height="64"
  viewBox="0 0 81 64"
  fill="none"
  xmlns="http://www.w3.org/2000/svg"
>
<path
    fill-rule="evenodd"
    clip-rule="evenodd"
    d="M18.2016 17.0487C18.2707 16.5557 18.6924 16.189 19.1901 16.189C22.5682 16.189 26.2885 17.0299 29.195 19.0644C29.5944 19.344 29.7334 19.8712 29.5237 20.3113C29.3141 20.7515 28.8171 20.9758 28.3484 20.8418L18.9159 18.1468C18.4373 18.0101 18.1326 17.5416 18.2016 17.0487ZM68.7317 26.4885C68.1078 26.2805 67.2075 26.2702 66.3524 26.2702C65.8011 26.2702 65.3542 25.8233 65.3542 25.2721C65.3542 24.7208 65.8011 24.2739 66.3524 24.2739L66.4194 24.2739C67.1864 24.2736 68.3985 24.2731 69.363 24.5946C69.886 24.769 70.1686 25.3342 69.9943 25.8572C69.82 26.3802 69.2547 26.6628 68.7317 26.4885Z"
    fill="#6090ED"
  />
<path
    fill-rule="evenodd"
    clip-rule="evenodd"
    d="M70.005 24.7483C76.2622 26.4479 80.8254 32.0521 80.8254 38.7469C80.8254 46.8441 74.4496 53.2199 66.3524 53.2199H58.2674C57.7161 53.2199 57.2693 52.773 57.2693 52.2218C57.2693 51.6705 57.7161 51.2236 58.2674 51.2236H66.3524C73.3471 51.2236 78.8291 45.7416 78.8291 38.7469C78.8291 32.7689 74.5953 27.769 68.8353 26.5168C68.3905 26.4201 68.0674 26.0347 68.0499 25.5798C67.532 12.113 56.1342 1.49681 42.6748 2.01448L42.6627 2.01494V2.01487C32.8366 2.27345 24.287 8.47989 20.6559 17.5577C20.5043 17.9366 20.1373 18.1851 19.7291 18.1851H19.1901C10.0394 18.1851 2.67085 25.5537 2.67085 34.7044C2.67085 43.8551 10.0394 51.2236 19.1901 51.2236H25.9276C26.4788 51.2236 26.9257 51.6705 26.9257 52.2218C26.9257 52.773 26.4788 53.2199 25.9276 53.2199H19.1901C8.9369 53.2199 0.674561 44.9576 0.674561 34.7044C0.674561 24.4939 8.86828 16.2576 19.0622 16.1893C23.1143 6.74461 32.1801 0.296156 42.6042 0.019435C56.9173 -0.527817 69.0569 10.5493 70.005 24.7483Z"
    fill="#6090ED"
  />
<path
    fill-rule="evenodd"
    clip-rule="evenodd"
    d="M42.0975 31.6601C33.7184 31.6601 26.9257 38.4527 26.9257 46.8319C26.9257 55.211 33.7184 62.0036 42.0975 62.0036C50.4766 62.0036 57.2693 55.211 57.2693 46.8319C57.2693 38.4527 50.4766 31.6601 42.0975 31.6601ZM24.9294 46.8319C24.9294 37.3502 32.6158 29.6638 42.0975 29.6638C51.5792 29.6638 59.2656 37.3502 59.2656 46.8319C59.2656 56.3135 51.5792 63.9999 42.0975 63.9999C32.6158 63.9999 24.9294 56.3135 24.9294 46.8319Z"
    fill="#6090ED"
  />
<path
    d="M42.6746 53C39.3646 53 36.6746 50.31 36.6746 47C36.6746 45.99 36.9246 45.03 37.3746 44.2L35.9146 42.74C35.1346 43.97 34.6746 45.43 34.6746 47C34.6746 51.42 38.2546 55 42.6746 55V58L46.6746 54L42.6746 50V53ZM42.6746 39V36L38.6746 40L42.6746 44V41C45.9846 41 48.6746 43.69 48.6746 47C48.6746 48.01 48.4246 48.97 47.9746 49.8L49.4346 51.26C50.2146 50.03 50.6746 48.57 50.6746 47C50.6746 42.58 47.0946 39 42.6746 39Z"
    fill="#6090ED"
  />
</svg>
