<svg width="65" height="64" viewBox="0 0 65 64" fill="none" xmlns="http://www.w3.org/2000/svg">
<path d="M48.25 0H16.25C14.039 0 12.25 1.789 12.25 4V60C12.25 62.211 14.039 64 16.25 64H48.25C50.461 64 52.25 62.211 52.25 60V4C52.25 1.789 50.461 0 48.25 0ZM50.25 60C50.25 61.104 49.354 62 48.25 62H16.25C15.146 62 14.25 61.104 14.25 60V38H50.25V60ZM50.25 36H14.25V26H50.25V36ZM50.25 24H14.25V14H50.25V24ZM50.25 12H14.25V4C14.25 2.896 15.146 2 16.25 2H48.25C49.354 2 50.25 2.896 50.25 4V12Z" fill="#6090ED"/>
<path d="M43.25 6H21.25C20.697 6 20.25 6.447 20.25 7C20.25 7.553 20.697 8 21.25 8H43.25C43.803 8 44.25 7.553 44.25 7C44.25 6.447 43.803 6 43.25 6ZM21.25 20H43.25C43.803 20 44.25 19.553 44.25 19C44.25 18.447 43.803 18 43.25 18H21.25C20.697 18 20.25 18.447 20.25 19C20.25 19.553 20.697 20 21.25 20ZM21.25 32H43.25C43.803 32 44.25 31.553 44.25 31C44.25 30.447 43.803 30 43.25 30H21.25C20.697 30 20.25 30.447 20.25 31C20.25 31.553 20.697 32 21.25 32ZM32.25 58C33.907 58 35.25 56.656 35.25 55C35.25 53.344 33.907 52 32.25 52C30.593 52 29.25 53.344 29.25 55C29.25 56.656 30.593 58 32.25 58ZM32.25 54C32.803 54 33.25 54.447 33.25 55C33.25 55.553 32.803 56 32.25 56C31.697 56 31.25 55.553 31.25 55C31.25 54.447 31.697 54 32.25 54ZM40.25 58C41.907 58 43.25 56.656 43.25 55C43.25 53.344 41.907 52 40.25 52C38.593 52 37.25 53.344 37.25 55C37.25 56.656 38.593 58 40.25 58ZM40.25 54C40.803 54 41.25 54.447 41.25 55C41.25 55.553 40.803 56 40.25 56C39.697 56 39.25 55.553 39.25 55C39.25 54.447 39.697 54 40.25 54ZM24.25 58C25.907 58 27.25 56.656 27.25 55C27.25 53.344 25.907 52 24.25 52C22.593 52 21.25 53.344 21.25 55C21.25 56.656 22.593 58 24.25 58ZM24.25 54C24.803 54 25.25 54.447 25.25 55C25.25 55.553 24.803 56 24.25 56C23.697 56 23.25 55.553 23.25 55C23.25 54.447 23.697 54 24.25 54Z" fill="#6090ED"/>
</svg>
