<?xml version="1.0" encoding="UTF-8" standalone="no"?>
<!-- Created with Inkscape (http://www.inkscape.org/) -->

<svg
   xmlns:dc="http://purl.org/dc/elements/1.1/"
   xmlns:cc="http://creativecommons.org/ns#"
   xmlns:rdf="http://www.w3.org/1999/02/22-rdf-syntax-ns#"
   xmlns:svg="http://www.w3.org/2000/svg"
   xmlns="http://www.w3.org/2000/svg"
   xmlns:sodipodi="http://sodipodi.sourceforge.net/DTD/sodipodi-0.dtd"
   xmlns:inkscape="http://www.inkscape.org/namespaces/inkscape"
   width="5047.7856mm"
   height="1411.3779mm"
   viewBox="0 0 5047.7856 1411.3779"
   version="1.1"
   id="svg16160"
   inkscape:version="0.92.0 r15299"
   sodipodi:docname="marketo.svg">
  <defs
     id="defs16154" />
  <sodipodi:namedview
     id="base"
     pagecolor="#ffffff"
     bordercolor="#666666"
     borderopacity="1.0"
     inkscape:pageopacity="0.0"
     inkscape:pageshadow="2"
     inkscape:zoom="0.047110233"
     inkscape:cx="9520.2246"
     inkscape:cy="2648.2734"
     inkscape:document-units="mm"
     inkscape:current-layer="layer1"
     showgrid="false"
     fit-margin-top="0"
     fit-margin-left="0"
     fit-margin-right="0"
     fit-margin-bottom="0"
     inkscape:window-width="1280"
     inkscape:window-height="744"
     inkscape:window-x="-4"
     inkscape:window-y="-4"
     inkscape:window-maximized="1" />
  <metadata
     id="metadata16157">
    <rdf:RDF>
      <cc:Work
         rdf:about="">
        <dc:format>image/svg+xml</dc:format>
        <dc:type
           rdf:resource="http://purl.org/dc/dcmitype/StillImage" />
        <dc:title></dc:title>
      </cc:Work>
    </rdf:RDF>
  </metadata>
  <g
     inkscape:label="Layer 1"
     inkscape:groupmode="layer"
     id="layer1"
     transform="translate(2506.4195,561.85566)">
    <g
       transform="translate(-754.99843,-366.0999)"
       id="g16117">
      <path
         d="m -339.46417,989.50062 c -2.32974,-6.98853 -5.60141,-16.60842 -9.83368,-28.84276 -4.21428,-12.23398 -8.65964,-24.91281 -13.31877,-38.01815 -4.65879,-13.12369 -9.03323,-25.78418 -13.10534,-38.01851 -4.09011,-12.25162 -7.14869,-22.13892 -9.19339,-29.73176 h -0.42686 c -1.74273,7.00617 -4.30354,15.66616 -7.64646,26.01525 -3.36092,10.33145 -7.14834,21.55225 -11.36262,33.64406 -4.23228,12.09181 -8.60672,24.62847 -13.10569,37.59165 -4.53426,12.96317 -8.8198,25.41058 -12.89192,37.36022 z m -100.94948,33.64368 -31.45684,88.2887 c -0.58667,1.7427 -1.74237,2.614 -3.50273,2.614 h -29.71412 c -2.32939,0 -3.2011,-1.1557 -2.61408,-3.503 l 95.25917,-265.25682 c 0.58667,-1.76036 1.1557,-3.71651 1.74272,-5.90373 0.58667,-2.18722 1.03117,-6.18808 1.31586,-12.02055 0,-1.45838 0.7292,-2.18758 2.18723,-2.18758 h 42.8371 c 1.44039,0 2.31175,0.7292 2.61408,2.18758 l 102.6922,283.6256 c 0.889,2.045 0.28434,3.0585 -1.74273,3.0585 h -33.2172 c -1.45803,0 -2.61408,-0.7288 -3.48544,-2.1872 l -31.90099,-88.7155 z"
         style="fill:#4e4e4e;fill-opacity:1;fill-rule:nonzero;stroke:none;stroke-width:0.35277778"
         id="path15747"
         inkscape:connector-curvature="0" />
      <path
         d="m -221.90612,951.03786 c 0,-3.78777 -0.0713,-8.00241 -0.21343,-12.67883 -0.14217,-4.64115 -0.28469,-9.1754 -0.4445,-13.53221 -0.14252,-4.37444 -0.28469,-8.44655 -0.42686,-12.25197 -0.16016,-3.76978 -0.37324,-6.54367 -0.65793,-8.28675 0,-1.76036 0.87136,-2.63172 2.61408,-2.63172 h 27.10004 c 1.74272,0 3.05823,0.87136 3.92994,2.63172 0.58667,2.02777 1.03117,4.94383 1.31586,8.73125 0.28434,3.78778 0.72884,8.16187 1.31586,13.1057 19.22251,-19.22251 41.52124,-28.84276 66.86092,-28.84276 7.85953,0 15.95049,1.17334 24.254878,3.50308 8.304036,2.32939 15.950494,6.63293 22.939022,12.89227 6.988175,6.25898 12.749741,14.84806 17.266355,25.78417 4.516614,10.91812 6.775097,24.98372 6.775097,42.16118 v 129.36541 c 0,2.045 -1.031522,3.0585 -3.058583,3.0585 H -82.93849 c -2.027061,0 -3.058583,-1.1557 -3.058583,-3.5027 V 985.12607 c 0,-16.60842 -3.645253,-29.99846 -10.918119,-40.20538 -7.290858,-10.18928 -18.653478,-15.29256 -34.088568,-15.29256 -11.07828,0 -21.19629,2.32939 -30.37169,6.98817 -9.17575,4.65879 -17.26671,11.22081 -24.25488,19.66701 v 154.70509 c 0,2.045 -0.87172,3.0585 -2.61409,3.0585 h -31.02998 c -1.76036,0 -2.63172,-1.0135 -2.63172,-3.0585 z"
         style="fill:#4e4e4e;fill-opacity:1;fill-rule:nonzero;stroke:none;stroke-width:0.35277778"
         id="path15751"
         inkscape:connector-curvature="0" />
      <path
         d="m 253.98057,989.50062 c -2.32939,-6.98853 -5.60141,-16.60842 -9.83368,-28.84276 -4.21428,-12.23398 -8.65964,-24.91281 -13.31877,-38.01815 -4.65879,-13.12369 -9.03323,-25.78418 -13.10534,-38.01851 -4.09011,-12.25162 -7.14869,-22.13892 -9.19339,-29.73176 h -0.42686 c -1.74273,7.00617 -4.30319,15.66616 -7.64646,26.01525 -3.36092,10.33145 -7.14834,21.55225 -11.36262,33.64406 -4.23228,12.09181 -8.60672,24.62847 -13.10569,37.59165 -4.53426,12.96317 -8.8198,25.41058 -12.89192,37.36022 z m -100.94948,33.64368 -31.45684,88.2887 c -0.58667,1.7427 -1.74237,2.614 -3.50273,2.614 H 88.357404 c -2.329391,0 -3.200753,-1.1557 -2.614083,-3.503 L 181.00249,845.28718 c 0.58667,-1.76036 1.1557,-3.71651 1.74272,-5.90373 0.58667,-2.18722 1.03153,-6.18808 1.31586,-12.02055 0,-1.45838 0.7292,-2.18758 2.18723,-2.18758 h 42.8371 c 1.44039,0 2.31175,0.7292 2.61408,2.18758 l 102.6922,283.6256 c 0.889,2.045 0.28434,3.0585 -1.74273,3.0585 h -33.2172 c -1.45803,0 -2.61373,-0.7288 -3.48544,-2.1872 l -31.90099,-88.7155 z"
         style="fill:#4e4e4e;fill-opacity:1;fill-rule:nonzero;stroke:none;stroke-width:0.35277778"
         id="path15755"
         inkscape:connector-curvature="0" />
      <path
         d="m 501.34842,933.13093 c -3.48509,-1.45803 -7.71737,-2.56046 -12.67848,-3.28965 -4.94348,-0.7112 -10.18928,-1.08444 -15.71978,-1.08444 -12.53631,0 -23.75676,1.95615 -33.66135,5.90338 -9.90494,3.92995 -18.3515,9.46009 -25.33967,16.59079 -6.98853,7.14869 -12.39414,15.52398 -16.16393,25.14423 -3.80576,9.60226 -5.6903,20.09387 -5.6903,31.45686 0,14.2787 2.04505,26.3708 6.11717,36.2754 4.07211,9.9046 9.61989,17.9952 16.60842,24.2549 6.98817,6.2593 14.91932,10.8472 23.81038,13.7633 8.89106,2.9164 18.13772,4.3744 27.75797,4.3744 5.83247,0 11.86039,-0.3736 18.13771,-1.1024 6.25934,-0.7112 11.86075,-2.2405 16.82186,-4.5879 z m -38.46265,185.29017 c -15.15075,0 -29.26962,-2.2581 -42.37496,-6.7747 -13.12334,-4.5167 -24.55722,-11.363 -34.31964,-20.5384 -9.76242,-9.1758 -17.40887,-20.5384 -22.93902,-34.0882 -5.53014,-13.5502 -8.30439,-29.3585 -8.30439,-47.4253 0,-16.0218 2.84515,-30.86987 8.51782,-44.56223 5.69031,-13.69236 13.78091,-25.57074 24.25488,-35.6175 10.49162,-10.06475 23.00993,-17.92464 37.5913,-23.59731 14.56372,-5.6903 30.72765,-8.5351 48.51012,-8.5351 6.11681,0 11.20281,0.30198 15.29256,0.87136 4.07211,0.58667 8.14423,1.17334 12.23398,1.76036 v -96.59302 c 0,-1.74237 0.87136,-2.61409 2.63172,-2.61409 h 31.45684 c 1.74273,0 2.63173,0.7292 2.63173,2.18723 v 275.3219 10.0467 c 0,3.5031 0.28469,7.1484 0.87136,10.9182 0,1.476 -0.7292,2.4895 -2.18723,3.0585 -12.53631,5.8325 -24.91281,9.9935 -37.14679,12.4654 -12.23433,2.4716 -24.46831,3.7162 -36.72028,3.7162"
         style="fill:#4e4e4e;fill-opacity:1;fill-rule:nonzero;stroke:none;stroke-width:0.35277778"
         id="path15759"
         inkscape:connector-curvature="0" />
      <path
         d="m 682.69115,928.7567 c -9.31792,0 -17.76448,1.90288 -25.33967,5.67231 -7.5752,3.78778 -14.06561,9.12248 -19.45358,15.95085 -5.38798,6.84601 -9.60226,15.07913 -12.66084,24.69938 -3.05859,9.62025 -4.58788,20.25403 -4.58788,31.90096 0,11.0787 1.44039,21.481 4.35645,31.2438 2.91642,9.7624 7.05979,18.2799 12.46541,25.5704 5.38797,7.2729 12.07417,12.9632 20.09387,17.0353 8.01969,4.0901 17.2667,6.1171 27.75796,6.1171 7.85989,0 15.43509,-1.5293 22.72559,-4.5878 7.27322,-3.0586 13.83454,-7.8596 19.66701,-14.4212 5.81484,-6.5441 10.47397,-14.7059 13.97706,-24.4684 3.50308,-9.7624 5.2458,-21.4809 5.2458,-35.173 0,-10.20723 -1.24495,-20.04055 -3.71651,-29.50064 -2.47192,-9.46044 -6.25934,-17.92464 -11.36297,-25.35732 -5.10329,-7.41538 -11.73621,-13.39003 -19.88044,-17.90664 -8.16187,-4.51697 -17.92464,-6.7751 -29.28726,-6.7751 m 1.76036,-31.47448 c 15.43509,0 29.26962,2.77424 41.5036,8.30404 12.23433,5.54813 22.65468,13.26585 31.26105,23.17044 8.58908,9.90459 15.20402,21.5519 19.88044,34.95992 4.65878,13.40732 6.98853,27.9714 6.98853,43.69048 0,16.6084 -2.47157,31.7592 -7.43268,45.4512 -4.96147,13.71 -11.78983,25.3576 -20.53872,34.9599 -8.7309,9.6202 -19.22251,17.1245 -31.45684,22.5122 -12.23398,5.3883 -25.64165,8.0909 -40.20538,8.0909 -17.47978,0 -32.55892,-3.2184 -45.23775,-9.6202 -12.67883,-6.4015 -23.09918,-14.8481 -31.24341,-25.3397 -8.16187,-10.4913 -14.20777,-22.3696 -18.13772,-35.6175 -3.92994,-13.2655 -5.90373,-26.5843 -5.90373,-39.992 0,-15.43504 2.32939,-29.8566 6.98852,-43.26427 4.65879,-13.39003 11.36262,-25.12589 20.11151,-35.173 8.73125,-10.06475 19.29377,-17.92429 31.68791,-23.59695 12.37651,-5.69031 26.28195,-8.53546 41.73467,-8.53546"
         style="fill:#4e4e4e;fill-opacity:1;fill-rule:nonzero;stroke:none;stroke-width:0.35277778"
         id="path15763"
         inkscape:connector-curvature="0" />
      <path
         d="m 975.91943,1002.6061 c 0,-22.42361 -6.11717,-40.27664 -18.3515,-53.5245 -12.23398,-13.2655 -28.8424,-19.89808 -49.82563,-19.89808 -9.31756,0 -17.17745,0.65758 -23.5966,1.97379 -6.40185,1.31586 -12.3765,3.12949 -17.90664,5.45889 v 146.8452 c 4.07211,1.4583 8.4462,2.401 13.10534,2.8275 4.65878,0.4448 9.90459,0.6579 15.73742,0.6579 10.49125,0 20.60927,-1.7424 30.37169,-5.2458 9.74443,-3.4851 18.35115,-8.7309 25.78418,-15.7194 7.43267,-7.0062 13.39003,-15.8084 17.90664,-26.4421 4.51697,-10.6335 6.7751,-22.9387 6.7751,-36.9334 M 863.18047,800.70715 c 1.1557,0 1.95616,0.0713 2.4003,0.21343 0.42687,0.15981 0.65829,0.96026 0.65829,2.40065 v 102.70984 c 14.26139,-5.83248 29.99846,-8.74889 47.19355,-8.74889 15.15039,0 28.84276,2.56046 41.07709,7.64611 12.23398,5.10363 22.72524,12.25232 31.47413,21.42772 8.73125,9.17575 15.43507,19.9517 20.09387,32.32785 4.6591,12.39449 6.9889,26.01559 6.9889,40.86366 0,19.80918 -3.4322,37.07588 -10.2606,51.78138 -6.84597,14.7239 -15.87955,27.1004 -27.1,37.1472 -11.22045,10.0647 -24.11271,17.569 -38.67609,22.5125 -14.56372,4.9431 -29.57195,7.4327 -45.00668,7.4327 -11.07863,0 -21.49898,-0.6576 -31.24341,-1.9738 -9.78041,-1.3159 -19.31141,-3.5564 -28.62933,-6.7751 -1.76036,-0.2843 -2.63172,-1.6002 -2.63172,-3.93 V 803.32123 c 0,-1.74272 1.03152,-2.61408 3.05859,-2.61408 z"
         style="fill:#4e4e4e;fill-opacity:1;fill-rule:nonzero;stroke:none;stroke-width:0.35277778"
         id="path15767"
         inkscape:connector-curvature="0" />
      <path
         d="m 1165.584,985.12604 c 10.7763,0 17.9959,-0.0709 21.6412,-0.21308 3.6276,-0.14252 5.7435,-0.37359 6.3302,-0.65828 0.2847,-0.58667 0.4448,-1.38677 0.4448,-2.4003 v -2.40065 c 0,-3.78743 -0.7295,-8.67798 -2.1872,-14.65263 -1.4584,-5.957 -4.161,-11.71857 -8.0909,-17.24871 -3.93,-5.5305 -9.247,-10.27819 -15.9509,-14.20778 -6.7038,-3.92994 -15.1504,-5.90409 -25.3397,-5.90409 -9.0328,0 -16.982,1.60091 -23.828,4.80166 -6.846,3.21839 -12.6608,7.50359 -17.4798,12.89191 -4.8013,5.40562 -8.5887,11.59405 -11.3629,18.58257 -2.7739,6.98818 -4.5879,14.13651 -5.4589,21.40938 z m -81.709,27.10006 c 0,10.4916 1.4404,20.254 4.3565,29.2696 2.9164,9.0336 7.4334,16.9111 13.5502,23.5969 6.1168,6.7215 13.7632,11.9497 22.939,15.7371 9.1757,3.7878 19.8981,5.6903 32.1324,5.6903 9.6026,0 19.0091,-0.9423 28.1848,-2.8448 9.1754,-1.8849 17.9776,-4.8726 26.4421,-8.9627 1.4581,-0.871 2.1873,-0.2839 2.1873,1.7431 v 24.9128 c 0,2.0451 -0.7292,3.5031 -2.1873,4.3741 -7.5932,3.7878 -16.2531,6.8464 -26.0156,9.1758 -9.762,2.3297 -21.6228,3.5031 -35.5998,3.5031 -18.9558,0 -34.9776,-3.1295 -48.0829,-9.4065 -13.1057,-6.2597 -23.6679,-14.5641 -31.6879,-24.8955 -8.0017,-10.3491 -13.8342,-21.9964 -17.4798,-34.9772 -3.6453,-12.9456 -5.4593,-26.1402 -5.4593,-39.5478 0,-15.13245 2.1873,-29.554 6.5621,-43.26401 4.374,-13.69236 10.7043,-25.62401 19.0087,-35.83128 8.3044,-10.18893 18.4224,-18.27989 30.372,-24.25488 11.9497,-5.97465 25.4819,-8.96197 40.6323,-8.96197 15.7374,0 29.0029,2.84515 39.7788,8.5351 10.776,5.67302 19.5069,12.82101 26.2107,21.41009 6.7039,8.58872 11.5944,18.0668 14.653,28.39825 3.0582,10.34909 4.5875,20.18277 4.5875,29.50034 0,5.54849 -0.1601,10.20727 -0.4445,13.99469 -0.2847,3.78747 -0.7292,6.70387 -1.3158,8.73127 0,1.7424 -1.0139,2.6137 -3.0586,2.6137 -3.2008,0.6047 -9.1045,1.0315 -17.6932,1.3162 -8.5891,0.302 -17.6933,0.4442 -27.3135,0.4442 z"
         style="fill:#4e4e4e;fill-opacity:1;fill-rule:nonzero;stroke:none;stroke-width:0.35277778"
         id="path15771"
         inkscape:connector-curvature="0" />
      <path
         d="m 1569.8087,1105.7426 c 0,2.6317 -0.7288,4.0901 -2.1872,4.3744 -7.2729,3.2011 -15.8796,5.388 -25.7662,6.5437 -9.9226,1.1737 -20.9832,1.7604 -33.2172,1.7604 -18.3515,0 -36.3471,-2.7739 -53.969,-8.3041 -17.64,-5.5301 -33.377,-14.279 -47.2119,-26.2286 -13.8345,-11.9317 -25.055,-27.3844 -33.6437,-46.3226 -8.5891,-18.9378 -12.8923,-41.8059 -12.8923,-68.60396 0,-21.85423 3.6456,-41.87684 10.9185,-60.08582 7.2905,-18.20897 17.551,-33.80387 30.8165,-46.76704 13.2476,-12.96317 29.3406,-23.08119 48.2964,-30.37205 18.9381,-7.27287 40.0455,-10.91812 63.3578,-10.91812 14.8657,0 26.6555,0.72884 35.4044,2.16923 8.7309,1.47602 15.5769,3.36127 20.5384,5.69031 1.4584,0.58702 2.1872,1.74307 2.1872,3.48544 v 29.28761 c 0,2.04435 -1.0315,2.77389 -3.0586,2.18687 -12.5363,-6.70383 -31.1897,-10.04711 -55.9428,-10.04711 -17.195,0 -32.8436,2.68535 -46.9804,8.07332 -14.1369,5.40561 -26.3,13.05207 -36.4892,22.95666 -10.2066,9.90459 -18.0665,21.92584 -23.5966,36.04472 -5.5305,14.13651 -8.3044,29.94519 -8.3044,47.42497 0,22.72559 3.7874,41.66337 11.3629,56.79647 7.5749,15.1681 17.1062,27.171 28.629,36.062 11.5052,8.8911 23.9529,15.1504 37.3602,18.796 13.3901,3.6453 25.7846,5.4589 37.1472,5.4589 11.0606,0 20.8943,-0.4977 29.5007,-1.5293 8.5887,-1.0135 16.9644,-3.1298 25.1262,-6.3302 1.7427,-0.3023 2.6141,0.2843 2.6141,1.7424 z"
         style="fill:#4e4e4e;fill-opacity:1;fill-rule:nonzero;stroke:none;stroke-width:0.35277778"
         id="path15775"
         inkscape:connector-curvature="0" />
      <path
         d="m 1696.5423,928.7567 c -9.3179,0 -17.7645,1.90288 -25.3397,5.67231 -7.5752,3.78778 -14.0656,9.12248 -19.4539,15.95085 -5.388,6.84601 -9.6023,15.07913 -12.6605,24.69938 -3.0586,9.62025 -4.5879,20.25403 -4.5879,31.90096 0,11.0787 1.4401,21.481 4.3565,31.2438 2.9164,9.7624 7.0594,18.2799 12.465,25.5704 5.3884,7.2729 12.0742,12.9632 20.0939,17.0353 8.0201,4.0901 17.2667,6.1171 27.7583,6.1171 7.8596,0 15.4348,-1.5293 22.7256,-4.5878 7.2729,-3.0586 13.8345,-7.8596 19.667,-14.4212 5.8149,-6.5441 10.4736,-14.7059 13.9767,-24.4684 3.5035,-9.7624 5.2458,-21.4809 5.2458,-35.173 0,-10.20723 -1.2446,-20.04055 -3.7165,-29.50064 -2.4715,-9.46044 -6.2593,-17.92464 -11.3626,-25.35732 -5.1036,-7.41538 -11.7366,-13.39003 -19.8804,-17.90664 -8.1623,-4.51697 -17.9247,-6.7751 -29.2873,-6.7751 m 1.7604,-31.47448 c 15.4347,0 29.2692,2.77424 41.5036,8.30404 12.2339,5.54813 22.6543,13.26585 31.261,23.17044 8.5887,9.90459 15.204,21.5519 19.8804,34.95992 4.6588,13.40732 6.9886,27.9714 6.9886,43.69048 0,16.6084 -2.4719,31.7592 -7.4331,45.4512 -4.9614,13.71 -11.7894,25.3576 -20.5383,34.9599 -8.7313,9.6202 -19.2225,17.1245 -31.4569,22.5122 -12.2343,5.3883 -25.642,8.0909 -40.2053,8.0909 -17.4802,0 -32.5593,-3.2184 -45.2378,-9.6202 -12.6792,-6.4015 -23.0992,-14.8481 -31.2438,-25.3397 -8.1615,-10.4913 -14.2077,-22.3696 -18.1377,-35.6175 -3.9296,-13.2655 -5.9034,-26.5843 -5.9034,-39.992 0,-15.43504 2.3291,-29.8566 6.9886,-43.26427 4.6588,-13.39003 11.3626,-25.12589 20.1111,-35.173 8.7313,-10.06475 19.2942,-17.92429 31.6883,-23.59695 12.3765,-5.69031 26.2819,-8.53546 41.7347,-8.53546"
         style="fill:#4e4e4e;fill-opacity:1;fill-rule:nonzero;stroke:none;stroke-width:0.35277778"
         id="path15779"
         inkscape:connector-curvature="0" />
      <path
         d="m 1846.0192,1114.047 c -1.7604,0 -2.6317,-1.0135 -2.6317,-3.0586 V 947.55247 c 0,-9.62025 -0.1422,-18.20897 -0.4269,-25.78417 -0.302,-7.57555 -0.7288,-13.40803 -1.3155,-17.48014 0,-1.76036 0.871,-2.63172 2.6137,-2.63172 h 27.5446 c 1.4584,0 2.6141,0.72919 3.4854,2.18722 0.5867,2.32974 1.1024,5.53014 1.5293,9.62025 0.4442,4.07211 0.8001,7.85954 1.1024,11.36297 19.5072,-18.36914 41.3615,-27.54453 65.5451,-27.54453 26.7977,0 46.1804,10.65142 58.13,31.90134 9.3179,-9.01594 19.8092,-16.60913 31.4568,-22.72595 11.647,-6.11681 25.4995,-9.17539 41.5213,-9.17539 8.1619,0 16.3953,1.2446 24.6994,3.71616 8.3044,2.4899 15.8619,6.846 22.7256,13.10534 6.8283,6.27733 12.4477,14.79515 16.8218,25.5711 4.3568,10.79358 6.544,24.46831 6.544,41.07673 v 130.68122 c 0,1.7427 -1.0135,2.6141 -3.0585,2.6141 h -30.1407 c -2.045,0 -3.0586,-1.0135 -3.0586,-3.0586 V 983.38341 c 0,-14.86571 -3.5743,-27.54454 -10.7226,-38.01816 -7.1307,-10.49161 -18.4224,-15.73742 -33.8572,-15.73742 -11.0786,0 -21.0545,2.25849 -29.9452,6.7751 -8.891,4.51662 -16.8222,10.70469 -23.8103,18.56458 0.5866,2.63172 1.0844,6.63257 1.5292,12.0209 0.4442,5.40562 0.658,10.70469 0.658,15.9505 v 128.04949 c 0,2.0451 -1.0315,3.0586 -3.0586,3.0586 h -30.6031 c -2.0274,0 -3.0586,-1.0135 -3.0586,-3.0586 V 982.06754 c 0,-16.60842 -3.6985,-29.50033 -11.1319,-38.67608 -7.4327,-9.17575 -18.2979,-13.76363 -32.5593,-13.76363 -10.2065,0 -19.4536,1.9738 -27.7576,5.90409 -8.3044,3.92959 -16.6797,10.11767 -25.1262,18.56458 v 157.3364 c 0,1.7427 -0.8718,2.6141 -2.6141,2.6141 z"
         style="fill:#4e4e4e;fill-opacity:1;fill-rule:nonzero;stroke:none;stroke-width:0.35277778"
         id="path15783"
         inkscape:connector-curvature="0" />
      <path
         d="m 2283.9057,929.18353 c -7.5928,0 -14.7235,0.58667 -21.4277,1.76036 -6.7039,1.15605 -13.1057,2.91641 -19.2225,5.24545 v 148.14376 c 3.7877,1.1557 7.8599,1.9025 12.234,2.1868 4.3747,0.2847 8.589,0.4269 12.6788,0.4269 10.4916,0 20.823,-1.6715 31.03,-5.0147 10.1889,-3.3426 19.2937,-8.4462 27.3131,-15.2922 8.0024,-6.8464 14.4928,-15.5949 19.4363,-26.2291 4.9611,-10.6337 7.433,-23.2233 7.433,-37.8047 0,-22.4236 -6.0459,-40.27663 -18.1381,-53.52449 -12.0918,-13.26551 -29.1983,-19.89808 -51.3369,-19.89808 m 4.3565,-31.90134 c 16.0217,0 30.3716,2.63172 43.0508,7.87717 12.6785,5.24616 23.3836,12.44812 32.1324,21.62316 8.7309,9.17575 15.4348,20.11187 20.0939,32.77306 4.6588,12.67848 6.9882,26.29993 6.9882,40.86332 0,19.8272 -3.574,37.1471 -10.7047,52.0128 -7.1487,14.8481 -16.6084,27.1713 -28.3983,36.9158 -11.8074,9.78 -25.2151,17.0532 -40.2053,21.8542 -15.0083,4.8189 -30.2299,7.2196 -45.665,7.2196 -4.9611,0 -9.1221,-0.1598 -12.465,-0.4445 -3.3433,-0.2847 -6.633,-0.7289 -9.8337,-1.3159 v 87.4173 c 0,1.7427 -0.7292,2.7563 -2.1873,3.0582 -2.614,0.2847 -5.6014,0.5694 -8.9623,0.8714 -3.3429,0.2847 -6.7038,0.6579 -10.0467,1.0848 -3.343,0.4445 -6.2594,0.8004 -8.7309,1.1024 -2.4896,0.2847 -3.8767,0.4269 -4.161,0.4269 -1.4584,0 -2.1876,-0.871 -2.1876,-2.6141 V 935.7452 c 0,-2.02706 -0.071,-5.03238 -0.2131,-8.96268 -0.1422,-3.92959 -0.3736,-7.34377 -0.6579,-10.26018 0,-0.889 0.2843,-1.45768 0.871,-1.76037 7.5752,-2.89842 18.3691,-6.54402 32.3458,-10.91811 13.9771,-4.37445 30.3008,-6.56167 48.9367,-6.56167"
         style="fill:#4e4e4e;fill-opacity:1;fill-rule:nonzero;stroke:none;stroke-width:0.35277778"
         id="path15787"
         inkscape:connector-curvature="0" />
      <path
         d="m 2550.9052,1012.653 c -3.2008,-0.569 -7.1487,-1.0135 -11.8075,-1.2982 -4.6591,-0.2844 -10.3314,-0.4445 -17.0353,-0.4445 -21.2675,0 -37.0755,3.4318 -47.4073,10.2778 -10.3494,6.8467 -15.5236,16.3777 -15.5236,28.612 0,4.9608 0.871,9.7625 2.6313,14.4212 1.7431,4.6768 4.7304,8.8202 8.9447,12.4655 4.2323,3.6452 9.6203,6.5436 16.1816,8.7308 6.544,2.1873 14.6346,3.2897 24.2552,3.2897 14.5634,0 27.8113,-2.4716 39.7609,-7.4327 z m 35.4041,64.2468 v 10.7051 c 0,3.3605 0.2847,6.7751 0.8713,10.2782 0,0.871 -0.3019,1.4576 -0.8713,1.7423 -15.7371,7.5756 -30.0874,12.6076 -43.0506,15.0795 -12.9631,2.4716 -25.8554,3.7162 -38.6764,3.7162 -11.647,0 -22.4409,-1.4577 -32.3455,-4.3741 -9.9046,-2.9164 -18.4937,-7.2196 -25.7842,-12.8923 -7.2728,-5.6723 -12.9631,-12.821 -17.0352,-21.4094 -4.0902,-8.589 -6.1172,-18.5825 -6.1172,-29.9452 0,-11.6476 2.5428,-21.6231 7.6464,-29.9275 5.0857,-8.3044 12.0206,-15.2217 20.7518,-20.7518 8.7489,-5.54814 19.0091,-9.62025 30.8166,-12.25197 11.7895,-2.61409 24.5392,-3.92995 38.2316,-3.92995 8.1618,0 14.6526,0.0713 19.4536,0.21343 4.8013,0.16016 8.3753,0.37359 10.705,0.65793 v -10.47362 c 0,-3.50308 -0.587,-7.71736 -1.7427,-12.67883 -1.1737,-4.96111 -3.5031,-9.69116 -6.9885,-14.20777 -3.5031,-4.51697 -8.4642,-8.44656 -14.8661,-11.78983 -6.4191,-3.36057 -15.0079,-5.03238 -25.7842,-5.03238 -10.4912,0 -20.4671,1.17369 -29.9272,3.50308 -9.4781,2.32975 -17.9955,5.5305 -25.5707,9.60261 -2.0451,0.58667 -3.0586,-0.14252 -3.0586,-2.18722 v -26.65553 c 0,-1.45839 0.7115,-2.61409 2.1872,-3.48545 8.4466,-4.08975 17.9779,-7.2905 28.6117,-9.61989 10.6334,-2.32975 21.783,-3.50309 33.4306,-3.50309 13.9944,0 26.0153,2.18687 36.062,6.56132 10.0472,4.37444 18.209,10.26018 24.4684,17.69356 6.2593,7.43268 10.9361,16.11066 13.9946,26.01525 3.0583,9.90459 4.5876,20.53837 4.5876,31.90134 z"
         style="fill:#4e4e4e;fill-opacity:1;fill-rule:nonzero;stroke:none;stroke-width:0.35277778"
         id="path15791"
         inkscape:connector-curvature="0" />
      <path
         d="m 2647.4802,951.03786 c 0,-3.78777 -0.071,-8.00241 -0.2131,-12.67883 -0.1425,-4.64115 -0.2847,-9.1754 -0.4448,-13.53221 -0.1426,-4.37444 -0.2847,-8.44655 -0.4269,-12.25197 -0.1598,-3.76978 -0.3736,-6.54367 -0.6576,-8.28675 0,-1.76036 0.871,-2.63172 2.6138,-2.63172 h 27.1 c 1.7427,0 3.0586,0.87136 3.9299,2.63172 0.5867,2.02777 1.0316,4.94383 1.3159,8.73125 0.2843,3.78778 0.7292,8.16187 1.3159,13.1057 19.2225,-19.22251 41.5212,-28.84276 66.8609,-28.84276 7.8595,0 15.9508,1.17334 24.2549,3.50308 8.3043,2.32939 15.9508,6.63293 22.939,12.89227 6.9885,6.25898 12.7497,14.84806 17.2667,25.78417 4.5162,10.91812 6.7747,24.98372 6.7747,42.16118 v 129.36541 c 0,2.045 -1.0311,3.0585 -3.0582,3.0585 h -30.6031 c -2.0274,0 -3.0586,-1.1557 -3.0586,-3.5027 V 985.12607 c 0,-16.60842 -3.6456,-29.99846 -10.9185,-40.20538 -7.2905,-10.18928 -18.6534,-15.29256 -34.0882,-15.29256 -11.0786,0 -21.1966,2.32939 -30.372,6.98817 -9.1758,4.65879 -17.2664,11.22081 -24.2553,19.66701 v 154.70509 c 0,2.045 -0.8713,3.0585 -2.6137,3.0585 h -31.03 c -1.7603,0 -2.6317,-1.0135 -2.6317,-3.0585 z"
         style="fill:#4e4e4e;fill-opacity:1;fill-rule:nonzero;stroke:none;stroke-width:0.35277778"
         id="path15795"
         inkscape:connector-curvature="0" />
      <path
         d="m 2886.0991,901.65656 c 1.4584,0 2.4719,0.72884 3.0586,2.18722 9.0332,24.18398 16.9644,45.45118 23.8104,63.80268 6.846,18.35115 12.7501,34.23074 17.7108,47.63844 4.9438,13.4076 8.9447,24.5392 12.0033,33.4302 3.0582,8.8911 5.3167,15.8084 6.7751,20.7522 7.0058,-20.0939 15.2213,-43.3352 24.699,-69.70642 9.4605,-26.3532 20.8943,-58.34344 34.302,-95.9171 0.8714,-1.45838 2.0451,-2.18722 3.5031,-2.18722 h 31.03 c 2.027,0 2.6141,1.03152 1.7427,3.05858 -8.1622,23.59696 -16.982,48.15417 -26.4421,73.63601 -9.4777,25.49985 -19.2938,51.14145 -29.5007,76.92565 -10.1893,25.7842 -20.6096,51.3369 -31.2434,76.6946 -10.6334,25.3393 -21.1963,49.6658 -31.6879,72.9784 -0.8714,1.7424 -2.4716,2.7559 -4.801,3.0579 l -32.7727,2.6145 c -1.7603,0 -2.1872,-1.1561 -1.3158,-3.4855 6.4015,-13.4077 13.39,-28.4868 20.9828,-45.2381 7.5576,-16.7506 14.9903,-33.8748 22.2811,-51.3546 0.8714,-1.4404 0.8714,-3.3429 0,-5.6726 -1.7423,-4.3741 -4.3744,-10.776 -7.8595,-19.2225 -3.5035,-8.4466 -7.504,-18.209 -12.0209,-29.2873 -4.5166,-11.0603 -9.4065,-23.0815 -14.6347,-36.062 -5.2458,-12.9459 -10.5805,-26.14012 -15.9684,-39.54779 -5.388,-13.39004 -10.7047,-26.65554 -15.9505,-39.76088 -5.2278,-13.10534 -10.0468,-25.35767 -14.4216,-36.70265 -0.8713,-1.76036 -0.1422,-2.63172 2.1872,-2.63172 z"
         style="fill:#4e4e4e;fill-opacity:1;fill-rule:nonzero;stroke:none;stroke-width:0.35277778"
         id="path15799"
         inkscape:connector-curvature="0" />
      <path
         d="M -1095.743,-190.75579 V 892.19647 L -818.94121,671.29409 V -40.455527 Z"
         style="fill:#5c4c9f;fill-opacity:1;fill-rule:nonzero;stroke:none;stroke-width:0.35277778"
         id="path15803"
         inkscape:connector-curvature="0" />
      <path
         d="m -1224.1832,655.71672 -223.5334,97.4531 V -97.003444 l 223.5334,66.498257 z"
         style="fill:#5c4c9f;fill-opacity:1;fill-rule:nonzero;stroke:none;stroke-width:0.35277778"
         id="path15807"
         inkscape:connector-curvature="0" />
      <path
         d="m -1746.421,630.53273 170.2647,-44.6024 0.1298,-543.092909 -170.2647,-26.991027 z"
         style="fill:#5c4c9f;fill-opacity:1;fill-rule:nonzero;stroke:none;stroke-width:0.35277778"
         id="path15811"
         inkscape:connector-curvature="0" />
      <path
         d="M 93.044131,-40.45214 -142.8499,346.84317 -381.79722,-40.45214 h -126.08136 v 711.74855 h 118.96019 V 151.71649 L -145.88978,542.28488 98.138242,148.67661 v 522.6198 H 216.0715 V -40.45214 Z"
         style="fill:#1f1646;fill-opacity:1;fill-rule:nonzero;stroke:none;stroke-width:0.35277778"
         id="path15815"
         inkscape:connector-curvature="0" />
      <path
         d="m 486.18137,587.92998 c 73.20844,0 124.0543,-47.79257 124.0543,-115.92031 v -27.44293 l -110.8396,18.29541 c -53.8861,9.14752 -81.32903,32.52328 -81.32903,68.12773 0.99977,35.59069 28.45611,56.9401 68.11433,56.9401 m 128.12148,83.36915 -1.01318,-64.06092 c -35.59104,51.85939 -93.55772,76.26244 -155.57852,76.26244 -90.48997,0 -153.53771,-58.96645 -153.53771,-143.36324 0,-92.53079 58.98056,-147.43006 175.91405,-165.73923 l 129.12125,-20.33552 v -8.12059 c 0,-52.88633 -39.65822,-82.38349 -107.7722,-82.38349 -65.07409,0 -121.00066,27.4567 -168.77947,71.19549 V 219.8473 c 43.71164,-35.59069 103.70538,-58.96681 176.91347,-58.96681 139.29606,0 214.54497,71.16833 214.54497,190.12853 v 320.29011 z"
         style="fill:#1f1646;fill-opacity:1;fill-rule:nonzero;stroke:none;stroke-width:0.35277778"
         id="path15819"
         inkscape:connector-curvature="0" />
      <path
         d="m 1115.7521,285.93895 c -5.0941,-3.054 -15.2555,-4.06717 -30.5103,-4.06717 -86.42354,0 -139.2961,67.11455 -139.2961,169.8064 V 671.30351 H 829.01186 V 173.07229 h 115.9203 v 85.40997 c 24.40305,-57.95328 83.36954,-95.58444 148.45734,-95.58444 13.2147,0 20.3221,1.02694 22.3626,3.06741 z"
         style="fill:#1f1646;fill-opacity:1;fill-rule:nonzero;stroke:none;stroke-width:0.35277778"
         id="path15823"
         inkscape:connector-curvature="0" />
      <path
         d="m 1191.0967,-40.45214 v 711.74855 h 116.9335 V 474.04743 l 25.43,-23.38952 177.9266,220.6385 h 144.3905 l -232.84,-281.64577 216.5713,-216.58509 h -144.3764 l -187.102,188.11522 V -40.45214 Z"
         style="fill:#1f1646;fill-opacity:1;fill-rule:nonzero;stroke:none;stroke-width:0.35277778"
         id="path15827"
         inkscape:connector-curvature="0" />
      <path
         d="m 2012.3624,371.35011 c -7.1212,-68.11433 -55.9269,-114.90678 -126.0951,-114.90678 -71.168,0 -123.0274,55.92657 -131.1614,114.90678 z m 86.4231,259.28319 c -51.8593,32.5374 -117.947,52.87293 -192.1686,52.87293 -164.726,0 -268.4448,-111.83938 -268.4448,-262.3372 0,-149.47053 103.7188,-260.29637 250.1356,-260.29637 145.4038,0 238.9477,109.81231 238.9477,257.24273 0,16.2821 0,25.42963 -3.054,40.6714 h -369.0955 c 9.1472,69.14126 66.0873,124.0543 159.6454,124.0543 63.0332,0 124.0405,-22.36223 184.0342,-67.11456 z"
         style="fill:#1f1646;fill-opacity:1;fill-rule:nonzero;stroke:none;stroke-width:0.35277778"
         id="path15831"
         inkscape:connector-curvature="0" />
      <path
         d="m 2423.8413,575.72161 c 19.3082,0 39.6579,-4.06717 54.913,-15.25517 v 104.73231 c -19.322,11.188 -48.8195,18.29506 -89.4771,18.29506 -100.6648,0 -159.6454,-60.99316 -159.6454,-165.72547 V 272.71338 h -88.4632 L 2346.5657,11.020003 V 173.07517 h 132.1886 v 99.63821 h -132.1886 v 223.69215 c 0,55.92656 24.4027,79.31608 77.2756,79.31608"
         style="fill:#1f1646;fill-opacity:1;fill-rule:nonzero;stroke:none;stroke-width:0.35277778"
         id="path15835"
         inkscape:connector-curvature="0" />
      <path
         d="m 2631.2895,422.18938 c 0,85.40961 65.0744,153.5377 148.4574,153.5377 83.3695,0 148.4435,-68.12809 148.4435,-153.5377 0,-85.40997 -65.074,-153.55146 -148.4435,-153.55146 -83.383,0 -148.4574,68.14149 -148.4574,153.55146 m 413.8341,0 c 0,146.41689 -112.8522,261.32366 -265.3767,261.32366 -152.5246,0 -265.3909,-114.90677 -265.3909,-261.32366 0,-146.41689 112.8663,-261.32366 265.3909,-261.32366 152.5245,0 265.3767,114.90677 265.3767,261.32366"
         style="fill:#1f1646;fill-opacity:1;fill-rule:nonzero;stroke:none;stroke-width:0.35277778"
         id="path15839"
         inkscape:connector-curvature="0" />
      <path
         d="m 3048.4718,73.531239 h 90.0867 v 19.628555 h -34.3281 V 197.41303 h -21.4157 V 93.159794 h -34.3429 z"
         style="fill:#000000;fill-opacity:1;fill-rule:nonzero;stroke:none;stroke-width:0.35277778"
         id="path15843"
         inkscape:connector-curvature="0" />
      <path
         d="M 3186.0593,106.96607 V 197.413 h -20.7095 V 73.531204 h 21.9488 l 41.5918,63.180386 41.0587,-63.180386 h 21.4154 V 197.413 h -20.5221 v -90.96587 l -37.3546,56.63777 h -10.2612 z"
         style="fill:#000000;fill-opacity:1;fill-rule:nonzero;stroke:none;stroke-width:0.35277778"
         id="path15847"
         inkscape:connector-curvature="0" />
    </g>
  </g>
</svg>
