<svg
  width="500"
  height="500"
  viewBox="0 0 500 500"
  fill="none"
  xmlns="http://www.w3.org/2000/svg"
>
<path
    fill-rule="evenodd"
    clip-rule="evenodd"
    d="M388.46 0L486.461 109.183C504.513 129.294 504.513 162.011 486.461 182.122L482.824 186.174L437.966 136.197C426.885 190.192 383.508 230.634 331.733 230.634H256.617C224.852 230.634 199.006 259.432 199.006 294.822V378.503C199.006 430.587 170.863 457.999 155.168 473.288L154.547 473.893C138.985 489.06 114.995 499.893 91.6538 499.893C68.3122 499.893 48.2124 489.782 40.4319 482.56C32.6513 475.338 22.1766 461.615 19.0354 455.837C14.7161 447.893 6.71614 432.726 0.880732 408.892C-4.95468 385.058 19.6837 367.003 31.3546 388.67C34.3476 394.226 36.7436 398.88 38.7942 402.863C44.7394 414.411 47.7805 420.319 54.0478 426.226C62.4768 434.17 75.4444 440.67 91.6538 439.948C107.863 439.226 147.564 413.893 147.564 378.503V294.822C147.564 227.827 196.483 173.323 256.617 173.323H331.733C363.494 173.323 389.344 144.528 389.344 109.139V82.0277L384.823 76.9906C366.771 56.8796 366.771 24.1592 384.823 4.05194L388.46 0ZM289.03 365.319V359.587C289.03 331.145 309.797 308.005 335.323 308.005H440.786V378.505C440.786 445.499 391.866 500 331.733 500H177.471C194.511 484.736 208.268 465.127 217.408 442.689H331.733C363.495 442.689 389.344 413.89 389.344 378.505V365.319H289.03Z"
    fill="#6090ED"
  />
</svg>
